{
.appVersion = "3309";
.formatVersion = 3;
DisplayStrings = (
"ªº"
);
customParameters = (
{
name = "Use Typo Metrics";
value = 1;
},
{
name = fsType;
value = (
);
}
);
date = "2024-07-25 09:20:16 +0000";
familyName = "New Amsterdam";
featurePrefixes = (
{
automatic = 1;
code = "languagesystem DFLT dflt;

languagesystem latn dflt;
languagesystem latn ROM;
languagesystem latn MOL;
languagesystem latn CAT;
";
name = Languagesystems;
}
);
features = (
{
automatic = 1;
code = "feature locl;
feature ordn;
";
tag = aalt;
},
{
automatic = 1;
code = "lookup ccmp_DFLT_1 {
	@CombiningTopAccents = [acutecomb brevecomb circumflexcomb dieresiscomb dotaccentcomb gravecomb macroncomb tildecomb];
	lookupflag UseMarkFilteringSet @CombiningTopAccents;
	sub i' @CombiningTopAccents by idotless;
	sub j' @CombiningTopAccents by jdotless;
} ccmp_DFLT_1;
";
tag = ccmp;
},
{
automatic = 1;
code = "script latn;
language ROM;
lookup locl_latn_0 {
	sub Scedilla by Scommaaccent;
	sub scedilla by scommaaccent;
	sub Tcedilla by Tcommaaccent;
	sub tcedilla by tcommaaccent;
} locl_latn_0;
language MOL;
lookup locl_latn_0;

script latn;
language CAT;
lookup locl_latn_1 {
	sub  l' periodcentered' l by ldot;
	sub  L' periodcentered' L by Ldot;
} locl_latn_1;
";
tag = locl;
},
{
automatic = 1;
code = "sub [zero one two three four five six seven eight nine] [A a]' by ordfeminine;
sub [zero one two three four five six seven eight nine] [O o]' by ordmasculine;
";
tag = ordn;
}
);
fontMaster = (
{
customParameters = (
{
name = typoAscender;
value = 925;
},
{
name = typoDescender;
value = -275;
},
{
name = typoLineGap;
value = 0;
},
{
name = hheaAscender;
value = 925;
},
{
name = hheaDescender;
value = -275;
},
{
name = hheaLineGap;
value = 0;
},
{
name = winAscent;
value = 820;
},
{
name = winDescent;
value = 212;
},
{
name = underlineThickness;
value = 50;
},
{
name = underlinePosition;
value = -75;
},
{
name = strikeoutPosition;
value = 250;
},
{
name = strikeoutSize;
value = 50;
}
);
guides = (
{

glyphs = (
{
glyphname = A;
lastChange = "2024-07-25 12:26:47 +0000";
layers = (
{
anchors = (
{
name = bottom;
pos = (185,0);
},
{
name = ogonek;
pos = (333,10);
},
{
name = top;
pos = (185,650);
}
);
background = {
shapes = (
{
closed = 1;
nodes = (
(119,0,l),
(119,128,l),
(246,128,l),
(246,0,l),
(358,0,l),
(358,0,l),
(358,139,ls),
(358,318.379,o),
(344.387,485.75,o),
(218,649,c),
(146,649,l),
(21.543,484.822,o),
(8,323.648,o),
(8,139,cs),
(8,0,l)
);
},
{
closed = 1;
nodes = (
(123,326.333,o),
(142,420,o),
(182,504,c),
(220.288,421.954,o),
(239.364,325.989,o),
(245,233,c),
(119,233,l)
);
}
);
};
layerId = "27BA4E46-0A2B-46F0-A320-1D87D61B7B36";
shapes = (
{
closed = 1;
nodes = (
(119,0,l),
(119,128,l),
(246,128,l),
(246,0,l),
(358,0,l),
(358,139,ls),
(358,318,o),
(344,486,o),
(218,649,c),
(146,649,l),
(22,485,o),
(8,324,o),
(8,139,cs),
(8,0,l)
);
},
{
closed = 1;
nodes = (
(123,326,o),
(142,420,o),
(182,504,c),
(220,422,o),
(239,326,o),
(245,233,c),
(119,233,l)
);
}
);
width = 370;
}
);
unicode = 65;
},
{
glyphname = Aacute;
lastChange = "2024-07-25 12:15:26 +0000";
layers = (
{
background = {
shapes = (
{
closed = 1;
nodes = (
(119,0,l),
(119,128,l),
(246,128,l),
(246,0,l),
(358,0,l),
(358,0,l),
(358,139,ls),
(358,318.379,o),
(344.387,485.75,o),
(218,649,c),
(146,649,l),
(21.543,484.822,o),
(8,323.648,o),
(8,139,cs),
(8,0,l)
);
},
{
closed = 1;
nodes = (
(123,326.333,o),
(142,420,o),
(182,504,c),
(220.288,421.954,o),
(239.364,325.989,o),
(245,233,c),
(119,233,l)
);
},
{
closed = 1;
nodes = (
(162,681,l),
(162,681,o),
(162,681,o),
(162,681,c),
(162,681,o),
(162,681,o),
(162,681,c),
(168,681,l),
(168,681,o),
(168,681,o),
(168,681,c),
(168,681,o),
(168,681,o),
(168,681,c),
(168,681,o),
(168,681,o),
(168,681,c),
(173,681,l),
(173,681,o),
(173,681,o),
(173,681,c),
(173,681,o),
(173,681,o),
(173,681,c),
(173,681,o),
(173,681,o),
(173,681,c),
(174,681,l),
(174,681,o),
(174,681,o),
(174,681,c),
(174,681,o),
(174,681,o),
(174,681,c),
(174,681,o),
(174,681,o),
(174,681,c),
(175,681,l),
(175,681,o),
(175,681,o),
(175,681,c),
(175,681,o),
(175,681,o),
(175,681,c),
(175,681,o),
(175,681,o),
(175,681,c),
(175,681,o),
(175,681,o),
(175,681,c),
(175,681,o),
(175,681,o),
(175,681,c),
(175,681,o),
(175,681,o),
(175,681,c),
(177,681,l),
(177,681,o),
(177,681,o),
(177,681,c),
(177,681,o),
(177,681,o),
(177,681,c),
(177,681,o),
(177,681,o),
(177,681,c),
(178,681,l),
(178,681,o),
(178,681,o),
(178,681,c),
(178,681,o),
(178,681,o),
(178,681,c),
(192,681,o),
(208,681.333,o),
(226,682,c),
(280,764,l),
(183,764,l),
(157,724,ls),
(150.333,714,o),
(144.333,704.667,o),
(139,696,cs),
(133.667,687.333,o),
(131,682.667,o),
(131,682,cs),
(131,681.333,o),
(136,681,o),
(146,681,cs)
);
}
);
};
layerId = "27BA4E46-0A2B-46F0-A320-1D87D61B7B36";
shapes = (
{
closed = 1;
nodes = (
(119,0,l),
(119,128,l),
(246,128,l),
(246,0,l),
(358,0,l),
(358,139,ls),
(358,318,o),
(344,486,o),
(218,649,c),
(146,649,l),
(22,485,o),
(8,324,o),
(8,139,cs),
(8,0,l)
);
},
{
closed = 1;
nodes = (
(123,326,o),
(142,420,o),
(182,504,c),
(220,422,o),
(239,326,o),
(245,233,c),
(119,233,l)
);
},
{
closed = 1;
nodes = (
(178,681,l),
(226,682,l),
(280,764,l),
(183,764,l),
(157,724,l),
(139,696,l),
(131,682,l),
(131,681,o),
(136,681,o),
(146,681,cs)
);
}
);
width = 370;
}
);
unicode = 193;
},
{
glyphname = Abreve;
lastChange = "2024-07-25 10:00:52 +0000";
layers = (
{
background = {
shapes = (
{
closed = 1;
nodes = (
(119,0,l),
(119,128,l),
(246,128,l),
(246,0,l),
(358,0,l),
(358,0,l),
(358,139,ls),
(358,318.379,o),
(344.387,485.75,o),
(218,649,c),
(146,649,l),
(21.543,484.822,o),
(8,323.648,o),
(8,139,cs),
(8,0,l)
);
},
{
closed = 1;
nodes = (
(123,326.333,o),
(142,420,o),
(182,504,c),
(220.288,421.954,o),
(239.364,325.989,o),
(245,233,c),
(119,233,l)
);
},
{
closed = 1;
nodes = (
(269,676,l),
(327,770,l),
(327,770,l),
(223,770,l),
(184,710,l),
(142,766,l),
(38,766,l),
(98,674,l)
);
}
);
};
layerId = "27BA4E46-0A2B-46F0-A320-1D87D61B7B36";
shapes = (
{
closed = 1;
nodes = (
(119,0,l),
(119,128,l),
(246,128,l),
(246,0,l),
(358,0,l),
(358,139,ls),
(358,318,o),
(344,486,o),
(218,649,c),
(146,649,l),
(22,485,o),
(8,324,o),
(8,139,cs),
(8,0,l)
);
},
{
closed = 1;
nodes = (
(123,326,o),
(142,420,o),
(182,504,c),
(220,422,o),
(239,326,o),
(245,233,c),
(119,233,l)
);
},
{
closed = 1;
nodes = (
(269,676,l),
(327,770,l),
(223,770,l),
(184,710,l),
(142,766,l),
(38,766,l),
(98,674,l)
);
}
);
width = 370;
}
);
unicode = 258;
},
{
glyphname = Acircumflex;
lastChange = "2024-07-25 10:00:52 +0000";
layers = (
{
background = {
shapes = (
{
closed = 1;
nodes = (
(119,0,l),
(119,128,l),
(246,128,l),
(246,0,l),
(358,0,l),
(358,0,l),
(358,139,ls),
(358,318.379,o),
(344.387,485.75,o),
(218,649,c),
(146,649,l),
(21.543,484.822,o),
(8,323.648,o),
(8,139,cs),
(8,0,l)
);
},
{
closed = 1;
nodes = (
(123,326.333,o),
(142,420,o),
(182,504,c),
(220.288,421.954,o),
(239.364,325.989,o),
(245,233,c),
(119,233,l)
);
},
{
closed = 1;
nodes = (
(145,679,l),
(184,736,l),
(226,680,l),
(330,680,l),
(269,774,l),
(109,774,l),
(49,679,l),
(49,679,l)
);
}
);
};
layerId = "27BA4E46-0A2B-46F0-A320-1D87D61B7B36";
shapes = (
{
closed = 1;
nodes = (
(119,0,l),
(119,128,l),
(246,128,l),
(246,0,l),
(358,0,l),
(358,139,ls),
(358,318,o),
(344,486,o),
(218,649,c),
(146,649,l),
(22,485,o),
(8,324,o),
(8,139,cs),
(8,0,l)
);
},
{
closed = 1;
nodes = (
(123,326,o),
(142,420,o),
(182,504,c),
(220,422,o),
(239,326,o),
(245,233,c),
(119,233,l)
);
},
{
closed = 1;
nodes = (
(145,679,l),
(184,736,l),
(226,680,l),
(330,680,l),
(269,774,l),
(109,774,l),
(49,679,l)
);
}
);
width = 370;
}
);
unicode = 194;
},
{
glyphname = Adieresis;
lastChange = "2024-07-25 12:15:26 +0000";
layers = (
{
background = {
shapes = (
{
closed = 1;
nodes = (
(119,0,l),
(119,128,l),
(246,128,l),
(246,0,l),
(358,0,l),
(358,0,l),
(358,139,ls),
(358,318.379,o),
(344.387,485.75,o),
(218,649,c),
(146,649,l),
(21.543,484.822,o),
(8,323.648,o),
(8,139,cs),
(8,0,l)
);
},
{
closed = 1;
nodes = (
(123,326.333,o),
(142,420,o),
(182,504,c),
(220.288,421.954,o),
(239.364,325.989,o),
(245,233,c),
(119,233,l)
);
},
{
closed = 1;
nodes = (
(89,682,l),
(89,682,o),
(89,682,o),
(89,682,c),
(89,682,o),
(89,682,o),
(89,682,c),
(89,682,o),
(89,682,o),
(89,682,c),
(90,682,l),
(90,682,o),
(90,682,o),
(90,682,c),
(90,682,o),
(90,682,o),
(90,682,c),
(90,682,o),
(90,682,o),
(90,682,c),
(92,682,l),
(92,682,o),
(92,682,o),
(92,682,c),
(92,682,o),
(92,682,o),
(92,682,c),
(92,682,o),
(92,682,o),
(92,682,c),
(94,682,l),
(94,682,o),
(94,682,o),
(94,682,c),
(94,682,o),
(94,682,o),
(94,682,c),
(94,682,o),
(94,682,o),
(94,682,c),
(96,682,l),
(96,682,o),
(96,682,o),
(96,682,c),
(96,682,o),
(96,682,o),
(96,682,c),
(96,682,o),
(96,682,o),
(96,682,c),
(98,682,l),
(98,682,o),
(98,682,o),
(98,682,c),
(98,682,o),
(98,682,o),
(98,682,c),
(101,682,l),
(101,682,o),
(101,682,o),
(101,682,c),
(101,682,o),
(101,682,o),
(101,682,c),
(102,682,l),
(102,682,o),
(102,682,o),
(102,682,c),
(102,682,o),
(102,682,o),
(102,682,c),
(103,682,l),
(103,682,o),
(103,682,o),
(103,682,c),
(103,682,o),
(103,682,o),
(103,682,c),
(103,682,o),
(103,682,o),
(103,682,c),
(103,682,o),
(103,682,o),
(103,682,c),
(103,682,o),
(103,682,o),
(103,682,c),
(103,682,o),
(103,682,o),
(103,682,c),
(103,682,o),
(103,682,o),
(103,682,c),
(103,682,o),
(103,682,o),
(103,682,c),
(106,682,ls),
(120,682,o),
(136,682.333,o),
(154,683,c),
(153,765,l),
(59,764,l),
(59,683,ls),
(59,682.333,o),
(64,682,o),
(74,682,cs)
);
},
{
closed = 1;
nodes = (
(101,682,o),
(101,682,o),
(101,682,c),
(101,682,o),
(101,682,o),
(101,682,c)
);
},
{
closed = 1;
nodes = (
(230,684,l),
(230,684,o),
(230,684,o),
(230,684,c),
(230.667,684,o),
(231,684,o),
(231,684,c),
(231,684,o),
(231,684,o),
(231,684,c),
(231,684,o),
(231,684,o),
(231,684,c),
(231,684,o),
(231,684,o),
(231,684,c),
(231,684,o),
(231,684,o),
(231,684,c),
(231,684,o),
(231,684,o),
(231,684,c),
(231,684,o),
(231,684,o),
(231,684,c),
(243,684,l),
(243,684,o),
(243,684,o),
(243,684,c),
(243,684,o),
(243,684,o),
(243,684,c),
(243,684,o),
(243,684,o),
(243,684,c),
(243,684,o),
(243,684,o),
(243,684,c),
(243.667,684,o),
(244,684,o),
(244,684,c),
(244,684,o),
(244,684,o),
(244,684,c),
(244,684,o),
(244,684,o),
(244,684,c),
(244,684,o),
(244,684,o),
(244,684,c),
(244,684,o),
(244,684,o),
(244,684,c),
(244,684,o),
(244,684,o),
(244,684,c),
(244,684,o),
(244,684,o),
(244,684,c),
(244,684,o),
(244,684,o),
(244,684,c),
(247,684,l),
(247,684,o),
(247,684,o),
(247,684,c),
(247,684,o),
(247,684,o),
(247,684,c),
(247.667,684,o),
(248,684,o),
(248,684,c),
(248,684,o),
(248,684,o),
(248,684,c),
(248,684,o),
(248,684,o),
(248,684,c),
(248,684,o),
(248,684,o),
(248,684,c),
(248,684,o),
(248,684,o),
(248,684,c),
(248,684,o),
(248,684,o),
(248,684,c),
(249,684,l),
(249,684,o),
(249,684,o),
(249,684,c),
(249,684,o),
(249,684,o),
(249,684,c),
(249,684,o),
(249,684,o),
(249,684,c),
(249,684,o),
(249,684,o),
(249,684,c),
(249.667,684,o),
(250,684,o),
(250,684,c),
(250,684,o),
(250,684,o),
(250,684,c),
(250,684,o),
(250,684,o),
(250,684,c),
(250,684,o),
(250,684,o),
(250,684,c),
(250,684,o),
(250,684,o),
(250,684,c),
(250,684,o),
(250,684,o),
(250,684,c),
(250,684,o),
(250,684,o),
(250,684,c),
(250,684,o),
(250,684,o),
(250,684,c),
(251,684,l),
(251,684,o),
(251,684,o),
(251,684,c),
(251,684,o),
(251,684,o),
(251,684,c),
(251,684,o),
(251,684,o),
(251,684,c),
(251,684,o),
(251,684,o),
(251,684,c),
(251.667,684,o),
(252,684,o),
(252,684,c),
(252,684,o),
(252,684,o),
(252,684,c),
(252,684,o),
(252,684,o),
(252,684,c),
(252,684,o),
(252,684,o),
(252,684,c),
(252,684,o),
(252,684,o),
(252,684,c),
(252,684,o),
(252,684,o),
(252,684,c),
(252,684,o),
(252,684,o),
(252,684,c),
(252,684,o),
(252,684,o),
(252,684,c),
(253,684,l),
(253,684,o),
(253,684,o),
(253,684,c),
(253,684,o),
(253,684,o),
(253,684,c),
(253,684,o),
(253,684,o),
(253,684,c),
(253.667,684,o),
(254,684,o),
(254,684,c),
(254,684,o),
(254,684,o),
(254,684,c),
(254,684,o),
(254,684,o),
(254,684,c),
(254,684,o),
(254,684,o),
(254,684,c),
(254,684,o),
(254,684,o),
(254,684,c),
(254,684,o),
(254,684,o),
(254,684,c),
(254,684,o),
(254,684,o),
(254,684,c),
(255,684,l),
(255,684,o),
(255,684,o),
(255,684,c),
(255.667,684,o),
(256,684,o),
(256,684,c),
(256,684,o),
(256,684,o),
(256,684,c),
(256,684,o),
(256,684,o),
(256,684,c),
(256,684,o),
(256,684,o),
(256,684,c),
(256,684,o),
(256,684,o),
(256,684,c),
(256,684,o),
(256,684,o),
(256,684,c),
(256.667,684,o),
(257,684,o),
(257,684,c),
(257,684,o),
(257,684,o),
(257,684,c),
(257,684,o),
(257,684,o),
(257,684,c),
(257,684,o),
(257,684,o),
(257,684,c),
(257,684,o),
(257,684,o),
(257,684,c),
(257,684,o),
(257,684,o),
(257,684,c),
(257,684,o),
(257,684,o),
(257,684,c),
(260,684,ls),
(274,684,o),
(290,684.333,o),
(308,685,c),
(308,766,l),
(212,766,l),
(212,685,ls),
(212,684.333,o),
(217,684,o),
(227,684,cs)
);
}
);
};
layerId = "27BA4E46-0A2B-46F0-A320-1D87D61B7B36";
shapes = (
{
closed = 1;
nodes = (
(119,0,l),
(119,128,l),
(246,128,l),
(246,0,l),
(358,0,l),
(358,139,ls),
(358,318,o),
(344,486,o),
(218,649,c),
(146,649,l),
(22,485,o),
(8,324,o),
(8,139,cs),
(8,0,l)
);
},
{
closed = 1;
nodes = (
(123,326,o),
(142,420,o),
(182,504,c),
(220,422,o),
(239,326,o),
(245,233,c),
(119,233,l)
);
},
{
closed = 1;
nodes = (
(106,682,l),
(154,683,l),
(153,765,l),
(59,764,l),
(59,683,ls),
(59,682,o),
(64,682,o),
(74,682,cs)
);
},
{
closed = 1;
nodes = (
(260,684,l),
(308,685,l),
(308,766,l),
(212,766,l),
(212,685,ls),
(212,684,o),
(217,684,o),
(227,684,cs)
);
}
);
width = 370;
}
);
unicode = 196;
},
{
glyphname = Agrave;
lastChange = "2024-07-25 10:00:52 +0000";
layers = (
{
background = {
shapes = (
{
closed = 1;
nodes = (
(119,0,l),
(119,128,l),
(246,128,l),
(246,0,l),
(358,0,l),
(358,0,l),
(358,139,ls),
(358,318.379,o),
(344.387,485.75,o),
(218,649,c),
(146,649,l),
(21.543,484.822,o),
(8,323.648,o),
(8,139,cs),
(8,0,l)
);
},
{
closed = 1;
nodes = (
(123,326.333,o),
(142,420,o),
(182,504,c),
(220.288,421.954,o),
(239.364,325.989,o),
(245,233,c),
(119,233,l)
);
},
{
closed = 1;
nodes = (
(173.167,681,o),
(184,681.333,o),
(196,682,cs),
(210,682,o),
(226,682.333,o),
(244,683,c),
(184,764,l),
(87,764,l),
(98.333,749.333,o),
(108.667,736,o),
(118,724,cs),
(125.333,714,o),
(132.333,704.667,o),
(139,696,cs),
(145.667,687.333,o),
(149,682.667,o),
(149,682,cs),
(149,681.333,o),
(153.833,681,o),
(163.5,681,cs)
);
}
);
};
layerId = "27BA4E46-0A2B-46F0-A320-1D87D61B7B36";
shapes = (
{
closed = 1;
nodes = (
(119,0,l),
(119,128,l),
(246,128,l),
(246,0,l),
(358,0,l),
(358,139,ls),
(358,318,o),
(344,486,o),
(218,649,c),
(146,649,l),
(22,485,o),
(8,324,o),
(8,139,cs),
(8,0,l)
);
},
{
closed = 1;
nodes = (
(123,326,o),
(142,420,o),
(182,504,c),
(220,422,o),
(239,326,o),
(245,233,c),
(119,233,l)
);
},
{
closed = 1;
nodes = (
(196,682,l),
(244,683,l),
(184,764,l),
(87,764,l),
(118,724,l),
(139,696,l),
(149,682,l),
(149,681,o),
(154,681,o),
(164,681,cs)
);
}
);
width = 370;
}
);
unicode = 192;
},
{
glyphname = Amacron;
lastChange = "2024-07-25 12:15:26 +0000";
layers = (
{
background = {
shapes = (
{
closed = 1;
nodes = (
(119,0,l),
(119,128,l),
(246,128,l),
(246,0,l),
(358,0,l),
(358,0,l),
(358,139,ls),
(358,318.379,o),
(344.387,485.75,o),
(218,649,c),
(146,649,l),
(21.543,484.822,o),
(8,323.648,o),
(8,139,cs),
(8,0,l)
);
},
{
closed = 1;
nodes = (
(123,326.333,o),
(142,420,o),
(182,504,c),
(220.288,421.954,o),
(239.364,325.989,o),
(245,233,c),
(119,233,l)
);
},
{
closed = 1;
nodes = (
(117,684,l),
(117,684,o),
(117,684,o),
(117,684,c),
(117,684,o),
(117,684,o),
(117,684,c),
(117,684,o),
(117,684,o),
(117,684,c),
(117.667,684,o),
(118,684,o),
(118,684,c),
(118,684,o),
(118,684,o),
(118,684,c),
(118,684,o),
(118,684,o),
(118,684,c),
(118,684,o),
(118,684,o),
(118,684,c),
(118,684,o),
(118,684,o),
(118,684,c),
(118,684,o),
(118,684,o),
(118,684,c),
(129,684,l),
(129,684,o),
(129,684,o),
(129,684,c),
(129.667,684,o),
(130,684,o),
(130,684,c),
(130,684,o),
(130,684,o),
(130,684,c),
(130,684,o),
(130,684,o),
(130,684,c),
(130,684,o),
(130,684,o),
(130,684,c),
(130,684,o),
(130,684,o),
(130,684,c),
(133,684,l),
(133,684,o),
(133,684,o),
(133,684,c),
(133,684,o),
(133,684,o),
(133,684,c),
(133,684,o),
(133,684,o),
(133,684,c),
(133.667,684,o),
(134,684,o),
(134,684,c),
(134,684,o),
(134,684,o),
(134,684,c),
(134,684,o),
(134,684,o),
(134,684,c),
(134,684,o),
(134,684,o),
(134,684,c),
(134,684,o),
(134,684,o),
(134,684,c),
(134,684,o),
(134,684,o),
(134,684,c),
(134,684,o),
(134,684,o),
(134,684,c),
(134,684,o),
(134,684,o),
(134,684,c),
(136,684,l),
(136,684,o),
(136,684,o),
(136,684,c),
(136,684,o),
(136,684,o),
(136,684,c),
(136,684,o),
(136,684,o),
(136,684,c),
(136.667,684,o),
(137,684,o),
(137,684,c),
(137,684,o),
(137,684,o),
(137,684,c),
(137,684,o),
(137,684,o),
(137,684,c),
(137,684,o),
(137,684,o),
(137,684,c),
(137,684,o),
(137,684,o),
(137,684,c),
(137,684,o),
(137,684,o),
(137,684,c),
(137,684,o),
(137,684,o),
(137,684,c),
(137,684,o),
(137,684,o),
(137,684,c),
(138,684,l),
(138,684,o),
(138,684,o),
(138,684,c),
(138,684,o),
(138,684,o),
(138,684,c),
(138,684,o),
(138,684,o),
(138,684,c),
(138.667,684,o),
(139,684,o),
(139,684,c),
(139,684,o),
(139,684,o),
(139,684,c),
(139,684,o),
(139,684,o),
(139,684,c),
(139,684,o),
(139,684,o),
(139,684,c),
(139,684,o),
(139,684,o),
(139,684,c),
(139,684,o),
(139,684,o),
(139,684,c),
(139,684,o),
(139,684,o),
(139,684,c),
(139,684,o),
(139,684,o),
(139,684,c),
(140,684,l),
(140,684,o),
(140,684,o),
(140,684,c),
(140,684,o),
(140,684,o),
(140,684,c),
(140,684,o),
(140,684,o),
(140,684,c),
(141,684,l),
(141,684,o),
(141,684,o),
(141,684,c),
(141.667,684,o),
(142,684,o),
(142,684,c),
(142,684,o),
(142,684,o),
(142,684,c),
(142,684,o),
(142,684,o),
(142,684,c),
(142,684,o),
(142,684,o),
(142,684,c),
(142,684,o),
(142,684,o),
(142,684,c),
(142,684,o),
(142,684,o),
(142,684,c),
(142,684,o),
(142,684,o),
(142,684,c),
(142,684,o),
(142,684,o),
(142,684,c),
(142,684,o),
(142,684,o),
(142,684,c),
(142.667,684,o),
(143,684,o),
(143,684,c),
(143,684,o),
(143,684,o),
(143,684,c),
(143,684,o),
(143,684,o),
(143,684,c),
(143,684,o),
(143,684,o),
(143,684,c),
(143,684,o),
(143,684,o),
(143,684,c),
(143,684,o),
(143,684,o),
(143,684,c),
(143,684,o),
(143,684,o),
(143,684,c),
(143,684,o),
(143,684,o),
(143,684,c),
(149,684,l),
(149,684,o),
(149,684,o),
(149,684,c),
(149,684,o),
(149,684,o),
(149,684,c),
(149,684,o),
(149,684,o),
(149,684,c),
(150,684,l),
(150,684,o),
(150,684,o),
(150,684,c),
(150,684,o),
(150,684,o),
(150,684,c),
(150,684,o),
(150,684,o),
(150,684,c),
(150,684,o),
(150,684,o),
(150,684,c),
(150.667,684,o),
(151,684,o),
(151,684,c),
(151,684,o),
(151,684,o),
(151,684,c),
(151,684,o),
(151,684,o),
(151,684,c),
(151,684,o),
(151,684,o),
(151,684,c),
(151,684,o),
(151,684,o),
(151,684,c),
(151,684,o),
(151,684,o),
(151,684,c),
(151,684,o),
(151,684,o),
(151,684,c),
(151,684,o),
(151,684,o),
(151,684,c),
(151.667,684,o),
(152,684,o),
(152,684,c),
(152,684,o),
(152,684,o),
(152,684,c),
(152,684,o),
(152,684,o),
(152,684,c),
(152,684,o),
(152,684,o),
(152,684,c),
(152,684,o),
(152,684,o),
(152,684,c),
(165,684,l),
(165,684,o),
(165,684,o),
(165,684,c),
(165,684,o),
(165,684,o),
(165,684,c),
(165,684,o),
(165,684,o),
(165,684,c),
(166,684,l),
(166,684,o),
(166,684,o),
(166,684,c),
(166,684,o),
(166,684,o),
(166,684,c),
(166,684,o),
(166,684,o),
(166,684,c),
(166,684,o),
(166,684,o),
(166,684,c),
(166.667,684,o),
(167,684,o),
(167,684,c),
(167,684,o),
(167,684,o),
(167,684,c),
(167,684,o),
(167,684,o),
(167,684,c),
(167,684,o),
(167,684,o),
(167,684,c),
(167,684,o),
(167,684,o),
(167,684,c),
(167,684,o),
(167,684,o),
(167,684,c),
(167,684,o),
(167,684,o),
(167,684,c),
(170,684,l),
(170,684,o),
(170,684,o),
(170,684,c),
(170,684,o),
(170,684,o),
(170,684,c),
(170,684,o),
(170,684,o),
(170,684,c),
(170.667,684,o),
(171,684,o),
(171,684,c),
(171,684,o),
(171,684,o),
(171,684,c),
(171,684,o),
(171,684,o),
(171,684,c),
(171,684,o),
(171,684,o),
(171,684,c),
(171,684,o),
(171,684,o),
(171,684,c),
(172,684,l),
(172,684,o),
(172,684,o),
(172,684,c),
(172,684,o),
(172,684,o),
(172,684,c),
(173,684,l),
(173,684,o),
(173,684,o),
(173,684,c),
(173.667,684,o),
(174,684,o),
(174,684,c),
(174,684,o),
(174,684,o),
(174,684,c),
(174,684,o),
(174,684,o),
(174,684,c),
(174,684,o),
(174,684,o),
(174,684,c),
(174,684,o),
(174,684,o),
(174,684,c),
(174,684,o),
(174,684,o),
(174,684,c),
(175,684,l),
(175,684,o),
(175,684,o),
(175,684,c),
(175,684,o),
(175,684,o),
(175,684,c),
(175,684,o),
(175,684,o),
(175,684,c),
(175.667,684,o),
(176,684,o),
(176,684,c),
(176,684,o),
(176,684,o),
(176,684,c),
(176,684,o),
(176,684,o),
(176,684,c),
(176,684,o),
(176,684,o),
(176,684,c),
(176,684,o),
(176,684,o),
(176,684,c),
(176,684,o),
(176,684,o),
(176,684,c),
(176,684,o),
(176,684,o),
(176,684,c),
(176,684,o),
(176,684,o),
(176,684,c),
(177,684,l),
(177,684,o),
(177,684,o),
(177,684,c),
(177,684,o),
(177,684,o),
(177,684,c),
(177,684,o),
(177,684,o),
(177,684,c),
(177,684,o),
(177,684,o),
(177,684,c),
(177.667,684,o),
(178,684,o),
(178,684,c),
(178,684,o),
(178,684,o),
(178,684,c),
(178,684,o),
(178,684,o),
(178,684,c),
(178,684,o),
(178,684,o),
(178,684,c),
(178,684,o),
(178,684,o),
(178,684,c),
(178,684,o),
(178,684,o),
(178,684,c),
(178,684,o),
(178,684,o),
(178,684,c),
(178,684,o),
(178,684,o),
(178,684,c),
(179,684,l),
(179,684,o),
(179,684,o),
(179,684,c),
(179,684,o),
(179,684,o),
(179,684,c),
(179,684,o),
(179,684,o),
(179,684,c),
(179,684,o),
(179,684,o),
(179,684,c),
(179.667,684,o),
(180,684,o),
(180,684,c),
(180,684,o),
(180,684,o),
(180,684,c),
(180,684,o),
(180,684,o),
(180,684,c),
(180,684,o),
(180,684,o),
(180,684,c),
(180,684,o),
(180,684,o),
(180,684,c),
(180,684,o),
(180,684,o),
(180,684,c),
(180,684,o),
(180,684,o),
(180,684,c),
(180,684,o),
(180,684,o),
(180,684,c),
(184,684,ls),
(214,684,o),
(248,684.333,o),
(286,685,c),
(287,766,l),
(82,766,l),
(82,685,l),
(82,685,o),
(85,684.833,o),
(91,684.5,cs),
(97,684.167,o),
(104.667,684,o),
(114,684,cs)
);
}
);
};
layerId = "27BA4E46-0A2B-46F0-A320-1D87D61B7B36";
shapes = (
{
closed = 1;
nodes = (
(119,0,l),
(119,128,l),
(246,128,l),
(246,0,l),
(358,0,l),
(358,139,ls),
(358,318,o),
(344,486,o),
(218,649,c),
(146,649,l),
(22,485,o),
(8,324,o),
(8,139,cs),
(8,0,l)
);
},
{
closed = 1;
nodes = (
(123,326,o),
(142,420,o),
(182,504,c),
(220,422,o),
(239,326,o),
(245,233,c),
(119,233,l)
);
},
{
closed = 1;
nodes = (
(286,685,l),
(287,766,l),
(82,766,l),
(82,685,l),
(91,685,l),
(114,684,l)
);
}
);
width = 370;
}
);
unicode = 256;
},
{
glyphname = Aogonek;
lastChange = "2024-07-25 10:00:52 +0000";
layers = (
{
background = {
shapes = (
{
closed = 1;
nodes = (
(339.333,-135,o),
(352,-134.333,o),
(366,-133,c),
(372,-109,l),
(365.333,-110.333,o),
(360.333,-111,o),
(355,-111,cs),
(343,-111,o),
(332.333,-106.333,o),
(323,-97,cs),
(314.333,-88.333,o),
(310,-78.333,o),
(310,-67,cs),
(310,-59.667,o),
(312.667,-52.667,o),
(318,-46,cs),
(324,-40,o),
(331.333,-37,o),
(340,-37,cs),
(341.333,-37,o),
(342.667,-37.167,o),
(344,-37.5,cs),
(345.333,-37.833,o),
(347,-38,o),
(349,-38,c),
(327,0,l),
(359,0,l),
(359,139,ls),
(359,318.379,o),
(345.387,485.75,o),
(219,649,c),
(147,649,l),
(22.515,484.786,o),
(9,321.964,o),
(9,139,cs),
(9,0,l),
(120,0,l),
(120,128,l),
(247,128,l),
(247,0,l),
(286,0,l),
(273.333,-4,o),
(263.333,-10.667,o),
(256,-20,cs),
(248,-30,o),
(244,-42.333,o),
(244,-57,cs),
(244,-75.667,o),
(251.333,-98.333,o),
(266,-113,cs),
(292.667,-139.667,o),
(316,-135,o),
(328,-135,cs)
);
},
{
closed = 1;
nodes = (
(124,326.333,o),
(143,420,o),
(183,504,c),
(220.333,424,o),
(240.667,322.333,o),
(246,233,c),
(120,233,l)
);
}
);
};
layerId = "27BA4E46-0A2B-46F0-A320-1D87D61B7B36";
shapes = (
{
closed = 1;
nodes = (
(366,-133,l),
(372,-109,l),
(365,-110,o),
(360,-111,o),
(355,-111,cs),
(343,-111,o),
(332,-106,o),
(323,-97,cs),
(314,-88,o),
(310,-78,o),
(310,-67,cs),
(310,-60,o),
(313,-53,o),
(318,-46,cs),
(324,-40,o),
(331,-37,o),
(340,-37,cs),
(344,-37,l),
(349,-38,l),
(327,0,l),
(359,0,l),
(359,139,ls),
(359,318,o),
(345,486,o),
(219,649,c),
(147,649,l),
(23,485,o),
(9,322,o),
(9,139,cs),
(9,0,l),
(120,0,l),
(120,128,l),
(247,128,l),
(247,0,l),
(286,0,l),
(273,-4,o),
(263,-11,o),
(256,-20,cs),
(248,-30,o),
(244,-42,o),
(244,-57,cs),
(244,-76,o),
(251,-98,o),
(266,-113,cs),
(293,-140,o),
(316,-135,o),
(328,-135,cs)
);
},
{
closed = 1;
nodes = (
(124,326,o),
(143,420,o),
(183,504,c),
(220,424,o),
(241,322,o),
(246,233,c),
(120,233,l)
);
}
);
width = 370;
}
);
unicode = 260;
},
{
glyphname = Aring;
lastChange = "2024-07-25 10:00:52 +0000";
layers = (
{
background = {
shapes = (
{
closed = 1;
nodes = (
(119,0,l),
(119,128,l),
(246,128,l),
(246,0,l),
(358,0,l),
(358,0,l),
(358,139,ls),
(358,318.379,o),
(344.387,485.75,o),
(218,649,c),
(146,649,l),
(21.543,484.822,o),
(8,323.648,o),
(8,139,cs),
(8,0,l)
);
},
{
closed = 1;
nodes = (
(123,326.333,o),
(142,420,o),
(182,504,c),
(220.288,421.954,o),
(239.364,325.989,o),
(245,233,c),
(119,233,l)
);
},
{
closed = 1;
nodes = (
(223.667,671,o),
(255,705.333,o),
(255,744,cs),
(255,786.667,o),
(223.667,820,o),
(181,820,cs),
(138.333,820,o),
(106,786.667,o),
(106,744,cs),
(106,705.333,o),
(138.333,671,o),
(181,671,cs)
);
},
{
closed = 1;
nodes = (
(166.333,722,o),
(157,731,o),
(157,743,cs),
(157,755,o),
(166.333,765,o),
(181,765,cs),
(191.667,765,o),
(204,755,o),
(204,743,cs),
(204,731,o),
(191.667,722,o),
(181,722,cs)
);
}
);
};
layerId = "27BA4E46-0A2B-46F0-A320-1D87D61B7B36";
shapes = (
{
closed = 1;
nodes = (
(119,0,l),
(119,128,l),
(246,128,l),
(246,0,l),
(358,0,l),
(358,139,ls),
(358,318,o),
(344,486,o),
(218,649,c),
(146,649,l),
(22,485,o),
(8,324,o),
(8,139,cs),
(8,0,l)
);
},
{
closed = 1;
nodes = (
(123,326,o),
(142,420,o),
(182,504,c),
(220,422,o),
(239,326,o),
(245,233,c),
(119,233,l)
);
},
{
closed = 1;
nodes = (
(224,671,o),
(255,705,o),
(255,744,cs),
(255,787,o),
(224,820,o),
(181,820,cs),
(138,820,o),
(106,787,o),
(106,744,cs),
(106,705,o),
(138,671,o),
(181,671,cs)
);
},
{
closed = 1;
nodes = (
(166,722,o),
(157,731,o),
(157,743,cs),
(157,755,o),
(166,765,o),
(181,765,cs),
(192,765,o),
(204,755,o),
(204,743,cs),
(204,731,o),
(192,722,o),
(181,722,cs)
);
}
);
width = 371;
}
);
unicode = 197;
},
{
glyphname = Atilde;
lastChange = "2024-07-25 12:15:26 +0000";
layers = (
{
background = {
shapes = (
{
closed = 1;
nodes = (
(119,0,l),
(119,128,l),
(246,128,l),
(246,0,l),
(358,0,l),
(358,0,l),
(358,139,ls),
(358,318.379,o),
(344.387,485.75,o),
(218,649,c),
(146,649,l),
(21.543,484.822,o),
(8,323.648,o),
(8,139,cs),
(8,0,l)
);
},
{
closed = 1;
nodes = (
(123,326.333,o),
(142,420,o),
(182,504,c),
(220.288,421.954,o),
(239.364,325.989,o),
(245,233,c),
(119,233,l)
);
},
{
closed = 1;
nodes = (
(107,691,ls),
(109.667,693.667,o),
(113.333,696.667,o),
(118,700,cs),
(126,704,o),
(135.333,708,o),
(146,708,cs),
(154,708,o),
(161,704,o),
(169,700,c),
(197.667,680.667,o),
(224.333,671,o),
(249,671,cs),
(256,671,l),
(256,671,o),
(256,671,o),
(256,671,c),
(256,671,o),
(256,671,o),
(256,671,c),
(257,671,l),
(257,671,o),
(257,671,o),
(257,671,c),
(257,671,o),
(257,671,o),
(257,671,c),
(257,671,o),
(257,671,o),
(257,671,c),
(258,671,l),
(258,671,o),
(258,671,o),
(258,671,c),
(258,671,o),
(258,671,o),
(258,671,c),
(258,671,o),
(258,671,o),
(258,671,c),
(261.333,671,o),
(264.667,671.333,o),
(268,672,cs),
(292,678,o),
(314.333,693.333,o),
(335,718,cs),
(339,723,l),
(293,767,l),
(293,767,l),
(290,762,ls),
(280,748.667,o),
(269,740.333,o),
(257,737,cs),
(254.333,736.333,o),
(251.667,736,o),
(249,736,cs),
(235.667,736,o),
(219.667,742.333,o),
(201,755,cs),
(183,767,o),
(164.667,773,o),
(146,773,cs),
(126,773,o),
(107,767,o),
(89,755,cs),
(75.667,747.667,o),
(65.167,739.5,o),
(57.5,730.5,cs),
(49.833,721.5,o),
(45.333,716.333,o),
(44,715,c),
(41,709,l),
(86,669,l)
);
}
);
};
layerId = "27BA4E46-0A2B-46F0-A320-1D87D61B7B36";
shapes = (
{
closed = 1;
nodes = (
(119,0,l),
(119,128,l),
(246,128,l),
(246,0,l),
(358,0,l),
(358,139,ls),
(358,318,o),
(344,486,o),
(218,649,c),
(146,649,l),
(22,485,o),
(8,324,o),
(8,139,cs),
(8,0,l)
);
},
{
closed = 1;
nodes = (
(123,326,o),
(142,420,o),
(182,504,c),
(220,422,o),
(239,326,o),
(245,233,c),
(119,233,l)
);
},
{
closed = 1;
nodes = (
(107,691,l),
(118,700,l),
(126,704,o),
(135,708,o),
(146,708,cs),
(154,708,o),
(161,704,o),
(169,700,c),
(198,681,o),
(224,671,o),
(249,671,cs),
(258,671,ls),
(261,671,o),
(265,671,o),
(268,672,cs),
(292,678,o),
(314,693,o),
(335,718,cs),
(339,723,l),
(293,767,l),
(290,762,ls),
(280,749,o),
(269,740,o),
(257,737,cs),
(254,736,o),
(252,736,o),
(249,736,cs),
(236,736,o),
(220,742,o),
(201,755,cs),
(183,767,o),
(165,773,o),
(146,773,cs),
(126,773,o),
(107,767,o),
(89,755,cs),
(76,748,o),
(65,740,o),
(58,731,cs),
(44,715,l),
(41,709,l),
(86,669,l)
);
}
);
width = 370;
}
);
unicode = 195;
},
{
glyphname = AE;
lastChange = "2024-07-25 10:00:52 +0000";
layers = (
{
background = {
shapes = (
{
closed = 1;
nodes = (
(137,0,l),
(137,128,l),
(257,128,l),
(257,0,l),
(573,0,l),
(573,106,l),
(369,106,l),
(369,287,l),
(513,287,l),
(513,393,l),
(369,393,l),
(369,544,l),
(573,544,l),
(573,544,l),
(573,649,l),
(187,649,l),
(59.757,492.597,o),
(26,323.883,o),
(26,139,cs),
(26,0,l)
);
},
{
closed = 1;
nodes = (
(139.667,327.667,o),
(156.333,390,o),
(179,438,cs),
(202.483,487.729,o),
(228.107,516.549,o),
(257,557,c),
(257,233,l),
(137,233,l)
);
}
);
};
layerId = "27BA4E46-0A2B-46F0-A320-1D87D61B7B36";
shapes = (
{
closed = 1;
nodes = (
(137,0,l),
(137,128,l),
(257,128,l),
(257,0,l),
(573,0,l),
(573,106,l),
(369,106,l),
(369,287,l),
(513,287,l),
(513,393,l),
(369,393,l),
(369,544,l),
(573,544,l),
(573,649,l),
(187,649,l),
(60,493,o),
(26,324,o),
(26,139,cs),
(26,0,l)
);
},
{
closed = 1;
nodes = (
(140,328,o),
(156,390,o),
(179,438,cs),
(202,488,o),
(228,517,o),
(257,557,c),
(257,233,l),
(137,233,l)
);
}
);
width = 597;
}
);
unicode = 198;
},
{
glyphname = AEacute;
lastChange = "2024-07-25 12:15:26 +0000";
layers = (
{
background = {
shapes = (
{
closed = 1;
nodes = (
(137,0,l),
(137,128,l),
(257,128,l),
(257,0,l),
(573,0,l),
(573,106,l),
(369,106,l),
(369,287,l),
(513,287,l),
(513,393,l),
(369,393,l),
(369,544,l),
(573,544,l),
(573,544,l),
(573,649,l),
(187,649,l),
(59.757,492.597,o),
(26,323.883,o),
(26,139,cs),
(26,0,l)
);
},
{
closed = 1;
nodes = (
(139.667,327.667,o),
(156.333,390,o),
(179,438,cs),
(202.483,487.729,o),
(228.107,516.549,o),
(257,557,c),
(257,233,l),
(137,233,l)
);
},
{
closed = 1;
nodes = (
(238,681,l),
(238,681,o),
(238,681,o),
(238,681,c),
(238,681,o),
(238,681,o),
(238,681,c),
(244,681,l),
(244,681,o),
(244,681,o),
(244,681,c),
(244,681,o),
(244,681,o),
(244,681,c),
(244,681,o),
(244,681,o),
(244,681,c),
(249,681,l),
(249,681,o),
(249,681,o),
(249,681,c),
(250,681,l),
(250,681,o),
(250,681,o),
(250,681,c),
(250,681,o),
(250,681,o),
(250,681,c),
(251,681,l),
(251,681,o),
(251,681,o),
(251,681,c),
(251,681,o),
(251,681,o),
(251,681,c),
(251,681,o),
(251,681,o),
(251,681,c),
(251,681,o),
(251,681,o),
(251,681,c),
(251,681,o),
(251,681,o),
(251,681,c),
(251,681,o),
(251,681,o),
(251,681,c),
(251,681,o),
(251,681,o),
(251,681,c),
(253,681,l),
(253,681,o),
(253,681,o),
(253,681,c),
(253,681,o),
(253,681,o),
(253,681,c),
(253,681,o),
(253,681,o),
(253,681,c),
(254,681,l),
(254,681,o),
(254,681,o),
(254,681,c),
(254,681,o),
(254,681,o),
(254,681,c),
(268,681,o),
(284,681.333,o),
(302,682,c),
(356,764,l),
(259,764,l),
(233,724,ls),
(226.333,714,o),
(220.333,704.667,o),
(215,696,cs),
(209.667,687.333,o),
(207,682.667,o),
(207,682,cs),
(207,681.333,o),
(212,681,o),
(222,681,cs)
);
}
);
};
layerId = "27BA4E46-0A2B-46F0-A320-1D87D61B7B36";
shapes = (
{
closed = 1;
nodes = (
(137,0,l),
(137,128,l),
(257,128,l),
(257,0,l),
(573,0,l),
(573,106,l),
(369,106,l),
(369,287,l),
(513,287,l),
(513,393,l),
(369,393,l),
(369,544,l),
(573,544,l),
(573,649,l),
(187,649,l),
(60,493,o),
(26,324,o),
(26,139,cs),
(26,0,l)
);
},
{
closed = 1;
nodes = (
(140,328,o),
(156,390,o),
(179,438,cs),
(202,488,o),
(228,517,o),
(257,557,c),
(257,233,l),
(137,233,l)
);
},
{
closed = 1;
nodes = (
(254,681,l),
(302,682,l),
(356,764,l),
(259,764,l),
(233,724,l),
(215,696,l),
(207,682,l),
(207,681,o),
(212,681,o),
(222,681,cs)
);
}
);
width = 597;
}
);
unicode = 508;
},
{
glyphname = B;
lastChange = "2024-07-25 12:26:47 +0000";
layers = (
{
anchors = (
{
name = bottom;
pos = (205,0);
},
{
name = center;
pos = (102,162);
},
{
name = top;
pos = (205,650);
}
);
background = {
shapes = (
{
closed = 1;
nodes = (
(150,-1,ls),
(305.09,-1,o),
(379,17.056,o),
(379,197,cs),
(379,244.828,o),
(377.435,302.155,o),
(336,341,c),
(372.423,377.423,o),
(378,440.93,o),
(378,484,c),
(367.121,622.705,o),
(257.199,650,o),
(135,650,cs),
(87,650,ls),
(78.333,650,o),
(68.667,649.833,o),
(58,649.5,cs),
(47.333,649.167,o),
(37.333,649,o),
(28,649,c),
(28,0,l),
(40,0,o),
(52.333,-0.167,o),
(65,-0.5,cs),
(77.667,-0.833,o),
(89.667,-1,o),
(101,-1,cs)
);
},
{
closed = 1;
nodes = (
(160.667,105,o),
(156,105.167,o),
(152,105.5,cs),
(148,105.833,o),
(144.667,106,o),
(142,106,c),
(140,287,l),
(140,287,l),
(152,287,ls),
(156.667,287,o),
(161.333,287.167,o),
(166,287.5,cs),
(170.667,287.833,o),
(175.667,288,o),
(181,288,cs),
(215.769,288,o),
(258.424,284.186,o),
(261,261,cs),
(263.667,242.333,o),
(266,220.333,o),
(266,199,cs),
(266,168.333,o),
(262.333,139.667,o),
(249,125,cs),
(232.785,108.785,o),
(199.57,105,o),
(166,105,cs)
);
},
{
closed = 1;
nodes = (
(157.667,392,o),
(154.333,392.167,o),
(151,392.5,cs),
(147.667,392.833,o),
(144,393,o),
(140,393,c),
(140,543,l),
(149,543,ls),
(181,543,o),
(223.667,544.667,o),
(245,530,cs),
(246,529,l),
(260.667,523.667,o),
(269,498,o),
(269,470,cs),
(269,438,o),
(258.333,405.667,o),
(233,399,cs),
(206.333,391,o),
(190,392,o),
(178,392,cs),
(161,392,ls)
);
}
);
};
layerId = "27BA4E46-0A2B-46F0-A320-1D87D61B7B36";
shapes = (
{
closed = 1;
nodes = (
(150,-1,ls),
(305,-1,o),
(379,17,o),
(379,197,cs),
(379,245,o),
(377,302,o),
(336,341,c),
(372,377,o),
(378,441,o),
(378,484,c),
(367,623,o),
(257,650,o),
(135,650,cs),
(58,650,l),
(28,649,l),
(28,0,l),
(65,0,l),
(101,-1,l)
);
},
{
closed = 1;
nodes = (
(152,106,l),
(142,106,l),
(140,287,l),
(152,287,l),
(166,288,l),
(181,288,ls),
(216,288,o),
(258,284,o),
(261,261,cs),
(264,242,o),
(266,220,o),
(266,199,cs),
(266,168,o),
(262,140,o),
(249,125,cs),
(233,109,o),
(200,105,o),
(166,105,cs)
);
},
{
closed = 1;
nodes = (
(151,393,l),
(140,393,l),
(140,543,l),
(149,543,ls),
(181,543,o),
(224,545,o),
(245,530,cs),
(246,529,l),
(261,524,o),
(269,498,o),
(269,470,cs),
(269,438,o),
(258,406,o),
(233,399,cs),
(206,391,o),
(190,392,o),
(178,392,cs),
(161,392,l)
);
}
);
width = 409;
}
);
unicode = 66;
},
{
glyphname = C;
lastChange = "2024-07-25 12:29:49 +0000";
layers = (
{
anchors = (
{
name = bottom;
pos = (203,0);
},
{
name = top;
pos = (203,650);
}
);
background = {
shapes = (
{
closed = 1;
nodes = (
(365.519,0,o),
(377,72.55,o),
(377,202,c),
(266,202,l),
(266,202,l),
(266,188,l),
(267.333,180,o),
(268,169.667,o),
(268,159,cs),
(268,140.333,o),
(265.667,119.667,o),
(255,117,cs),
(243,112.333,o),
(228,110,o),
(210,110,cs),
(176.667,110,o),
(142.667,120.333,o),
(140,143,c),
(139.333,173,o),
(139,200,o),
(139,224,cs),
(139,284,l),
(139,284,o),
(139,284,o),
(139,284,c),
(139,284,o),
(139,284,o),
(139,284,c),
(139,284,o),
(139,284,o),
(139,284,c),
(139,284,o),
(139,284,o),
(139,284,c),
(139,284,o),
(139,284,o),
(139,284,c),
(139,484,ls),
(139,542.184,o),
(139.105,543,o),
(202,543,cs),
(266.6,543,o),
(266,538.229,o),
(266,479,c),
(377,479,l),
(377,601.933,o),
(330.667,649,o),
(202,649,cs),
(71.035,649,o),
(27,600.766,o),
(27,484,cs),
(27,165,ls),
(27,45.075,o),
(71.843,0,o),
(202,0,cs)
);
}
);
};
layerId = "27BA4E46-0A2B-46F0-A320-1D87D61B7B36";
shapes = (
{
closed = 1;
nodes = (
(366,0,o),
(377,73,o),
(377,202,c),
(266,202,l),
(267,180,o),
(268,170,o),
(268,159,cs),
(268,113,o),
(254,110,o),
(210,110,cs),
(177,110,o),
(142,120,o),
(139,143,c),
(139,484,ls),
(139,542,o),
(139,543,o),
(202,543,cs),
(266,543,o),
(266,538,o),
(266,479,c),
(377,479,l),
(377,602,o),
(331,649,o),
(202,649,cs),
(71,649,o),
(27,601,o),
(27,484,cs),
(27,165,ls),
(27,45,o),
(72,0,o),
(202,0,cs)
);
}
);
width = 406;
}
);
unicode = 67;
},
{
glyphname = Cacute;
lastChange = "2024-07-25 12:15:26 +0000";
layers = (
{
background = {
shapes = (
{
closed = 1;
nodes = (
(365.519,0,o),
(377,72.55,o),
(377,202,c),
(266,202,l),
(266,202,l),
(266,188,l),
(267.333,180,o),
(268,169.667,o),
(268,159,cs),
(268,140.333,o),
(265.667,119.667,o),
(255,117,cs),
(243,112.333,o),
(228,110,o),
(210,110,cs),
(176.667,110,o),
(142.667,120.333,o),
(140,143,c),
(139.333,173,o),
(139,200,o),
(139,224,cs),
(139,284,l),
(139,284,o),
(139,284,o),
(139,284,c),
(139,284,o),
(139,284,o),
(139,284,c),
(139,284,o),
(139,284,o),
(139,284,c),
(139,284,o),
(139,284,o),
(139,284,c),
(139,284,o),
(139,284,o),
(139,284,c),
(139,484,ls),
(139,542.184,o),
(139.105,543,o),
(202,543,cs),
(266.6,543,o),
(266,538.229,o),
(266,479,c),
(377,479,l),
(377,601.933,o),
(330.667,649,o),
(202,649,cs),
(71.035,649,o),
(27,600.766,o),
(27,484,cs),
(27,165,ls),
(27,45.075,o),
(71.843,0,o),
(202,0,cs)
);
},
{
closed = 1;
nodes = (
(164.167,681,o),
(175,681.333,o),
(187,682,cs),
(201,682,o),
(217,682.333,o),
(235,683,c),
(289,764,l),
(192,764,l),
(166,724,ls),
(159.333,714,o),
(153.333,704.667,o),
(148,696,cs),
(142.667,687.333,o),
(140,682.667,o),
(140,682,cs),
(140,681.333,o),
(144.833,681,o),
(154.5,681,cs)
);
}
);
};
layerId = "27BA4E46-0A2B-46F0-A320-1D87D61B7B36";
shapes = (
{
closed = 1;
nodes = (
(366,0,o),
(377,73,o),
(377,202,c),
(266,202,l),
(266,188,ls),
(267,180,o),
(268,170,o),
(268,159,cs),
(268,140,o),
(266,120,o),
(255,117,cs),
(243,112,o),
(228,110,o),
(210,110,cs),
(177,110,o),
(143,120,o),
(140,143,c),
(139,224,l),
(139,484,ls),
(139,542,o),
(139,543,o),
(202,543,cs),
(267,543,o),
(266,538,o),
(266,479,c),
(377,479,l),
(377,602,o),
(331,649,o),
(202,649,cs),
(71,649,o),
(27,601,o),
(27,484,cs),
(27,165,ls),
(27,45,o),
(72,0,o),
(202,0,cs)
);
},
{
closed = 1;
nodes = (
(187,682,l),
(235,683,l),
(289,764,l),
(192,764,l),
(166,724,l),
(148,696,l),
(140,682,l),
(140,681,o),
(145,681,o),
(155,681,cs)
);
}
);
width = 406;
}
);
unicode = 262;
},
{
glyphname = Ccaron;
lastChange = "2024-07-25 12:15:26 +0000";
layers = (
{
background = {
shapes = (
{
closed = 1;
nodes = (
(365.519,0,o),
(377,72.55,o),
(377,202,c),
(266,202,l),
(266,202,l),
(266,188,l),
(267.333,180,o),
(268,169.667,o),
(268,159,cs),
(268,140.333,o),
(265.667,119.667,o),
(255,117,cs),
(243,112.333,o),
(228,110,o),
(210,110,cs),
(176.667,110,o),
(142.667,120.333,o),
(140,143,c),
(139.333,173,o),
(139,200,o),
(139,224,cs),
(139,284,l),
(139,284,o),
(139,284,o),
(139,284,c),
(139,284,o),
(139,284,o),
(139,284,c),
(139,284,o),
(139,284,o),
(139,284,c),
(139,284,o),
(139,284,o),
(139,284,c),
(139,284,o),
(139,284,o),
(139,284,c),
(139,484,ls),
(139,542.184,o),
(139.105,543,o),
(202,543,cs),
(266.6,543,o),
(266,538.229,o),
(266,479,c),
(377,479,l),
(377,601.933,o),
(330.667,649,o),
(202,649,cs),
(71.035,649,o),
(27,600.766,o),
(27,484,cs),
(27,165,ls),
(27,45.075,o),
(71.843,0,o),
(202,0,cs)
);
},
{
closed = 1;
nodes = (
(283,671,l),
(341,765,l),
(341,765,l),
(237,765,l),
(198,705,l),
(156,761,l),
(52,761,l),
(112,669,l)
);
}
);
};
layerId = "27BA4E46-0A2B-46F0-A320-1D87D61B7B36";
shapes = (
{
closed = 1;
nodes = (
(366,0,o),
(377,73,o),
(377,202,c),
(266,202,l),
(266,188,ls),
(267,180,o),
(268,170,o),
(268,159,cs),
(268,140,o),
(266,120,o),
(255,117,cs),
(243,112,o),
(228,110,o),
(210,110,cs),
(177,110,o),
(143,120,o),
(140,143,c),
(139,224,l),
(139,484,ls),
(139,542,o),
(139,543,o),
(202,543,cs),
(267,543,o),
(266,538,o),
(266,479,c),
(377,479,l),
(377,602,o),
(331,649,o),
(202,649,cs),
(71,649,o),
(27,601,o),
(27,484,cs),
(27,165,ls),
(27,45,o),
(72,0,o),
(202,0,cs)
);
},
{
closed = 1;
nodes = (
(283,671,l),
(341,765,l),
(237,765,l),
(198,705,l),
(156,761,l),
(52,761,l),
(112,669,l)
);
}
);
width = 406;
}
);
unicode = 268;
},
{
glyphname = Ccedilla;
lastChange = "2024-07-25 12:29:18 +0000";
layers = (
{
background = {
shapes = (
{
closed = 1;
nodes = (
(187,-136,o),
(215,-141,o),
(247,-114,cs),
(264,-99,o),
(273,-77,o),
(273,-58,cs),
(273,-44,o),
(268,-32,o),
(259,-21,cs),
(250,-11,o),
(236,-4,o),
(219,0,c),
(223,0,ls),
(361,0,o),
(379,72,o),
(379,202,c),
(268,202,l),
(268,188,ls),
(269,180,o),
(270,170,o),
(270,159,cs),
(270,140,o),
(268,120,o),
(257,117,c),
(246,112,o),
(231,110,o),
(212,110,cs),
(179,110,o),
(144,120,o),
(141,143,c),
(141,484,ls),
(141,542,o),
(141,543,o),
(204,543,cs),
(268,543,o),
(268,538,o),
(268,479,c),
(379,479,l),
(379,602,o),
(333,649,o),
(204,649,cs),
(72,649,o),
(29,600,o),
(29,484,cs),
(29,165,ls),
(29,56,o),
(80,1,o),
(173,1,cs),
(176,1,l),
(149,-39,l),
(155,-38,l),
(160,-38,ls),
(169,-38,o),
(178,-41,o),
(185,-47,cs),
(192,-54,o),
(195,-61,o),
(195,-68,cs),
(195,-79,o),
(190,-89,o),
(180,-98,cs),
(169,-107,o),
(156,-112,o),
(142,-112,cs),
(135,-112,o),
(129,-111,o),
(121,-110,c),
(129,-134,l),
(174,-136,ls)
);
}
);
};
layerId = "27BA4E46-0A2B-46F0-A320-1D87D61B7B36";
shapes = (
{
ref = C;
},
{
pos = (62,0);
ref = cedillacomb;
}
);
width = 406;
}
);
unicode = 199;
},
{
glyphname = Ccircumflex;
lastChange = "2024-07-25 12:15:26 +0000";
layers = (
{
background = {
shapes = (
{
closed = 1;
nodes = (
(365.519,0,o),
(377,72.55,o),
(377,202,c),
(266,202,l),
(266,202,l),
(266,188,l),
(267.333,180,o),
(268,169.667,o),
(268,159,cs),
(268,140.333,o),
(265.667,119.667,o),
(255,117,cs),
(243,112.333,o),
(228,110,o),
(210,110,cs),
(176.667,110,o),
(142.667,120.333,o),
(140,143,c),
(139.333,173,o),
(139,200,o),
(139,224,cs),
(139,284,l),
(139,284,o),
(139,284,o),
(139,284,c),
(139,284,o),
(139,284,o),
(139,284,c),
(139,284,o),
(139,284,o),
(139,284,c),
(139,284,o),
(139,284,o),
(139,284,c),
(139,284,o),
(139,284,o),
(139,284,c),
(139,484,ls),
(139,542.184,o),
(139.105,543,o),
(202,543,cs),
(266.6,543,o),
(266,538.229,o),
(266,479,c),
(377,479,l),
(377,601.933,o),
(330.667,649,o),
(202,649,cs),
(71.035,649,o),
(27,600.766,o),
(27,484,cs),
(27,165,ls),
(27,45.075,o),
(71.843,0,o),
(202,0,cs)
);
},
{
closed = 1;
nodes = (
(152,679,l),
(193,736,l),
(233,680,l),
(334,680,l),
(273,774,l),
(116,774,l),
(56,679,l),
(56,679,l)
);
}
);
};
layerId = "27BA4E46-0A2B-46F0-A320-1D87D61B7B36";
shapes = (
{
closed = 1;
nodes = (
(366,0,o),
(377,73,o),
(377,202,c),
(266,202,l),
(266,188,ls),
(267,180,o),
(268,170,o),
(268,159,cs),
(268,140,o),
(266,120,o),
(255,117,cs),
(243,112,o),
(228,110,o),
(210,110,cs),
(177,110,o),
(143,120,o),
(140,143,c),
(139,224,l),
(139,484,ls),
(139,542,o),
(139,543,o),
(202,543,cs),
(267,543,o),
(266,538,o),
(266,479,c),
(377,479,l),
(377,602,o),
(331,649,o),
(202,649,cs),
(71,649,o),
(27,601,o),
(27,484,cs),
(27,165,ls),
(27,45,o),
(72,0,o),
(202,0,cs)
);
},
{
closed = 1;
nodes = (
(152,679,l),
(193,736,l),
(233,680,l),
(334,680,l),
(273,774,l),
(116,774,l),
(56,679,l)
);
}
);
width = 406;
}
);
unicode = 264;
},
{
glyphname = Cdotaccent;
lastChange = "2024-07-25 12:15:26 +0000";
layers = (
{
background = {
shapes = (
{
closed = 1;
nodes = (
(365.519,0,o),
(377,72.55,o),
(377,202,c),
(266,202,l),
(266,202,l),
(266,188,l),
(267.333,180,o),
(268,169.667,o),
(268,159,cs),
(268,140.333,o),
(265.667,119.667,o),
(255,117,cs),
(243,112.333,o),
(228,110,o),
(210,110,cs),
(176.667,110,o),
(142.667,120.333,o),
(140,143,c),
(139.333,173,o),
(139,200,o),
(139,224,cs),
(139,284,l),
(139,284,o),
(139,284,o),
(139,284,c),
(139,284,o),
(139,284,o),
(139,284,c),
(139,284,o),
(139,284,o),
(139,284,c),
(139,284,o),
(139,284,o),
(139,284,c),
(139,284,o),
(139,284,o),
(139,284,c),
(139,484,ls),
(139,542.184,o),
(139.105,543,o),
(202,543,cs),
(266.6,543,o),
(266,538.229,o),
(266,479,c),
(377,479,l),
(377,601.933,o),
(330.667,649,o),
(202,649,cs),
(71.035,649,o),
(27,600.766,o),
(27,484,cs),
(27,165,ls),
(27,45.075,o),
(71.843,0,o),
(202,0,cs)
);
},
{
closed = 1;
nodes = (
(237.333,679,o),
(256,696.667,o),
(256,732,cs),
(256,770.667,o),
(240,786,o),
(200,786,cs),
(158.667,786,o),
(144,769.333,o),
(144,732,cs),
(144,696,o),
(160,679,o),
(200,679,cs)
);
}
);
};
layerId = "27BA4E46-0A2B-46F0-A320-1D87D61B7B36";
shapes = (
{
closed = 1;
nodes = (
(366,0,o),
(377,73,o),
(377,202,c),
(266,202,l),
(266,188,ls),
(267,180,o),
(268,170,o),
(268,159,cs),
(268,140,o),
(266,120,o),
(255,117,cs),
(243,112,o),
(228,110,o),
(210,110,cs),
(177,110,o),
(143,120,o),
(140,143,c),
(139,224,l),
(139,484,ls),
(139,542,o),
(139,543,o),
(202,543,cs),
(267,543,o),
(266,538,o),
(266,479,c),
(377,479,l),
(377,602,o),
(331,649,o),
(202,649,cs),
(71,649,o),
(27,601,o),
(27,484,cs),
(27,165,ls),
(27,45,o),
(72,0,o),
(202,0,cs)
);
},
{
closed = 1;
nodes = (
(237,679,o),
(256,697,o),
(256,732,cs),
(256,771,o),
(240,786,o),
(200,786,cs),
(159,786,o),
(144,769,o),
(144,732,cs),
(144,696,o),
(160,679,o),
(200,679,cs)
);
}
);
width = 406;
}
);
unicode = 266;
},
{
glyphname = D;
lastChange = "2024-07-25 12:26:47 +0000";
layers = (
{
anchors = (
{
name = bottom;
pos = (203,0);
},
{
name = center;
pos = (102,325);
},
{
name = top;
pos = (203,650);
}
);
background = {
shapes = (
{
closed = 1;
nodes = (
(127,0,ls),
(264.006,0,o),
(378,15.45,o),
(378,182,cs),
(378,481,ls),
(378,598.494,o),
(333.261,649,o),
(203,649,cs),
(28,649,l),
(28,0,l),
(28,0,l)
);
},
{
closed = 1;
nodes = (
(140,544,l),
(140,544,l),
(161,544,ls),
(234.429,544,o),
(267,544.624,o),
(267,471,cs),
(267,186,ls),
(267,109.333,o),
(232.199,106,o),
(140,106,c)
);
}
);
};
layerId = "27BA4E46-0A2B-46F0-A320-1D87D61B7B36";
shapes = (
{
closed = 1;
nodes = (
(127,0,ls),
(264,0,o),
(378,15,o),
(378,182,cs),
(378,481,ls),
(378,598,o),
(333,649,o),
(203,649,cs),
(28,649,l),
(28,0,l)
);
},
{
closed = 1;
nodes = (
(140,544,l),
(161,544,ls),
(234,544,o),
(267,545,o),
(267,471,cs),
(267,186,ls),
(267,109,o),
(232,106,o),
(140,106,c)
);
}
);
width = 406;
}
);
unicode = 68;
},
{
glyphname = Dcaron;
lastChange = "2024-07-25 10:00:52 +0000";
layers = (
{
background = {
shapes = (
{
closed = 1;
nodes = (
(127,0,ls),
(264.006,0,o),
(378,15.45,o),
(378,182,cs),
(378,481,ls),
(378,598.494,o),
(333.261,649,o),
(203,649,cs),
(28,649,l),
(28,0,l),
(28,0,l)
);
},
{
closed = 1;
nodes = (
(140,544,l),
(140,544,l),
(161,544,ls),
(234.429,544,o),
(267,544.624,o),
(267,471,cs),
(267,186,ls),
(267,109.333,o),
(232.199,106,o),
(140,106,c)
);
},
{
closed = 1;
nodes = (
(267,677,l),
(325,771,l),
(325,771,l),
(221,771,l),
(182,711,l),
(140,767,l),
(36,767,l),
(96,675,l)
);
}
);
};
layerId = "27BA4E46-0A2B-46F0-A320-1D87D61B7B36";
shapes = (
{
closed = 1;
nodes = (
(127,0,ls),
(264,0,o),
(378,15,o),
(378,182,cs),
(378,481,ls),
(378,598,o),
(333,649,o),
(203,649,cs),
(28,649,l),
(28,0,l)
);
},
{
closed = 1;
nodes = (
(140,544,l),
(161,544,ls),
(234,544,o),
(267,545,o),
(267,471,cs),
(267,186,ls),
(267,109,o),
(232,106,o),
(140,106,c)
);
},
{
closed = 1;
nodes = (
(267,677,l),
(325,771,l),
(221,771,l),
(182,711,l),
(140,767,l),
(36,767,l),
(96,675,l)
);
}
);
width = 406;
}
);
unicode = 270;
},
{
glyphname = Dcroat;
lastChange = "2024-07-25 10:00:52 +0000";
layers = (
{
background = {
shapes = (
{
closed = 1;
nodes = (
(147,0,ls),
(284.006,0,o),
(398,15.45,o),
(398,182,cs),
(398,481,ls),
(398,597.541,o),
(354.084,649,o),
(223,649,cs),
(48,649,l),
(48,649,l),
(48,385,l),
(18,385,l),
(18,278,l),
(48,278,l),
(48,0,l)
);
},
{
closed = 1;
nodes = (
(160,278,l),
(239,278,l),
(239,385,l),
(160,385,l),
(160,544,l),
(181,544,ls),
(254.429,544,o),
(287,544.624,o),
(287,471,cs),
(287,186,ls),
(287,109.333,o),
(252.199,106,o),
(160,106,c)
);
}
);
};
layerId = "27BA4E46-0A2B-46F0-A320-1D87D61B7B36";
shapes = (
{
closed = 1;
nodes = (
(147,0,ls),
(284,0,o),
(398,15,o),
(398,182,cs),
(398,481,ls),
(398,598,o),
(354,649,o),
(223,649,cs),
(48,649,l),
(48,385,l),
(18,385,l),
(18,278,l),
(48,278,l),
(48,0,l)
);
},
{
closed = 1;
nodes = (
(160,278,l),
(239,278,l),
(239,385,l),
(160,385,l),
(160,544,l),
(181,544,ls),
(254,544,o),
(287,545,o),
(287,471,cs),
(287,186,ls),
(287,109,o),
(252,106,o),
(160,106,c)
);
}
);
width = 420;
}
);
unicode = 272;
},
{
glyphname = Eth;
lastChange = "2024-07-25 10:00:52 +0000";
layers = (
{
background = {
shapes = (
{
closed = 1;
nodes = (
(147,0,ls),
(284.006,0,o),
(398,15.45,o),
(398,182,cs),
(398,481,ls),
(398,597.541,o),
(354.084,649,o),
(223,649,cs),
(48,649,l),
(48,649,l),
(48,385,l),
(18,385,l),
(18,278,l),
(48,278,l),
(48,0,l)
);
},
{
closed = 1;
nodes = (
(160,278,l),
(239,278,l),
(239,385,l),
(160,385,l),
(160,544,l),
(181,544,ls),
(254.429,544,o),
(287,544.624,o),
(287,471,cs),
(287,186,ls),
(287,109.333,o),
(252.199,106,o),
(160,106,c)
);
}
);
};
layerId = "27BA4E46-0A2B-46F0-A320-1D87D61B7B36";
shapes = (
{
closed = 1;
nodes = (
(147,0,ls),
(284,0,o),
(398,15,o),
(398,182,cs),
(398,481,ls),
(398,598,o),
(354,649,o),
(223,649,cs),
(48,649,l),
(48,385,l),
(18,385,l),
(18,278,l),
(48,278,l),
(48,0,l)
);
},
{
closed = 1;
nodes = (
(160,278,l),
(239,278,l),
(239,385,l),
(160,385,l),
(160,544,l),
(181,544,ls),
(254,544,o),
(287,545,o),
(287,471,cs),
(287,186,ls),
(287,109,o),
(252,106,o),
(160,106,c)
);
}
);
width = 420;
}
);
unicode = 208;
},
{
glyphname = E;
lastChange = "2024-07-25 12:26:47 +0000";
layers = (
{
anchors = (
{
name = bottom;
pos = (187,0);
},
{
name = ogonek;
pos = (337,10);
},
{
name = top;
pos = (187,650);
},
{
name = topleft;
pos = (20,650);
}
);
background = {
shapes = (
{
closed = 1;
nodes = (
(345,0,l),
(345,106,l),
(345,106,l),
(141,106,l),
(141,287,l),
(285,287,l),
(285,393,l),
(141,393,l),
(141,544,l),
(345,544,l),
(345,649,l),
(29,649,l),
(29,0,l)
);
}
);
};
layerId = "27BA4E46-0A2B-46F0-A320-1D87D61B7B36";
shapes = (
{
closed = 1;
nodes = (
(345,0,l),
(345,106,l),
(141,106,l),
(141,287,l),
(285,287,l),
(285,393,l),
(141,393,l),
(141,544,l),
(345,544,l),
(345,649,l),
(29,649,l),
(29,0,l)
);
}
);
width = 374;
}
);
unicode = 69;
},
{
glyphname = Eacute;
lastChange = "2024-07-25 10:00:52 +0000";
layers = (
{
background = {
shapes = (
{
closed = 1;
nodes = (
(345,0,l),
(345,106,l),
(345,106,l),
(141,106,l),
(141,287,l),
(285,287,l),
(285,393,l),
(141,393,l),
(141,544,l),
(345,544,l),
(345,649,l),
(29,649,l),
(29,0,l)
);
},
{
closed = 1;
nodes = (
(155.167,681,o),
(166,681.333,o),
(178,682,cs),
(192,682,o),
(208,682.333,o),
(226,683,c),
(280,764,l),
(183,764,l),
(157,724,ls),
(150.333,714,o),
(144.333,704.667,o),
(139,696,cs),
(133.667,687.333,o),
(131,682.667,o),
(131,682,cs),
(131,681.333,o),
(135.833,681,o),
(145.5,681,cs)
);
}
);
};
layerId = "27BA4E46-0A2B-46F0-A320-1D87D61B7B36";
shapes = (
{
closed = 1;
nodes = (
(345,0,l),
(345,106,l),
(141,106,l),
(141,287,l),
(285,287,l),
(285,393,l),
(141,393,l),
(141,544,l),
(345,544,l),
(345,649,l),
(29,649,l),
(29,0,l)
);
},
{
closed = 1;
nodes = (
(178,682,l),
(226,683,l),
(280,764,l),
(183,764,l),
(157,724,l),
(139,696,l),
(131,682,l),
(131,681,o),
(136,681,o),
(146,681,cs)
);
}
);
width = 374;
}
);
unicode = 201;
},
{
glyphname = Ebreve;
lastChange = "2024-07-25 10:00:52 +0000";
layers = (
{
background = {
shapes = (
{
closed = 1;
nodes = (
(345,0,l),
(345,106,l),
(345,106,l),
(141,106,l),
(141,287,l),
(285,287,l),
(285,393,l),
(141,393,l),
(141,544,l),
(345,544,l),
(345,649,l),
(29,649,l),
(29,0,l)
);
},
{
closed = 1;
nodes = (
(266,679,o),
(306.333,708.333,o),
(309,783,c),
(244,783,l),
(238.667,744.333,o),
(219.333,742,o),
(190,742,cs),
(162,742,o),
(143.333,744.333,o),
(138,783,c),
(73,783,l),
(75.667,708.333,o),
(114,679,o),
(190,679,cs)
);
}
);
};
layerId = "27BA4E46-0A2B-46F0-A320-1D87D61B7B36";
shapes = (
{
closed = 1;
nodes = (
(345,0,l),
(345,106,l),
(141,106,l),
(141,287,l),
(285,287,l),
(285,393,l),
(141,393,l),
(141,544,l),
(345,544,l),
(345,649,l),
(29,649,l),
(29,0,l)
);
},
{
closed = 1;
nodes = (
(266,679,o),
(306,708,o),
(309,783,c),
(244,783,l),
(239,744,o),
(219,742,o),
(190,742,cs),
(162,742,o),
(143,744,o),
(138,783,c),
(73,783,l),
(76,708,o),
(114,679,o),
(190,679,cs)
);
}
);
width = 374;
}
);
unicode = 276;
},
{
glyphname = Ecaron;
lastChange = "2024-07-25 10:00:52 +0000";
layers = (
{
background = {
shapes = (
{
closed = 1;
nodes = (
(345,0,l),
(345,106,l),
(345,106,l),
(141,106,l),
(141,287,l),
(285,287,l),
(285,393,l),
(141,393,l),
(141,544,l),
(345,544,l),
(345,649,l),
(29,649,l),
(29,0,l)
);
},
{
closed = 1;
nodes = (
(274,679,l),
(332,768,l),
(332,768,l),
(228,768,l),
(189,711,l),
(147,767,l),
(43,767,l),
(103,678,l)
);
}
);
};
layerId = "27BA4E46-0A2B-46F0-A320-1D87D61B7B36";
shapes = (
{
closed = 1;
nodes = (
(345,0,l),
(345,106,l),
(141,106,l),
(141,287,l),
(285,287,l),
(285,393,l),
(141,393,l),
(141,544,l),
(345,544,l),
(345,649,l),
(29,649,l),
(29,0,l)
);
},
{
closed = 1;
nodes = (
(274,679,l),
(332,768,l),
(228,768,l),
(189,711,l),
(147,767,l),
(43,767,l),
(103,678,l)
);
}
);
width = 374;
}
);
unicode = 282;
},
{
glyphname = Ecircumflex;
lastChange = "2024-07-25 10:00:52 +0000";
layers = (
{
background = {
shapes = (
{
closed = 1;
nodes = (
(345,0,l),
(345,106,l),
(345,106,l),
(141,106,l),
(141,287,l),
(285,287,l),
(285,393,l),
(141,393,l),
(141,544,l),
(345,544,l),
(345,649,l),
(29,649,l),
(29,0,l)
);
},
{
closed = 1;
nodes = (
(145,684,l),
(184,738,l),
(226,684,l),
(330,684,l),
(270,776,l),
(99,775,l),
(41,684,l),
(41,684,l)
);
}
);
};
layerId = "27BA4E46-0A2B-46F0-A320-1D87D61B7B36";
shapes = (
{
closed = 1;
nodes = (
(345,0,l),
(345,106,l),
(141,106,l),
(141,287,l),
(285,287,l),
(285,393,l),
(141,393,l),
(141,544,l),
(345,544,l),
(345,649,l),
(29,649,l),
(29,0,l)
);
},
{
closed = 1;
nodes = (
(145,684,l),
(184,738,l),
(226,684,l),
(330,684,l),
(270,776,l),
(99,775,l),
(41,684,l)
);
}
);
width = 374;
}
);
unicode = 202;
},
{
glyphname = Edieresis;
lastChange = "2024-07-25 12:15:26 +0000";
layers = (
{
background = {
shapes = (
{
closed = 1;
nodes = (
(345,0,l),
(345,106,l),
(345,106,l),
(141,106,l),
(141,287,l),
(285,287,l),
(285,393,l),
(141,393,l),
(141,544,l),
(345,544,l),
(345,649,l),
(29,649,l),
(29,0,l)
);
},
{
closed = 1;
nodes = (
(83.167,681,o),
(94,681.333,o),
(106,682,cs),
(120,682,o),
(136,682.333,o),
(154,683,c),
(155,764,l),
(59,764,l),
(59,682,ls),
(59,681.333,o),
(63.833,681,o),
(73.5,681,cs)
);
},
{
closed = 1;
nodes = (
(233,684,l),
(233,684,o),
(233,684,o),
(233,684,c),
(233,684,o),
(233,684,o),
(233,684,c),
(233,684,o),
(233,684,o),
(233,684,c),
(233.667,684,o),
(234,684,o),
(234,684,c),
(234,684,o),
(234,684,o),
(234,684,c),
(234,684,o),
(234,684,o),
(234,684,c),
(234,684,o),
(234,684,o),
(234,684,c),
(234,684,o),
(234,684,o),
(234,684,c),
(234,684,o),
(234,684,o),
(234,684,c),
(234,684,o),
(234,684,o),
(234,684,c),
(245,684,l),
(245,684,o),
(245,684,o),
(245,684,c),
(245,684,o),
(245,684,o),
(245,684,c),
(245,684,o),
(245,684,o),
(245,684,c),
(245,684,o),
(245,684,o),
(245,684,c),
(245.667,684,o),
(246,684,o),
(246,684,c),
(246,684,o),
(246,684,o),
(246,684,c),
(246,684,o),
(246,684,o),
(246,684,c),
(246,684,o),
(246,684,o),
(246,684,c),
(246,684,o),
(246,684,o),
(246,684,c),
(246,684,o),
(246,684,o),
(246,684,c),
(246,684,o),
(246,684,o),
(246,684,c),
(246,684,o),
(246,684,o),
(246,684,c),
(249,684,l),
(249,684,o),
(249,684,o),
(249,684,c),
(249,684,o),
(249,684,o),
(249,684,c),
(249,684,o),
(249,684,o),
(249,684,c),
(249,684,o),
(249,684,o),
(249,684,c),
(249.667,684,o),
(250,684,o),
(250,684,c),
(250,684,o),
(250,684,o),
(250,684,c),
(250,684,o),
(250,684,o),
(250,684,c),
(250,684,o),
(250,684,o),
(250,684,c),
(250,684,o),
(250,684,o),
(250,684,c),
(250,684,o),
(250,684,o),
(250,684,c),
(250,684,o),
(250,684,o),
(250,684,c),
(250,684,o),
(250,684,o),
(250,684,c),
(251,684,l),
(251,684,o),
(251,684,o),
(251,684,c),
(251,684,o),
(251,684,o),
(251,684,c),
(251,684,o),
(251,684,o),
(251,684,c),
(251,684,o),
(251,684,o),
(251,684,c),
(251.667,684,o),
(252,684,o),
(252,684,c),
(252,684,o),
(252,684,o),
(252,684,c),
(252,684,o),
(252,684,o),
(252,684,c),
(252,684,o),
(252,684,o),
(252,684,c),
(252,684,o),
(252,684,o),
(252,684,c),
(252,684,o),
(252,684,o),
(252,684,c),
(252,684,o),
(252,684,o),
(252,684,c),
(252,684,o),
(252,684,o),
(252,684,c),
(253,684,l),
(253,684,o),
(253,684,o),
(253,684,c),
(253,684,o),
(253,684,o),
(253,684,c),
(253,684,o),
(253,684,o),
(253,684,c),
(253.667,684,o),
(254,684,o),
(254,684,c),
(254,684,o),
(254,684,o),
(254,684,c),
(254,684,o),
(254,684,o),
(254,684,c),
(254,684,o),
(254,684,o),
(254,684,c),
(254,684,o),
(254,684,o),
(254,684,c),
(254,684,o),
(254,684,o),
(254,684,c),
(254,684,o),
(254,684,o),
(254,684,c),
(255,684,l),
(255,684,o),
(255,684,o),
(255,684,c),
(255.667,684,o),
(256,684,o),
(256,684,c),
(256,684,o),
(256,684,o),
(256,684,c),
(256,684,o),
(256,684,o),
(256,684,c),
(256,684,o),
(256,684,o),
(256,684,c),
(256,684,o),
(256,684,o),
(256,684,c),
(257,684,l),
(257,684,o),
(257,684,o),
(257,684,c),
(257,684,o),
(257,684,o),
(257,684,c),
(257,684,o),
(257,684,o),
(257,684,c),
(257.667,684,o),
(258,684,o),
(258,684,c),
(258,684,o),
(258,684,o),
(258,684,c),
(258,684,o),
(258,684,o),
(258,684,c),
(258,684,o),
(258,684,o),
(258,684,c),
(258,684,o),
(258,684,o),
(258,684,c),
(258,684,o),
(258,684,o),
(258,684,c),
(258.667,684,o),
(259,684,o),
(259,684,c),
(259,684,o),
(259,684,o),
(259,684,c),
(259,684,o),
(259,684,o),
(259,684,c),
(259,684,o),
(259,684,o),
(259,684,c),
(259,684,o),
(259,684,o),
(259,684,c),
(262,684,ls),
(276,684,o),
(292,684.333,o),
(310,685,c),
(311,766,l),
(215,766,l),
(215,685,ls),
(215,684.333,o),
(220,684,o),
(230,684,cs)
);
}
);
};
layerId = "27BA4E46-0A2B-46F0-A320-1D87D61B7B36";
shapes = (
{
closed = 1;
nodes = (
(345,0,l),
(345,106,l),
(141,106,l),
(141,287,l),
(285,287,l),
(285,393,l),
(141,393,l),
(141,544,l),
(345,544,l),
(345,649,l),
(29,649,l),
(29,0,l)
);
},
{
closed = 1;
nodes = (
(106,682,l),
(154,683,l),
(155,764,l),
(59,764,l),
(59,682,ls),
(59,681,o),
(64,681,o),
(74,681,cs)
);
},
{
closed = 1;
nodes = (
(262,684,l),
(310,685,l),
(311,766,l),
(215,766,l),
(215,685,ls),
(215,684,o),
(220,684,o),
(230,684,cs)
);
}
);
width = 374;
}
);
unicode = 203;
},
{
glyphname = Edotaccent;
lastChange = "2024-07-25 10:00:52 +0000";
layers = (
{
background = {
shapes = (
{
closed = 1;
nodes = (
(345,0,l),
(345,106,l),
(345,106,l),
(141,106,l),
(141,287,l),
(285,287,l),
(285,393,l),
(141,393,l),
(141,544,l),
(345,544,l),
(345,649,l),
(29,649,l),
(29,0,l)
);
},
{
closed = 1;
nodes = (
(226.333,679,o),
(245,696.667,o),
(245,732,cs),
(245,770.667,o),
(229,786,o),
(189,786,cs),
(147.667,786,o),
(133,769.333,o),
(133,732,cs),
(133,696,o),
(149,679,o),
(189,679,cs)
);
}
);
};
layerId = "27BA4E46-0A2B-46F0-A320-1D87D61B7B36";
shapes = (
{
closed = 1;
nodes = (
(345,0,l),
(345,106,l),
(141,106,l),
(141,287,l),
(285,287,l),
(285,393,l),
(141,393,l),
(141,544,l),
(345,544,l),
(345,649,l),
(29,649,l),
(29,0,l)
);
},
{
closed = 1;
nodes = (
(226,679,o),
(245,697,o),
(245,732,cs),
(245,771,o),
(229,786,o),
(189,786,cs),
(148,786,o),
(133,769,o),
(133,732,cs),
(133,696,o),
(149,679,o),
(189,679,cs)
);
}
);
width = 374;
}
);
unicode = 278;
},
{
glyphname = Egrave;
lastChange = "2024-07-25 10:00:52 +0000";
layers = (
{
background = {
shapes = (
{
closed = 1;
nodes = (
(345,0,l),
(345,106,l),
(345,106,l),
(141,106,l),
(141,287,l),
(285,287,l),
(285,393,l),
(141,393,l),
(141,544,l),
(345,544,l),
(345,649,l),
(29,649,l),
(29,0,l)
);
},
{
closed = 1;
nodes = (
(173.167,681,o),
(184,681.333,o),
(196,682,cs),
(210,682,o),
(226,682.333,o),
(244,683,c),
(184,764,l),
(87,764,l),
(98.333,749.333,o),
(108.667,736,o),
(118,724,cs),
(125.333,714,o),
(132.333,704.667,o),
(139,696,cs),
(145.667,687.333,o),
(149,682.667,o),
(149,682,cs),
(149,681.333,o),
(153.833,681,o),
(163.5,681,cs)
);
}
);
};
layerId = "27BA4E46-0A2B-46F0-A320-1D87D61B7B36";
shapes = (
{
closed = 1;
nodes = (
(345,0,l),
(345,106,l),
(141,106,l),
(141,287,l),
(285,287,l),
(285,393,l),
(141,393,l),
(141,544,l),
(345,544,l),
(345,649,l),
(29,649,l),
(29,0,l)
);
},
{
closed = 1;
nodes = (
(196,682,l),
(244,683,l),
(184,764,l),
(87,764,l),
(118,724,l),
(139,696,l),
(149,682,l),
(149,681,o),
(154,681,o),
(164,681,cs)
);
}
);
width = 374;
}
);
unicode = 200;
},
{
glyphname = Emacron;
lastChange = "2024-07-25 12:15:26 +0000";
layers = (
{
background = {
shapes = (
{
closed = 1;
nodes = (
(345,0,l),
(345,106,l),
(345,106,l),
(141,106,l),
(141,287,l),
(285,287,l),
(285,393,l),
(141,393,l),
(141,544,l),
(345,544,l),
(345,649,l),
(29,649,l),
(29,0,l)
);
},
{
closed = 1;
nodes = (
(117,684,l),
(117,684,o),
(117,684,o),
(117,684,c),
(117,684,o),
(117,684,o),
(117,684,c),
(117,684,o),
(117,684,o),
(117,684,c),
(117.667,684,o),
(118,684,o),
(118,684,c),
(118,684,o),
(118,684,o),
(118,684,c),
(118,684,o),
(118,684,o),
(118,684,c),
(118,684,o),
(118,684,o),
(118,684,c),
(118,684,o),
(118,684,o),
(118,684,c),
(118,684,o),
(118,684,o),
(118,684,c),
(129,684,l),
(129,684,o),
(129,684,o),
(129,684,c),
(129.667,684,o),
(130,684,o),
(130,684,c),
(130,684,o),
(130,684,o),
(130,684,c),
(130,684,o),
(130,684,o),
(130,684,c),
(130,684,o),
(130,684,o),
(130,684,c),
(130,684,o),
(130,684,o),
(130,684,c),
(133,684,l),
(133,684,o),
(133,684,o),
(133,684,c),
(133,684,o),
(133,684,o),
(133,684,c),
(133,684,o),
(133,684,o),
(133,684,c),
(133.667,684,o),
(134,684,o),
(134,684,c),
(134,684,o),
(134,684,o),
(134,684,c),
(134,684,o),
(134,684,o),
(134,684,c),
(134,684,o),
(134,684,o),
(134,684,c),
(134,684,o),
(134,684,o),
(134,684,c),
(134,684,o),
(134,684,o),
(134,684,c),
(134,684,o),
(134,684,o),
(134,684,c),
(134,684,o),
(134,684,o),
(134,684,c),
(136,684,l),
(136,684,o),
(136,684,o),
(136,684,c),
(136,684,o),
(136,684,o),
(136,684,c),
(136,684,o),
(136,684,o),
(136,684,c),
(136.667,684,o),
(137,684,o),
(137,684,c),
(137,684,o),
(137,684,o),
(137,684,c),
(137,684,o),
(137,684,o),
(137,684,c),
(137,684,o),
(137,684,o),
(137,684,c),
(137,684,o),
(137,684,o),
(137,684,c),
(137,684,o),
(137,684,o),
(137,684,c),
(137,684,o),
(137,684,o),
(137,684,c),
(137,684,o),
(137,684,o),
(137,684,c),
(138,684,l),
(138,684,o),
(138,684,o),
(138,684,c),
(138,684,o),
(138,684,o),
(138,684,c),
(138,684,o),
(138,684,o),
(138,684,c),
(138.667,684,o),
(139,684,o),
(139,684,c),
(139,684,o),
(139,684,o),
(139,684,c),
(139,684,o),
(139,684,o),
(139,684,c),
(139,684,o),
(139,684,o),
(139,684,c),
(139,684,o),
(139,684,o),
(139,684,c),
(139,684,o),
(139,684,o),
(139,684,c),
(139,684,o),
(139,684,o),
(139,684,c),
(139,684,o),
(139,684,o),
(139,684,c),
(140,684,l),
(140,684,o),
(140,684,o),
(140,684,c),
(140,684,o),
(140,684,o),
(140,684,c),
(140,684,o),
(140,684,o),
(140,684,c),
(141,684,l),
(141,684,o),
(141,684,o),
(141,684,c),
(141.667,684,o),
(142,684,o),
(142,684,c),
(142,684,o),
(142,684,o),
(142,684,c),
(142,684,o),
(142,684,o),
(142,684,c),
(142,684,o),
(142,684,o),
(142,684,c),
(142,684,o),
(142,684,o),
(142,684,c),
(142,684,o),
(142,684,o),
(142,684,c),
(142,684,o),
(142,684,o),
(142,684,c),
(142,684,o),
(142,684,o),
(142,684,c),
(142,684,o),
(142,684,o),
(142,684,c),
(142.667,684,o),
(143,684,o),
(143,684,c),
(143,684,o),
(143,684,o),
(143,684,c),
(143,684,o),
(143,684,o),
(143,684,c),
(143,684,o),
(143,684,o),
(143,684,c),
(143,684,o),
(143,684,o),
(143,684,c),
(143,684,o),
(143,684,o),
(143,684,c),
(143,684,o),
(143,684,o),
(143,684,c),
(143,684,o),
(143,684,o),
(143,684,c),
(149,684,l),
(149,684,o),
(149,684,o),
(149,684,c),
(149,684,o),
(149,684,o),
(149,684,c),
(149,684,o),
(149,684,o),
(149,684,c),
(150,684,l),
(150,684,o),
(150,684,o),
(150,684,c),
(150,684,o),
(150,684,o),
(150,684,c),
(150,684,o),
(150,684,o),
(150,684,c),
(150,684,o),
(150,684,o),
(150,684,c),
(150.667,684,o),
(151,684,o),
(151,684,c),
(151,684,o),
(151,684,o),
(151,684,c),
(151,684,o),
(151,684,o),
(151,684,c),
(151,684,o),
(151,684,o),
(151,684,c),
(151,684,o),
(151,684,o),
(151,684,c),
(151,684,o),
(151,684,o),
(151,684,c),
(151,684,o),
(151,684,o),
(151,684,c),
(151,684,o),
(151,684,o),
(151,684,c),
(151.667,684,o),
(152,684,o),
(152,684,c),
(152,684,o),
(152,684,o),
(152,684,c),
(152,684,o),
(152,684,o),
(152,684,c),
(152,684,o),
(152,684,o),
(152,684,c),
(152,684,o),
(152,684,o),
(152,684,c),
(165,684,l),
(165,684,o),
(165,684,o),
(165,684,c),
(165,684,o),
(165,684,o),
(165,684,c),
(165,684,o),
(165,684,o),
(165,684,c),
(166,684,l),
(166,684,o),
(166,684,o),
(166,684,c),
(166,684,o),
(166,684,o),
(166,684,c),
(166,684,o),
(166,684,o),
(166,684,c),
(166,684,o),
(166,684,o),
(166,684,c),
(166.667,684,o),
(167,684,o),
(167,684,c),
(167,684,o),
(167,684,o),
(167,684,c),
(167,684,o),
(167,684,o),
(167,684,c),
(167,684,o),
(167,684,o),
(167,684,c),
(167,684,o),
(167,684,o),
(167,684,c),
(167,684,o),
(167,684,o),
(167,684,c),
(167,684,o),
(167,684,o),
(167,684,c),
(170,684,l),
(170,684,o),
(170,684,o),
(170,684,c),
(170,684,o),
(170,684,o),
(170,684,c),
(170,684,o),
(170,684,o),
(170,684,c),
(170.667,684,o),
(171,684,o),
(171,684,c),
(171,684,o),
(171,684,o),
(171,684,c),
(171,684,o),
(171,684,o),
(171,684,c),
(171,684,o),
(171,684,o),
(171,684,c),
(171,684,o),
(171,684,o),
(171,684,c),
(172,684,l),
(172,684,o),
(172,684,o),
(172,684,c),
(172,684,o),
(172,684,o),
(172,684,c),
(173,684,l),
(173,684,o),
(173,684,o),
(173,684,c),
(173.667,684,o),
(174,684,o),
(174,684,c),
(174,684,o),
(174,684,o),
(174,684,c),
(174,684,o),
(174,684,o),
(174,684,c),
(174,684,o),
(174,684,o),
(174,684,c),
(174,684,o),
(174,684,o),
(174,684,c),
(174,684,o),
(174,684,o),
(174,684,c),
(175,684,l),
(175,684,o),
(175,684,o),
(175,684,c),
(175,684,o),
(175,684,o),
(175,684,c),
(175,684,o),
(175,684,o),
(175,684,c),
(175.667,684,o),
(176,684,o),
(176,684,c),
(176,684,o),
(176,684,o),
(176,684,c),
(176,684,o),
(176,684,o),
(176,684,c),
(176,684,o),
(176,684,o),
(176,684,c),
(176,684,o),
(176,684,o),
(176,684,c),
(176,684,o),
(176,684,o),
(176,684,c),
(176,684,o),
(176,684,o),
(176,684,c),
(176,684,o),
(176,684,o),
(176,684,c),
(177,684,l),
(177,684,o),
(177,684,o),
(177,684,c),
(177,684,o),
(177,684,o),
(177,684,c),
(177,684,o),
(177,684,o),
(177,684,c),
(177,684,o),
(177,684,o),
(177,684,c),
(177.667,684,o),
(178,684,o),
(178,684,c),
(178,684,o),
(178,684,o),
(178,684,c),
(178,684,o),
(178,684,o),
(178,684,c),
(178,684,o),
(178,684,o),
(178,684,c),
(178,684,o),
(178,684,o),
(178,684,c),
(178,684,o),
(178,684,o),
(178,684,c),
(178,684,o),
(178,684,o),
(178,684,c),
(178,684,o),
(178,684,o),
(178,684,c),
(179,684,l),
(179,684,o),
(179,684,o),
(179,684,c),
(179,684,o),
(179,684,o),
(179,684,c),
(179,684,o),
(179,684,o),
(179,684,c),
(179,684,o),
(179,684,o),
(179,684,c),
(179.667,684,o),
(180,684,o),
(180,684,c),
(180,684,o),
(180,684,o),
(180,684,c),
(180,684,o),
(180,684,o),
(180,684,c),
(180,684,o),
(180,684,o),
(180,684,c),
(180,684,o),
(180,684,o),
(180,684,c),
(180,684,o),
(180,684,o),
(180,684,c),
(180,684,o),
(180,684,o),
(180,684,c),
(180,684,o),
(180,684,o),
(180,684,c),
(184,684,ls),
(214,684,o),
(248,684.333,o),
(286,685,c),
(287,766,l),
(82,766,l),
(82,685,l),
(82,685,o),
(85,684.833,o),
(91,684.5,cs),
(97,684.167,o),
(104.667,684,o),
(114,684,cs)
);
}
);
};
layerId = "27BA4E46-0A2B-46F0-A320-1D87D61B7B36";
shapes = (
{
closed = 1;
nodes = (
(345,0,l),
(345,106,l),
(141,106,l),
(141,287,l),
(285,287,l),
(285,393,l),
(141,393,l),
(141,544,l),
(345,544,l),
(345,649,l),
(29,649,l),
(29,0,l)
);
},
{
closed = 1;
nodes = (
(286,685,l),
(287,766,l),
(82,766,l),
(82,685,l),
(91,685,l),
(114,684,l)
);
}
);
width = 374;
}
);
unicode = 274;
},
{
glyphname = Eogonek;
lastChange = "2024-07-25 10:00:52 +0000";
layers = (
{
background = {
shapes = (
{
closed = 1;
nodes = (
(284.333,-135,o),
(297,-134.333,o),
(311,-133,c),
(317,-109,l),
(310.333,-110.333,o),
(305.333,-111,o),
(300,-111,cs),
(288,-111,o),
(277.333,-106.333,o),
(268,-97,cs),
(259.333,-88.333,o),
(255,-78.333,o),
(255,-67,cs),
(255,-59.667,o),
(257.667,-52.667,o),
(263,-46,cs),
(269,-40,o),
(276.333,-37,o),
(285,-37,cs),
(286.333,-37,o),
(287.667,-37.167,o),
(289,-37.5,cs),
(290.333,-37.833,o),
(292,-38,o),
(294,-38,c),
(272,0,l),
(347,0,l),
(347,106,l),
(143,106,l),
(143,287,l),
(287,287,l),
(287,393,l),
(143,393,l),
(143,544,l),
(347,544,l),
(347,544,l),
(347,649,l),
(31,649,l),
(31,0,l),
(230,0,l),
(217.333,-4.667,o),
(207.667,-11.333,o),
(201,-20,cs),
(193,-30,o),
(189,-42.333,o),
(189,-57,cs),
(189,-75.667,o),
(196.333,-98.333,o),
(211,-113,cs),
(237.667,-139.667,o),
(261,-135,o),
(273,-135,cs)
);
}
);
};
layerId = "27BA4E46-0A2B-46F0-A320-1D87D61B7B36";
shapes = (
{
closed = 1;
nodes = (
(311,-133,l),
(317,-109,l),
(310,-110,o),
(305,-111,o),
(300,-111,cs),
(288,-111,o),
(277,-106,o),
(268,-97,cs),
(259,-88,o),
(255,-78,o),
(255,-67,cs),
(255,-60,o),
(258,-53,o),
(263,-46,cs),
(269,-40,o),
(276,-37,o),
(285,-37,cs),
(289,-37,l),
(294,-38,l),
(272,0,l),
(347,0,l),
(347,106,l),
(143,106,l),
(143,287,l),
(287,287,l),
(287,393,l),
(143,393,l),
(143,544,l),
(347,544,l),
(347,649,l),
(31,649,l),
(31,0,l),
(230,0,l),
(217,-5,o),
(208,-11,o),
(201,-20,cs),
(193,-30,o),
(189,-42,o),
(189,-57,cs),
(189,-76,o),
(196,-98,o),
(211,-113,cs),
(238,-140,o),
(261,-135,o),
(273,-135,cs)
);
}
);
width = 374;
}
);
unicode = 280;
},
{
glyphname = F;
lastChange = "2024-07-25 12:26:47 +0000";
layers = (
{
anchors = (
{
name = bottom;
pos = (185,0);
},
{
name = top;
pos = (185,650);
}
);
background = {
shapes = (
{
closed = 1;
nodes = (
(142,0,l),
(142,287,l),
(286,287,l),
(286,393,l),
(142,393,l),
(142,544,l),
(346,544,l),
(346,649,l),
(346,649,l),
(30,649,l),
(30,0,l)
);
}
);
};
layerId = "27BA4E46-0A2B-46F0-A320-1D87D61B7B36";
shapes = (
{
closed = 1;
nodes = (
(142,0,l),
(142,287,l),
(286,287,l),
(286,393,l),
(142,393,l),
(142,544,l),
(346,544,l),
(346,649,l),
(30,649,l),
(30,0,l)
);
}
);
width = 370;
}
);
unicode = 70;
},
{
glyphname = G;
lastChange = "2024-07-25 12:26:47 +0000";
layers = (
{
anchors = (
{
name = bottom;
pos = (201,0);
},
{
name = top;
pos = (201,650);
}
);
background = {
shapes = (
{
closed = 1;
nodes = (
(360.12,0,o),
(374,85.283,o),
(374,245,cs),
(374,362,l),
(170,362,l),
(170,256,l),
(262,256,l),
(262,200,ls),
(262,135.459,o),
(255.243,106,o),
(213,106,cs),
(208,106,ls),
(154.314,108.826,o),
(135,110.003,o),
(135,165,cs),
(135,485,ls),
(135,540.365,o),
(152.356,544,o),
(199,544,cs),
(217,544,l),
(217,544,o),
(217,544,o),
(217,544,c),
(217,544,o),
(217,544,o),
(217,544,c),
(218,544,l),
(218,544,o),
(218,544,o),
(218,544,c),
(218,544,o),
(218,544,o),
(218,544,c),
(218,544,o),
(218,544,o),
(218,544,c),
(219,544,l),
(219,544,o),
(219,544,o),
(219,544,c),
(219,544,o),
(219,544,o),
(219,544,c),
(220,544,l),
(220,544,o),
(220,544,o),
(220,544,c),
(220,544,o),
(220,544,o),
(220,544,c),
(220,544,o),
(220,544,o),
(220,544,c),
(221,544,l),
(221,544,o),
(221,544,o),
(221,544,c),
(221,544,o),
(221,544,o),
(221,544,c),
(222,544,l),
(222,544,o),
(222,544,o),
(222,544,c),
(222,544,o),
(222,544,o),
(222,544,c),
(224,544,l),
(224,544,o),
(224,544,o),
(224,544,c),
(224,544,o),
(224,544,o),
(224,544,c),
(224,544,o),
(224,544,o),
(224,544,c),
(225,544,l),
(225,544,o),
(225,544,o),
(225,544,c),
(225,544,o),
(225,544,o),
(225,544,c),
(225,544,o),
(225,544,o),
(225,544,c),
(225,544,o),
(225,544,o),
(225,544,c),
(230,544,ls),
(252.245,544,o),
(252.84,536.12,o),
(257,507,cs),
(259,480,l),
(374,480,l),
(374,600.306,o),
(329.105,649,o),
(199,649,cs),
(68.771,649,o),
(24,603.797,o),
(24,485,cs),
(24,165,ls),
(24,45.075,o),
(68.843,0,o),
(199,0,cs)
);
}
);
};
layerId = "27BA4E46-0A2B-46F0-A320-1D87D61B7B36";
shapes = (
{
closed = 1;
nodes = (
(360,0,o),
(374,85,o),
(374,245,cs),
(374,362,l),
(170,362,l),
(170,256,l),
(262,256,l),
(262,200,ls),
(262,135,o),
(255,106,o),
(213,106,cs),
(208,106,ls),
(154,109,o),
(135,110,o),
(135,165,cs),
(135,485,ls),
(135,540,o),
(152,544,o),
(199,544,cs),
(230,544,ls),
(252,544,o),
(253,536,o),
(257,507,cs),
(259,480,l),
(374,480,l),
(374,600,o),
(329,649,o),
(199,649,cs),
(69,649,o),
(24,604,o),
(24,485,cs),
(24,165,ls),
(24,45,o),
(69,0,o),
(199,0,cs)
);
}
);
width = 402;
}
);
unicode = 71;
},
{
glyphname = Gbreve;
lastChange = "2024-07-25 12:15:26 +0000";
layers = (
{
background = {
shapes = (
{
closed = 1;
nodes = (
(360.12,0,o),
(374,85.283,o),
(374,245,cs),
(374,362,l),
(170,362,l),
(170,256,l),
(262,256,l),
(262,200,ls),
(262,135.459,o),
(255.243,106,o),
(213,106,cs),
(208,106,ls),
(154.314,108.826,o),
(135,110.003,o),
(135,165,cs),
(135,485,ls),
(135,540.365,o),
(152.356,544,o),
(199,544,cs),
(217,544,l),
(217,544,o),
(217,544,o),
(217,544,c),
(217,544,o),
(217,544,o),
(217,544,c),
(218,544,l),
(218,544,o),
(218,544,o),
(218,544,c),
(218,544,o),
(218,544,o),
(218,544,c),
(218,544,o),
(218,544,o),
(218,544,c),
(219,544,l),
(219,544,o),
(219,544,o),
(219,544,c),
(219,544,o),
(219,544,o),
(219,544,c),
(220,544,l),
(220,544,o),
(220,544,o),
(220,544,c),
(220,544,o),
(220,544,o),
(220,544,c),
(220,544,o),
(220,544,o),
(220,544,c),
(221,544,l),
(221,544,o),
(221,544,o),
(221,544,c),
(221,544,o),
(221,544,o),
(221,544,c),
(222,544,l),
(222,544,o),
(222,544,o),
(222,544,c),
(222,544,o),
(222,544,o),
(222,544,c),
(224,544,l),
(224,544,o),
(224,544,o),
(224,544,c),
(224,544,o),
(224,544,o),
(224,544,c),
(224,544,o),
(224,544,o),
(224,544,c),
(225,544,l),
(225,544,o),
(225,544,o),
(225,544,c),
(225,544,o),
(225,544,o),
(225,544,c),
(225,544,o),
(225,544,o),
(225,544,c),
(225,544,o),
(225,544,o),
(225,544,c),
(230,544,ls),
(252.245,544,o),
(252.84,536.12,o),
(257,507,cs),
(259,480,l),
(374,480,l),
(374,600.306,o),
(329.105,649,o),
(199,649,cs),
(68.771,649,o),
(24,603.797,o),
(24,485,cs),
(24,165,ls),
(24,45.075,o),
(68.843,0,o),
(199,0,cs)
);
},
{
closed = 1;
nodes = (
(266,679,o),
(306.333,708.333,o),
(309,783,c),
(244,783,l),
(238.667,744.333,o),
(219.333,742,o),
(190,742,cs),
(162,742,o),
(143.333,744.333,o),
(138,783,c),
(73,783,l),
(75.667,708.333,o),
(114,679,o),
(190,679,cs)
);
}
);
};
layerId = "27BA4E46-0A2B-46F0-A320-1D87D61B7B36";
shapes = (
{
closed = 1;
nodes = (
(360,0,o),
(374,85,o),
(374,245,cs),
(374,362,l),
(170,362,l),
(170,256,l),
(262,256,l),
(262,200,ls),
(262,135,o),
(255,106,o),
(213,106,cs),
(208,106,ls),
(154,109,o),
(135,110,o),
(135,165,cs),
(135,485,ls),
(135,540,o),
(152,544,o),
(199,544,cs),
(230,544,ls),
(252,544,o),
(253,536,o),
(257,507,cs),
(259,480,l),
(374,480,l),
(374,600,o),
(329,649,o),
(199,649,cs),
(69,649,o),
(24,604,o),
(24,485,cs),
(24,165,ls),
(24,45,o),
(69,0,o),
(199,0,cs)
);
},
{
closed = 1;
nodes = (
(266,679,o),
(306,708,o),
(309,783,c),
(244,783,l),
(239,744,o),
(219,742,o),
(190,742,cs),
(162,742,o),
(143,744,o),
(138,783,c),
(73,783,l),
(76,708,o),
(114,679,o),
(190,679,cs)
);
}
);
width = 402;
}
);
unicode = 286;
},
{
glyphname = Gcircumflex;
lastChange = "2024-07-25 12:15:26 +0000";
layers = (
{
background = {
shapes = (
{
closed = 1;
nodes = (
(360.12,0,o),
(374,85.283,o),
(374,245,cs),
(374,362,l),
(170,362,l),
(170,256,l),
(262,256,l),
(262,200,ls),
(262,135.459,o),
(255.243,106,o),
(213,106,cs),
(208,106,ls),
(154.314,108.826,o),
(135,110.003,o),
(135,165,cs),
(135,485,ls),
(135,540.365,o),
(152.356,544,o),
(199,544,cs),
(217,544,l),
(217,544,o),
(217,544,o),
(217,544,c),
(217,544,o),
(217,544,o),
(217,544,c),
(218,544,l),
(218,544,o),
(218,544,o),
(218,544,c),
(218,544,o),
(218,544,o),
(218,544,c),
(218,544,o),
(218,544,o),
(218,544,c),
(219,544,l),
(219,544,o),
(219,544,o),
(219,544,c),
(219,544,o),
(219,544,o),
(219,544,c),
(220,544,l),
(220,544,o),
(220,544,o),
(220,544,c),
(220,544,o),
(220,544,o),
(220,544,c),
(220,544,o),
(220,544,o),
(220,544,c),
(221,544,l),
(221,544,o),
(221,544,o),
(221,544,c),
(221,544,o),
(221,544,o),
(221,544,c),
(222,544,l),
(222,544,o),
(222,544,o),
(222,544,c),
(222,544,o),
(222,544,o),
(222,544,c),
(224,544,l),
(224,544,o),
(224,544,o),
(224,544,c),
(224,544,o),
(224,544,o),
(224,544,c),
(224,544,o),
(224,544,o),
(224,544,c),
(225,544,l),
(225,544,o),
(225,544,o),
(225,544,c),
(225,544,o),
(225,544,o),
(225,544,c),
(225,544,o),
(225,544,o),
(225,544,c),
(225,544,o),
(225,544,o),
(225,544,c),
(230,544,ls),
(252.245,544,o),
(252.84,536.12,o),
(257,507,cs),
(259,480,l),
(374,480,l),
(374,600.306,o),
(329.105,649,o),
(199,649,cs),
(68.771,649,o),
(24,603.797,o),
(24,485,cs),
(24,165,ls),
(24,45.075,o),
(68.843,0,o),
(199,0,cs)
);
},
{
closed = 1;
nodes = (
(161,680,l),
(200,738,l),
(242,684,l),
(346,684,l),
(286,776,l),
(115,775,l),
(57,680,l),
(57,680,l)
);
}
);
};
layerId = "27BA4E46-0A2B-46F0-A320-1D87D61B7B36";
shapes = (
{
closed = 1;
nodes = (
(360,0,o),
(374,85,o),
(374,245,cs),
(374,362,l),
(170,362,l),
(170,256,l),
(262,256,l),
(262,200,ls),
(262,135,o),
(255,106,o),
(213,106,cs),
(208,106,ls),
(154,109,o),
(135,110,o),
(135,165,cs),
(135,485,ls),
(135,540,o),
(152,544,o),
(199,544,cs),
(230,544,ls),
(252,544,o),
(253,536,o),
(257,507,cs),
(259,480,l),
(374,480,l),
(374,600,o),
(329,649,o),
(199,649,cs),
(69,649,o),
(24,604,o),
(24,485,cs),
(24,165,ls),
(24,45,o),
(69,0,o),
(199,0,cs)
);
},
{
closed = 1;
nodes = (
(161,680,l),
(200,738,l),
(242,684,l),
(346,684,l),
(286,776,l),
(115,775,l),
(57,680,l)
);
}
);
width = 402;
}
);
unicode = 284;
},
{
glyphname = Gcommaaccent;
lastChange = "2024-07-25 12:15:26 +0000";
layers = (
{
background = {
shapes = (
{
closed = 1;
nodes = (
(360.12,0,o),
(374,85.283,o),
(374,245,cs),
(374,362,l),
(170,362,l),
(170,256,l),
(262,256,l),
(262,200,ls),
(262,135.459,o),
(255.243,106,o),
(213,106,cs),
(208,106,ls),
(154.314,108.826,o),
(135,110.003,o),
(135,165,cs),
(135,485,ls),
(135,540.365,o),
(152.356,544,o),
(199,544,cs),
(217,544,l),
(217,544,o),
(217,544,o),
(217,544,c),
(217,544,o),
(217,544,o),
(217,544,c),
(218,544,l),
(218,544,o),
(218,544,o),
(218,544,c),
(218,544,o),
(218,544,o),
(218,544,c),
(218,544,o),
(218,544,o),
(218,544,c),
(219,544,l),
(219,544,o),
(219,544,o),
(219,544,c),
(219,544,o),
(219,544,o),
(219,544,c),
(220,544,l),
(220,544,o),
(220,544,o),
(220,544,c),
(220,544,o),
(220,544,o),
(220,544,c),
(220,544,o),
(220,544,o),
(220,544,c),
(221,544,l),
(221,544,o),
(221,544,o),
(221,544,c),
(221,544,o),
(221,544,o),
(221,544,c),
(222,544,l),
(222,544,o),
(222,544,o),
(222,544,c),
(222,544,o),
(222,544,o),
(222,544,c),
(224,544,l),
(224,544,o),
(224,544,o),
(224,544,c),
(224,544,o),
(224,544,o),
(224,544,c),
(224,544,o),
(224,544,o),
(224,544,c),
(225,544,l),
(225,544,o),
(225,544,o),
(225,544,c),
(225,544,o),
(225,544,o),
(225,544,c),
(225,544,o),
(225,544,o),
(225,544,c),
(225,544,o),
(225,544,o),
(225,544,c),
(230,544,ls),
(252.245,544,o),
(252.84,536.12,o),
(257,507,cs),
(259,480,l),
(374,480,l),
(374,600.306,o),
(329.105,649,o),
(199,649,cs),
(68.771,649,o),
(24,603.797,o),
(24,485,cs),
(24,165,ls),
(24,45.075,o),
(68.843,0,o),
(199,0,cs)
);
},
{
closed = 1;
nodes = (
(220,-181.333,o),
(253,-141,o),
(253,-97,cs),
(253,-93.667,o),
(252.667,-90,o),
(252,-86,cs),
(248,-50,o),
(225.333,-37,o),
(200,-37,cs),
(153.813,-37,o),
(136,-72.317,o),
(136,-89,cs),
(136,-92.333,o),
(136.333,-95.667,o),
(137,-99,cs),
(139.667,-108.333,o),
(142.667,-112.667,o),
(148,-118,c),
(148,-117,l),
(153,-125,ls),
(159.667,-135,o),
(163,-147.333,o),
(163,-162,cs),
(163,-174.667,o),
(157,-185,o),
(145,-193,c),
(176,-212,l)
);
}
);
};
layerId = "27BA4E46-0A2B-46F0-A320-1D87D61B7B36";
shapes = (
{
closed = 1;
nodes = (
(360,0,o),
(374,85,o),
(374,245,cs),
(374,362,l),
(170,362,l),
(170,256,l),
(262,256,l),
(262,200,ls),
(262,135,o),
(255,106,o),
(213,106,cs),
(208,106,ls),
(154,109,o),
(135,110,o),
(135,165,cs),
(135,485,ls),
(135,540,o),
(152,544,o),
(199,544,cs),
(230,544,ls),
(252,544,o),
(253,536,o),
(257,507,cs),
(259,480,l),
(374,480,l),
(374,600,o),
(329,649,o),
(199,649,cs),
(69,649,o),
(24,604,o),
(24,485,cs),
(24,165,ls),
(24,45,o),
(69,0,o),
(199,0,cs)
);
},
{
closed = 1;
nodes = (
(220,-181,o),
(253,-141,o),
(253,-97,cs),
(252,-86,ls),
(248,-50,o),
(225,-37,o),
(200,-37,cs),
(154,-37,o),
(136,-72,o),
(136,-89,cs),
(136,-92,o),
(136,-96,o),
(137,-99,cs),
(140,-108,o),
(143,-113,o),
(148,-118,c),
(148,-117,l),
(153,-125,ls),
(160,-135,o),
(163,-147,o),
(163,-162,cs),
(163,-175,o),
(157,-185,o),
(145,-193,c),
(176,-212,l)
);
}
);
width = 402;
}
);
unicode = 290;
},
{
glyphname = Gdotaccent;
lastChange = "2024-07-25 12:15:26 +0000";
layers = (
{
background = {
shapes = (
{
closed = 1;
nodes = (
(360.12,0,o),
(374,85.283,o),
(374,245,cs),
(374,362,l),
(170,362,l),
(170,256,l),
(262,256,l),
(262,200,ls),
(262,135.459,o),
(255.243,106,o),
(213,106,cs),
(208,106,ls),
(154.314,108.826,o),
(135,110.003,o),
(135,165,cs),
(135,485,ls),
(135,540.365,o),
(152.356,544,o),
(199,544,cs),
(217,544,l),
(217,544,o),
(217,544,o),
(217,544,c),
(217,544,o),
(217,544,o),
(217,544,c),
(218,544,l),
(218,544,o),
(218,544,o),
(218,544,c),
(218,544,o),
(218,544,o),
(218,544,c),
(218,544,o),
(218,544,o),
(218,544,c),
(219,544,l),
(219,544,o),
(219,544,o),
(219,544,c),
(219,544,o),
(219,544,o),
(219,544,c),
(220,544,l),
(220,544,o),
(220,544,o),
(220,544,c),
(220,544,o),
(220,544,o),
(220,544,c),
(220,544,o),
(220,544,o),
(220,544,c),
(221,544,l),
(221,544,o),
(221,544,o),
(221,544,c),
(221,544,o),
(221,544,o),
(221,544,c),
(222,544,l),
(222,544,o),
(222,544,o),
(222,544,c),
(222,544,o),
(222,544,o),
(222,544,c),
(224,544,l),
(224,544,o),
(224,544,o),
(224,544,c),
(224,544,o),
(224,544,o),
(224,544,c),
(224,544,o),
(224,544,o),
(224,544,c),
(225,544,l),
(225,544,o),
(225,544,o),
(225,544,c),
(225,544,o),
(225,544,o),
(225,544,c),
(225,544,o),
(225,544,o),
(225,544,c),
(225,544,o),
(225,544,o),
(225,544,c),
(230,544,ls),
(252.245,544,o),
(252.84,536.12,o),
(257,507,cs),
(259,480,l),
(374,480,l),
(374,600.306,o),
(329.105,649,o),
(199,649,cs),
(68.771,649,o),
(24,603.797,o),
(24,485,cs),
(24,165,ls),
(24,45.075,o),
(68.843,0,o),
(199,0,cs)
);
},
{
closed = 1;
nodes = (
(237.333,679,o),
(256,696.667,o),
(256,732,cs),
(256,770.667,o),
(240,786,o),
(200,786,cs),
(158.667,786,o),
(144,769.333,o),
(144,732,cs),
(144,696,o),
(160,679,o),
(200,679,cs)
);
}
);
};
layerId = "27BA4E46-0A2B-46F0-A320-1D87D61B7B36";
shapes = (
{
closed = 1;
nodes = (
(360,0,o),
(374,85,o),
(374,245,cs),
(374,362,l),
(170,362,l),
(170,256,l),
(262,256,l),
(262,200,ls),
(262,135,o),
(255,106,o),
(213,106,cs),
(208,106,ls),
(154,109,o),
(135,110,o),
(135,165,cs),
(135,485,ls),
(135,540,o),
(152,544,o),
(199,544,cs),
(230,544,ls),
(252,544,o),
(253,536,o),
(257,507,cs),
(259,480,l),
(374,480,l),
(374,600,o),
(329,649,o),
(199,649,cs),
(69,649,o),
(24,604,o),
(24,485,cs),
(24,165,ls),
(24,45,o),
(69,0,o),
(199,0,cs)
);
},
{
closed = 1;
nodes = (
(237,679,o),
(256,697,o),
(256,732,cs),
(256,771,o),
(240,786,o),
(200,786,cs),
(159,786,o),
(144,769,o),
(144,732,cs),
(144,696,o),
(160,679,o),
(200,679,cs)
);
}
);
width = 402;
}
);
unicode = 288;
},
{
glyphname = H;
lastChange = "2024-07-25 12:26:47 +0000";
layers = (
{
anchors = (
{
name = bottom;
pos = (207,0);
},
{
name = center;
pos = (207,487);
},
{
name = top;
pos = (207,650);
},
{
name = topleft;
pos = (20,650);
}
);
background = {
shapes = (
{
closed = 1;
nodes = (
(140,0,l),
(140,287,l),
(267,287,l),
(267,0,l),
(377,0,l),
(377,649,l),
(377,649,l),
(267,649,l),
(267,394,l),
(140,394,l),
(140,649,l),
(28,649,l),
(28,0,l)
);
}
);
};
layerId = "27BA4E46-0A2B-46F0-A320-1D87D61B7B36";
shapes = (
{
closed = 1;
nodes = (
(140,0,l),
(140,287,l),
(267,287,l),
(267,0,l),
(377,0,l),
(377,649,l),
(267,649,l),
(267,394,l),
(140,394,l),
(140,649,l),
(28,649,l),
(28,0,l)
);
}
);
width = 413;
}
);
unicode = 72;
},
{
glyphname = Hbar;
lastChange = "2024-07-25 10:00:52 +0000";
layers = (
{
background = {
shapes = (
{
closed = 1;
nodes = (
(169,0,l),
(169,287,l),
(296,287,l),
(296,0,l),
(406,0,l),
(406,448,l),
(435,448,l),
(435,545,l),
(406,545,l),
(406,545,l),
(406,649,l),
(296,649,l),
(296,545,l),
(169,545,l),
(169,649,l),
(57,649,l),
(57,545,l),
(26,545,l),
(26,448,l),
(57,448,l),
(57,0,l)
);
},
{
closed = 1;
nodes = (
(169,448,l),
(296,448,l),
(296,394,l),
(169,394,l),
(169,394,l)
);
}
);
};
layerId = "27BA4E46-0A2B-46F0-A320-1D87D61B7B36";
shapes = (
{
closed = 1;
nodes = (
(169,0,l),
(169,287,l),
(296,287,l),
(296,0,l),
(406,0,l),
(406,448,l),
(435,448,l),
(435,545,l),
(406,545,l),
(406,649,l),
(296,649,l),
(296,545,l),
(169,545,l),
(169,649,l),
(57,649,l),
(57,545,l),
(26,545,l),
(26,448,l),
(57,448,l),
(57,0,l)
);
},
{
closed = 1;
nodes = (
(169,448,l),
(296,448,l),
(296,394,l),
(169,394,l)
);
}
);
width = 459;
}
);
unicode = 294;
},
{
glyphname = Hcircumflex;
lastChange = "2024-07-25 10:00:52 +0000";
layers = (
{
background = {
shapes = (
{
closed = 1;
nodes = (
(140,0,l),
(140,287,l),
(267,287,l),
(267,0,l),
(377,0,l),
(377,649,l),
(377,649,l),
(267,649,l),
(267,394,l),
(140,394,l),
(140,649,l),
(28,649,l),
(28,0,l)
);
},
{
closed = 1;
nodes = (
(152,679,l),
(193,736,l),
(233,680,l),
(334,680,l),
(273,774,l),
(116,774,l),
(56,679,l),
(56,679,l)
);
}
);
};
layerId = "27BA4E46-0A2B-46F0-A320-1D87D61B7B36";
shapes = (
{
closed = 1;
nodes = (
(140,0,l),
(140,287,l),
(267,287,l),
(267,0,l),
(377,0,l),
(377,649,l),
(267,649,l),
(267,394,l),
(140,394,l),
(140,649,l),
(28,649,l),
(28,0,l)
);
},
{
closed = 1;
nodes = (
(152,679,l),
(193,736,l),
(233,680,l),
(334,680,l),
(273,774,l),
(116,774,l),
(56,679,l)
);
}
);
width = 413;
}
);
unicode = 292;
},
{
glyphname = I;
lastChange = "2024-07-25 12:26:47 +0000";
layers = (
{
anchors = (
{
name = bottom;
pos = (85,0);
},
{
name = ogonek;
pos = (152,10);
},
{
name = top;
pos = (85,650);
},
{
name = topleft;
pos = (20,650);
}
);
background = {
shapes = (
{
closed = 1;
nodes = (
(141,0,l),
(141,647,l),
(28,647,l),
(28,0,l),
(28,0,l)
);
}
);
};
layerId = "27BA4E46-0A2B-46F0-A320-1D87D61B7B36";
shapes = (
{
closed = 1;
nodes = (
(141,0,l),
(141,647,l),
(28,647,l),
(28,0,l)
);
}
);
width = 169;
}
);
unicode = 73;
},
{
glyphname = IJ;
lastChange = "2024-07-25 10:00:52 +0000";
layers = (
{
background = {
shapes = (
{
closed = 1;
nodes = (
(340.81,0,o),
(406,28.483,o),
(406,172,cs),
(406,648,l),
(294,648,l),
(294,181,ls),
(294,109.492,o),
(281.198,106,o),
(192,106,c),
(192,0,l)
);
},
{
closed = 1;
nodes = (
(152,0,l),
(152,647,l),
(39,647,l),
(39,0,l),
(39,0,l)
);
}
);
};
layerId = "27BA4E46-0A2B-46F0-A320-1D87D61B7B36";
shapes = (
{
closed = 1;
nodes = (
(341,0,o),
(406,28,o),
(406,172,cs),
(406,648,l),
(294,648,l),
(294,181,ls),
(294,109,o),
(281,106,o),
(192,106,c),
(192,0,l)
);
},
{
closed = 1;
nodes = (
(152,0,l),
(152,647,l),
(39,647,l),
(39,0,l)
);
}
);
width = 449;
}
);
unicode = 306;
},
{
glyphname = Iacute;
lastChange = "2024-07-25 10:00:52 +0000";
layers = (
{
background = {
shapes = (
{
closed = 1;
nodes = (
(141,0,l),
(141,647,l),
(28,647,l),
(28,0,l),
(28,0,l)
);
},
{
closed = 1;
nodes = (
(56.167,681,o),
(67,681.333,o),
(79,682,cs),
(93,682,o),
(109,682.333,o),
(127,683,c),
(181,764,l),
(84,764,l),
(58,724,ls),
(51.333,714,o),
(45.333,704.667,o),
(40,696,cs),
(34.667,687.333,o),
(32,682.667,o),
(32,682,cs),
(32,681.333,o),
(36.833,681,o),
(46.5,681,cs)
);
}
);
};
layerId = "27BA4E46-0A2B-46F0-A320-1D87D61B7B36";
shapes = (
{
closed = 1;
nodes = (
(141,0,l),
(141,647,l),
(28,647,l),
(28,0,l)
);
},
{
closed = 1;
nodes = (
(79,682,l),
(127,683,l),
(181,764,l),
(84,764,l),
(58,724,l),
(40,696,l),
(32,682,l),
(32,681,o),
(37,681,o),
(47,681,cs)
);
}
);
width = 169;
}
);
unicode = 205;
},
{
glyphname = Ibreve;
lastChange = "2024-07-25 10:00:52 +0000";
layers = (
{
background = {
shapes = (
{
closed = 1;
nodes = (
(164,0,l),
(164,647,l),
(51,647,l),
(51,0,l),
(51,0,l)
);
},
{
closed = 1;
nodes = (
(183,679,o),
(220.333,708.333,o),
(223,783,c),
(158,783,l),
(152.667,744.333,o),
(136.333,742,o),
(107,742,cs),
(79,742,o),
(64.333,744.333,o),
(59,783,c),
(-6,783,l),
(-3.333,708.333,o),
(31,679,o),
(107,679,cs)
);
}
);
};
layerId = "27BA4E46-0A2B-46F0-A320-1D87D61B7B36";
shapes = (
{
closed = 1;
nodes = (
(164,0,l),
(164,647,l),
(51,647,l),
(51,0,l)
);
},
{
closed = 1;
nodes = (
(183,679,o),
(220,708,o),
(223,783,c),
(158,783,l),
(153,744,o),
(136,742,o),
(107,742,cs),
(79,742,o),
(64,744,o),
(59,783,c),
(-6,783,l),
(-3,708,o),
(31,679,o),
(107,679,cs)
);
}
);
width = 210;
}
);
unicode = 300;
},
{
glyphname = Icircumflex;
lastChange = "2024-07-25 10:00:52 +0000";
layers = (
{
background = {
shapes = (
{
closed = 1;
nodes = (
(141,0,l),
(141,647,l),
(28,647,l),
(28,0,l),
(28,0,l)
);
},
{
closed = 1;
nodes = (
(48,678,l),
(87,736,l),
(129,682,l),
(233,682,l),
(173,774,l),
(2,772,l),
(-56,678,l),
(-56,678,l)
);
}
);
};
layerId = "27BA4E46-0A2B-46F0-A320-1D87D61B7B36";
shapes = (
{
closed = 1;
nodes = (
(141,0,l),
(141,647,l),
(28,647,l),
(28,0,l)
);
},
{
closed = 1;
nodes = (
(48,678,l),
(87,736,l),
(129,682,l),
(233,682,l),
(173,774,l),
(2,772,l),
(-56,678,l)
);
}
);
width = 169;
}
);
unicode = 206;
},
{
glyphname = Idieresis;
lastChange = "2024-07-25 12:15:26 +0000";
layers = (
{
background = {
shapes = (
{
closed = 1;
nodes = (
(141,0,l),
(141,647,l),
(28,647,l),
(28,0,l),
(28,0,l)
);
},
{
closed = 1;
nodes = (
(-11.833,681,o),
(-1,681.333,o),
(11,682,cs),
(25,682,o),
(41,682.333,o),
(59,683,c),
(60,764,l),
(-36,764,l),
(-36,682,ls),
(-36,681.333,o),
(-31.167,681,o),
(-21.5,681,cs)
);
},
{
closed = 1;
nodes = (
(129,684,l),
(129,684,o),
(129,684,o),
(129,684,c),
(129.667,684,o),
(130,684,o),
(130,684,c),
(130,684,o),
(130,684,o),
(130,684,c),
(130,684,o),
(130,684,o),
(130,684,c),
(130,684,o),
(130,684,o),
(130,684,c),
(130,684,o),
(130,684,o),
(130,684,c),
(141,684,l),
(141,684,o),
(141,684,o),
(141,684,c),
(141.667,684,o),
(142,684,o),
(142,684,c),
(142,684,o),
(142,684,o),
(142,684,c),
(142,684,o),
(142,684,o),
(142,684,c),
(142,684,o),
(142,684,o),
(142,684,c),
(142,684,o),
(142,684,o),
(142,684,c),
(142,684,o),
(142,684,o),
(142,684,c),
(142,684,o),
(142,684,o),
(142,684,c),
(142,684,o),
(142,684,o),
(142,684,c),
(145,684,l),
(145,684,o),
(145,684,o),
(145,684,c),
(145.667,684,o),
(146,684,o),
(146,684,c),
(146,684,o),
(146,684,o),
(146,684,c),
(146,684,o),
(146,684,o),
(146,684,c),
(146,684,o),
(146,684,o),
(146,684,c),
(146,684,o),
(146,684,o),
(146,684,c),
(146,684,o),
(146,684,o),
(146,684,c),
(146,684,o),
(146,684,o),
(146,684,c),
(147,684,l),
(147,684,o),
(147,684,o),
(147,684,c),
(147,684,o),
(147,684,o),
(147,684,c),
(147,684,o),
(147,684,o),
(147,684,c),
(147.667,684,o),
(148,684,o),
(148,684,c),
(148,684,o),
(148,684,o),
(148,684,c),
(148,684,o),
(148,684,o),
(148,684,c),
(148,684,o),
(148,684,o),
(148,684,c),
(148,684,o),
(148,684,o),
(148,684,c),
(149,684,l),
(149,684,o),
(149,684,o),
(149,684,c),
(149,684,o),
(149,684,o),
(149,684,c),
(149,684,o),
(149,684,o),
(149,684,c),
(149,684,o),
(149,684,o),
(149,684,c),
(149.667,684,o),
(150,684,o),
(150,684,c),
(150,684,o),
(150,684,o),
(150,684,c),
(150,684,o),
(150,684,o),
(150,684,c),
(150,684,o),
(150,684,o),
(150,684,c),
(150,684,o),
(150,684,o),
(150,684,c),
(150,684,o),
(150,684,o),
(150,684,c),
(150,684,o),
(150,684,o),
(150,684,c),
(150,684,o),
(150,684,o),
(150,684,c),
(151,684,l),
(151,684,o),
(151,684,o),
(151,684,c),
(151,684,o),
(151,684,o),
(151,684,c),
(151,684,o),
(151,684,o),
(151,684,c),
(151.667,684,o),
(152,684,o),
(152,684,c),
(152,684,o),
(152,684,o),
(152,684,c),
(152,684,o),
(152,684,o),
(152,684,c),
(152,684,o),
(152,684,o),
(152,684,c),
(152,684,o),
(152,684,o),
(152,684,c),
(153,684,l),
(153,684,o),
(153,684,o),
(153,684,c),
(153.667,684,o),
(154,684,o),
(154,684,c),
(154,684,o),
(154,684,o),
(154,684,c),
(154,684,o),
(154,684,o),
(154,684,c),
(154,684,o),
(154,684,o),
(154,684,c),
(154,684,o),
(154,684,o),
(154,684,c),
(154,684,o),
(154,684,o),
(154,684,c),
(154.667,684,o),
(155,684,o),
(155,684,c),
(155,684,o),
(155,684,o),
(155,684,c),
(155,684,o),
(155,684,o),
(155,684,c),
(155,684,o),
(155,684,o),
(155,684,c),
(155,684,o),
(155,684,o),
(155,684,c),
(155,684,o),
(155,684,o),
(155,684,c),
(158,684,ls),
(172,684,o),
(188,684.333,o),
(206,685,c),
(207,766,l),
(111,766,l),
(111,685,ls),
(111,684.333,o),
(116,684,o),
(126,684,cs)
);
}
);
};
layerId = "27BA4E46-0A2B-46F0-A320-1D87D61B7B36";
shapes = (
{
closed = 1;
nodes = (
(141,0,l),
(141,647,l),
(28,647,l),
(28,0,l)
);
},
{
closed = 1;
nodes = (
(11,682,l),
(59,683,l),
(60,764,l),
(-36,764,l),
(-36,682,ls),
(-36,681,o),
(-31,681,o),
(-21,681,cs)
);
},
{
closed = 1;
nodes = (
(158,684,l),
(206,685,l),
(207,766,l),
(111,766,l),
(111,685,ls),
(111,684,o),
(116,684,o),
(126,684,cs)
);
}
);
width = 169;
}
);
unicode = 207;
},
{
glyphname = Igrave;
lastChange = "2024-07-25 10:00:52 +0000";
layers = (
{
background = {
shapes = (
{
closed = 1;
nodes = (
(141,0,l),
(141,647,l),
(28,647,l),
(28,0,l),
(28,0,l)
);
},
{
closed = 1;
nodes = (
(77.167,681,o),
(88,681.333,o),
(100,682,cs),
(114,682,o),
(130,682.333,o),
(148,683,c),
(88,764,l),
(-9,764,l),
(2.333,749.333,o),
(12.667,736,o),
(22,724,cs),
(29.333,714,o),
(36.333,704.667,o),
(43,696,cs),
(49.667,687.333,o),
(53,682.667,o),
(53,682,cs),
(53,681.333,o),
(57.833,681,o),
(67.5,681,cs)
);
}
);
};
layerId = "27BA4E46-0A2B-46F0-A320-1D87D61B7B36";
shapes = (
{
closed = 1;
nodes = (
(141,0,l),
(141,647,l),
(28,647,l),
(28,0,l)
);
},
{
closed = 1;
nodes = (
(100,682,l),
(148,683,l),
(88,764,l),
(-9,764,l),
(22,724,l),
(43,696,l),
(53,682,l),
(53,681,o),
(58,681,o),
(68,681,cs)
);
}
);
width = 169;
}
);
unicode = 204;
},
{
glyphname = Imacron;
lastChange = "2024-07-25 12:15:26 +0000";
layers = (
{
background = {
shapes = (
{
closed = 1;
nodes = (
(163,0,l),
(163,647,l),
(50,647,l),
(50,0,l),
(50,0,l)
);
},
{
closed = 1;
nodes = (
(41,684,l),
(41,684,o),
(41,684,o),
(41,684,c),
(41,684,o),
(41,684,o),
(41,684,c),
(42,684,l),
(42,684,o),
(42,684,o),
(42,684,c),
(42,684,o),
(42,684,o),
(42,684,c),
(42,684,o),
(42,684,o),
(42,684,c),
(42,684,o),
(42,684,o),
(42,684,c),
(42.667,684,o),
(43,684,o),
(43,684,c),
(43,684,o),
(43,684,o),
(43,684,c),
(43,684,o),
(43,684,o),
(43,684,c),
(43,684,o),
(43,684,o),
(43,684,c),
(43,684,o),
(43,684,o),
(43,684,c),
(43,684,o),
(43,684,o),
(43,684,c),
(43,684,o),
(43,684,o),
(43,684,c),
(54,684,l),
(54,684,o),
(54,684,o),
(54,684,c),
(54,684,o),
(54,684,o),
(54,684,c),
(54,684,o),
(54,684,o),
(54,684,c),
(54,684,o),
(54,684,o),
(54,684,c),
(54.667,684,o),
(55,684,o),
(55,684,c),
(55,684,o),
(55,684,o),
(55,684,c),
(55,684,o),
(55,684,o),
(55,684,c),
(55,684,o),
(55,684,o),
(55,684,c),
(55,684,o),
(55,684,o),
(55,684,c),
(55,684,o),
(55,684,o),
(55,684,c),
(55,684,o),
(55,684,o),
(55,684,c),
(58,684,l),
(58,684,o),
(58,684,o),
(58,684,c),
(58.667,684,o),
(59,684,o),
(59,684,c),
(59,684,o),
(59,684,o),
(59,684,c),
(59,684,o),
(59,684,o),
(59,684,c),
(59,684,o),
(59,684,o),
(59,684,c),
(59,684,o),
(59,684,o),
(59,684,c),
(59,684,o),
(59,684,o),
(59,684,c),
(60,684,l),
(60,684,o),
(60,684,o),
(60,684,c),
(60,684,o),
(60,684,o),
(60,684,c),
(60.667,684,o),
(61,684,o),
(61,684,c),
(61,684,o),
(61,684,o),
(61,684,c),
(61,684,o),
(61,684,o),
(61,684,c),
(61,684,o),
(61,684,o),
(61,684,c),
(61,684,o),
(61,684,o),
(61,684,c),
(61,684,o),
(61,684,o),
(61,684,c),
(61,684,o),
(61,684,o),
(61,684,c),
(61,684,o),
(61,684,o),
(61,684,c),
(62,684,l),
(62,684,o),
(62,684,o),
(62,684,c),
(62,684,o),
(62,684,o),
(62,684,c),
(62.667,684,o),
(63,684,o),
(63,684,c),
(63,684,o),
(63,684,o),
(63,684,c),
(63,684,o),
(63,684,o),
(63,684,c),
(63,684,o),
(63,684,o),
(63,684,c),
(63,684,o),
(63,684,o),
(63,684,c),
(63,684,o),
(63,684,o),
(63,684,c),
(63,684,o),
(63,684,o),
(63,684,c),
(63,684,o),
(63,684,o),
(63,684,c),
(64,684,l),
(64,684,o),
(64,684,o),
(64,684,c),
(64.667,684,o),
(65,684,o),
(65,684,c),
(65,684,o),
(65,684,o),
(65,684,c),
(65,684,o),
(65,684,o),
(65,684,c),
(65,684,o),
(65,684,o),
(65,684,c),
(65,684,o),
(65,684,o),
(65,684,c),
(66,684,l),
(66,684,o),
(66,684,o),
(66,684,c),
(66,684,o),
(66,684,o),
(66,684,c),
(66,684,o),
(66,684,o),
(66,684,c),
(66.667,684,o),
(67,684,o),
(67,684,c),
(67,684,o),
(67,684,o),
(67,684,c),
(67,684,o),
(67,684,o),
(67,684,c),
(67,684,o),
(67,684,o),
(67,684,c),
(67,684,o),
(67,684,o),
(67,684,c),
(67,684,o),
(67,684,o),
(67,684,c),
(67,684,o),
(67,684,o),
(67,684,c),
(67,684,o),
(67,684,o),
(67,684,c),
(73,684,l),
(73,684,o),
(73,684,o),
(73,684,c),
(73,684,o),
(73,684,o),
(73,684,c),
(74,684,l),
(74,684,o),
(74,684,o),
(74,684,c),
(74.667,684,o),
(75,684,o),
(75,684,c),
(75,684,o),
(75,684,o),
(75,684,c),
(75,684,o),
(75,684,o),
(75,684,c),
(75,684,o),
(75,684,o),
(75,684,c),
(75,684,o),
(75,684,o),
(75,684,c),
(75,684,o),
(75,684,o),
(75,684,c),
(75,684,o),
(75,684,o),
(75,684,c),
(75,684,o),
(75,684,o),
(75,684,c),
(89,684,l),
(89,684,o),
(89,684,o),
(89,684,c),
(89,684,o),
(89,684,o),
(89,684,c),
(89,684,o),
(89,684,o),
(89,684,c),
(89,684,o),
(89,684,o),
(89,684,c),
(89.667,684,o),
(90,684,o),
(90,684,c),
(90,684,o),
(90,684,o),
(90,684,c),
(90,684,o),
(90,684,o),
(90,684,c),
(90,684,o),
(90,684,o),
(90,684,c),
(90,684,o),
(90,684,o),
(90,684,c),
(90,684,o),
(90,684,o),
(90,684,c),
(90,684,o),
(90,684,o),
(90,684,c),
(90,684,o),
(90,684,o),
(90,684,c),
(93,684,l),
(93,684,o),
(93,684,o),
(93,684,c),
(93,684,o),
(93,684,o),
(93,684,c),
(93,684,o),
(93,684,o),
(93,684,c),
(93,684,o),
(93,684,o),
(93,684,c),
(93.667,684,o),
(94,684,o),
(94,684,c),
(94,684,o),
(94,684,o),
(94,684,c),
(94,684,o),
(94,684,o),
(94,684,c),
(94,684,o),
(94,684,o),
(94,684,c),
(94,684,o),
(94,684,o),
(94,684,c),
(94,684,o),
(94,684,o),
(94,684,c),
(94,684,o),
(94,684,o),
(94,684,c),
(94,684,o),
(94,684,o),
(94,684,c),
(95,684,l),
(95,684,o),
(95,684,o),
(95,684,c),
(95,684,o),
(95,684,o),
(95,684,c),
(96,684,l),
(96,684,o),
(96,684,o),
(96,684,c),
(96,684,o),
(96,684,o),
(96,684,c),
(96,684,o),
(96,684,o),
(96,684,c),
(96.667,684,o),
(97,684,o),
(97,684,c),
(97,684,o),
(97,684,o),
(97,684,c),
(97,684,o),
(97,684,o),
(97,684,c),
(97,684,o),
(97,684,o),
(97,684,c),
(97,684,o),
(97,684,o),
(97,684,c),
(97,684,o),
(97,684,o),
(97,684,c),
(97,684,o),
(97,684,o),
(97,684,c),
(97,684,o),
(97,684,o),
(97,684,c),
(98,684,l),
(98,684,o),
(98,684,o),
(98,684,c),
(98,684,o),
(98,684,o),
(98,684,c),
(98,684,o),
(98,684,o),
(98,684,c),
(98.667,684,o),
(99,684,o),
(99,684,c),
(99,684,o),
(99,684,o),
(99,684,c),
(99,684,o),
(99,684,o),
(99,684,c),
(99,684,o),
(99,684,o),
(99,684,c),
(99,684,o),
(99,684,o),
(99,684,c),
(100,684,l),
(100,684,o),
(100,684,o),
(100,684,c),
(100,684,o),
(100,684,o),
(100,684,c),
(100,684,o),
(100,684,o),
(100,684,c),
(100,684,o),
(100,684,o),
(100,684,c),
(100.667,684,o),
(101,684,o),
(101,684,c),
(101,684,o),
(101,684,o),
(101,684,c),
(101,684,o),
(101,684,o),
(101,684,c),
(101,684,o),
(101,684,o),
(101,684,c),
(101,684,o),
(101,684,o),
(101,684,c),
(101,684,o),
(101,684,o),
(101,684,c),
(101,684,o),
(101,684,o),
(101,684,c),
(101,684,o),
(101,684,o),
(101,684,c),
(102,684,l),
(102,684,o),
(102,684,o),
(102,684,c),
(102,684,o),
(102,684,o),
(102,684,c),
(102,684,o),
(102,684,o),
(102,684,c),
(102.667,684,o),
(103,684,o),
(103,684,c),
(103,684,o),
(103,684,o),
(103,684,c),
(103,684,o),
(103,684,o),
(103,684,c),
(103,684,o),
(103,684,o),
(103,684,c),
(103,684,o),
(103,684,o),
(103,684,c),
(103,684,o),
(103,684,o),
(103,684,c),
(103,684,o),
(103,684,o),
(103,684,c),
(103,684,o),
(103,684,o),
(103,684,c),
(103.667,684,o),
(104,684,o),
(104,684,c),
(104,684,o),
(104,684,o),
(104,684,c),
(104,684,o),
(104,684,o),
(104,684,c),
(104,684,o),
(104,684,o),
(104,684,c),
(104,684,o),
(104,684,o),
(104,684,c),
(104,684,o),
(104,684,o),
(104,684,c),
(104,684,o),
(104,684,o),
(104,684,c),
(107,684,ls),
(136.333,684,o),
(169.667,684.333,o),
(207,685,c),
(208,766,l),
(8,766,l),
(8,685,l),
(8,685,o),
(10.833,684.833,o),
(16.5,684.5,cs),
(22.167,684.167,o),
(29.667,684,o),
(39,684,cs)
);
}
);
};
layerId = "27BA4E46-0A2B-46F0-A320-1D87D61B7B36";
shapes = (
{
closed = 1;
nodes = (
(163,0,l),
(163,647,l),
(50,647,l),
(50,0,l)
);
},
{
closed = 1;
nodes = (
(107,684,l),
(207,685,l),
(208,766,l),
(8,766,l),
(8,685,l),
(17,685,l),
(39,684,l)
);
}
);
width = 216;
}
);
unicode = 298;
},
{
glyphname = Iogonek;
lastChange = "2024-07-25 10:00:52 +0000";
layers = (
{
background = {
shapes = (
{
closed = 1;
nodes = (
(118.333,-135,o),
(131,-134.333,o),
(145,-133,c),
(151,-109,l),
(144.333,-110.333,o),
(139.333,-111,o),
(134,-111,cs),
(122,-111,o),
(111.333,-106.333,o),
(102,-97,cs),
(93.333,-88.333,o),
(89,-78.333,o),
(89,-67,cs),
(89,-59.667,o),
(91.667,-52.667,o),
(97,-46,cs),
(103,-40,o),
(110.333,-37,o),
(119,-37,cs),
(120.333,-37,o),
(121.667,-37.167,o),
(123,-37.5,cs),
(124.333,-37.833,o),
(126,-38,o),
(128,-38,c),
(106,0,l),
(142,0,l),
(142,647,l),
(29,647,l),
(29,0,l),
(65,0,l),
(52.333,-4,o),
(42.333,-10.667,o),
(35,-20,cs),
(27,-30,o),
(23,-42.333,o),
(23,-57,cs),
(23,-75.667,o),
(30.333,-98.333,o),
(45,-113,cs),
(71.667,-139.667,o),
(95,-135,o),
(107,-135,cs)
);
}
);
};
layerId = "27BA4E46-0A2B-46F0-A320-1D87D61B7B36";
shapes = (
{
closed = 1;
nodes = (
(145,-133,l),
(151,-109,l),
(144,-110,o),
(139,-111,o),
(134,-111,cs),
(122,-111,o),
(111,-106,o),
(102,-97,cs),
(93,-88,o),
(89,-78,o),
(89,-67,cs),
(89,-60,o),
(92,-53,o),
(97,-46,cs),
(103,-40,o),
(110,-37,o),
(119,-37,cs),
(123,-37,l),
(128,-38,l),
(106,0,l),
(142,0,l),
(142,647,l),
(29,647,l),
(29,0,l),
(65,0,l),
(52,-4,o),
(42,-11,o),
(35,-20,cs),
(27,-30,o),
(23,-42,o),
(23,-57,cs),
(23,-76,o),
(30,-98,o),
(45,-113,cs),
(72,-140,o),
(95,-135,o),
(107,-135,cs)
);
}
);
width = 169;
}
);
unicode = 302;
},
{
glyphname = Itilde;
lastChange = "2024-07-25 12:15:26 +0000";
layers = (
{
background = {
shapes = (
{
closed = 1;
nodes = (
(171,0,l),
(171,647,l),
(58,647,l),
(58,0,l),
(58,0,l)
);
},
{
closed = 1;
nodes = (
(39,687,l),
(39,687,o),
(39,687,o),
(39,687,c),
(43,691,ls),
(45.667,693.667,o),
(49.333,696.667,o),
(54,700,cs),
(62,704,o),
(71.333,708,o),
(82,708,cs),
(90,708,o),
(97,704,o),
(105,700,c),
(133.667,680.667,o),
(160.333,671,o),
(185,671,cs),
(192,671,l),
(192,671,o),
(192,671,o),
(192,671,c),
(192,671,o),
(192,671,o),
(192,671,c),
(193,671,l),
(193,671,o),
(193,671,o),
(193,671,c),
(193,671,o),
(193,671,o),
(193,671,c),
(194,671,l),
(194,671,o),
(194,671,o),
(194,671,c),
(194,671,o),
(194,671,o),
(194,671,c),
(194,671,o),
(194,671,o),
(194,671,c),
(197.333,671,o),
(200.667,671.333,o),
(204,672,cs),
(228,678,o),
(250.333,693.333,o),
(271,718,cs),
(275,723,l),
(229,767,l),
(229,767,l),
(226,762,ls),
(216,748.667,o),
(205,740.333,o),
(193,737,cs),
(190.333,736.333,o),
(187.667,736,o),
(185,736,cs),
(171.667,736,o),
(155.667,742.333,o),
(137,755,cs),
(119,767,o),
(100.667,773,o),
(82,773,cs),
(62,773,o),
(43,767,o),
(25,755,cs),
(11.667,747.667,o),
(1.167,739.5,o),
(-6.5,730.5,cs),
(-14.167,721.5,o),
(-18.667,716.333,o),
(-20,715,c),
(-23,709,l),
(22,669,l)
);
}
);
};
layerId = "27BA4E46-0A2B-46F0-A320-1D87D61B7B36";
shapes = (
{
closed = 1;
nodes = (
(171,0,l),
(171,647,l),
(58,647,l),
(58,0,l)
);
},
{
closed = 1;
nodes = (
(39,687,l),
(43,691,l),
(54,700,l),
(62,704,o),
(71,708,o),
(82,708,cs),
(90,708,o),
(97,704,o),
(105,700,c),
(134,681,o),
(160,671,o),
(185,671,cs),
(194,671,ls),
(197,671,o),
(201,671,o),
(204,672,cs),
(228,678,o),
(250,693,o),
(271,718,cs),
(275,723,l),
(229,767,l),
(226,762,ls),
(216,749,o),
(205,740,o),
(193,737,cs),
(190,736,o),
(188,736,o),
(185,736,cs),
(172,736,o),
(156,742,o),
(137,755,cs),
(119,767,o),
(101,773,o),
(82,773,cs),
(62,773,o),
(43,767,o),
(25,755,cs),
(12,748,o),
(1,740,o),
(-6,731,cs),
(-20,715,l),
(-23,709,l),
(22,669,l)
);
}
);
width = 236;
}
);
unicode = 296;
},
{
glyphname = J;
lastChange = "2024-07-25 12:26:47 +0000";
layers = (
{
anchors = (
{
name = bottom;
pos = (134,0);
},
{
name = top;
pos = (134,650);
}
);
background = {
shapes = (
{
closed = 1;
nodes = (
(165.81,0,o),
(231,28.483,o),
(231,172,cs),
(231,648,l),
(119,648,l),
(119,181,ls),
(119,109.492,o),
(106.198,106,o),
(17,106,c),
(17,0,l)
);
}
);
};
layerId = "27BA4E46-0A2B-46F0-A320-1D87D61B7B36";
shapes = (
{
closed = 1;
nodes = (
(166,0,o),
(231,28,o),
(231,172,cs),
(231,648,l),
(119,648,l),
(119,181,ls),
(119,109,o),
(106,106,o),
(17,106,c),
(17,0,l)
);
}
);
width = 268;
}
);
unicode = 74;
},
{
glyphname = Jcircumflex;
lastChange = "2024-07-25 10:00:52 +0000";
layers = (
{
background = {
shapes = (
{
closed = 1;
nodes = (
(165.81,0,o),
(231,28.483,o),
(231,172,cs),
(231,648,l),
(119,648,l),
(119,181,ls),
(119,109.492,o),
(106.198,106,o),
(17,106,c),
(17,0,l)
);
},
{
closed = 1;
nodes = (
(128,679,l),
(167,736,l),
(209,680,l),
(301,680,l),
(240,774,l),
(95,774,l),
(34,679,l),
(34,679,l)
);
}
);
};
layerId = "27BA4E46-0A2B-46F0-A320-1D87D61B7B36";
shapes = (
{
closed = 1;
nodes = (
(166,0,o),
(231,28,o),
(231,172,cs),
(231,648,l),
(119,648,l),
(119,181,ls),
(119,109,o),
(106,106,o),
(17,106,c),
(17,0,l)
);
},
{
closed = 1;
nodes = (
(128,679,l),
(167,736,l),
(209,680,l),
(301,680,l),
(240,774,l),
(95,774,l),
(34,679,l)
);
}
);
width = 282;
}
);
unicode = 308;
},
{
glyphname = K;
lastChange = "2024-07-25 12:26:47 +0000";
layers = (
{
anchors = (
{
name = bottom;
pos = (202,0);
},
{
name = top;
pos = (202,650);
}
);
background = {
shapes = (
{
closed = 1;
nodes = (
(143,0,l),
(143,252,l),
(219.608,198.374,o),
(254.858,88.781,o),
(271,0,c),
(382,0,l),
(362.95,122.465,o),
(324.461,242.506,o),
(226,325,c),
(326.456,406.451,o),
(363.504,532.742,o),
(382,649,c),
(271,649,l),
(253.214,551.177,o),
(220.367,452.157,o),
(143,398,c),
(143,649,l),
(31,649,l),
(31,0,l)
);
}
);
};
layerId = "27BA4E46-0A2B-46F0-A320-1D87D61B7B36";
shapes = (
{
closed = 1;
nodes = (
(143,0,l),
(143,252,l),
(220,198,o),
(255,89,o),
(271,0,c),
(382,0,l),
(363,122,o),
(324,243,o),
(226,325,c),
(326,406,o),
(364,533,o),
(382,649,c),
(271,649,l),
(253,551,o),
(220,452,o),
(143,398,c),
(143,649,l),
(31,649,l),
(31,0,l)
);
}
);
width = 403;
}
);
unicode = 75;
},
{
glyphname = Kcommaaccent;
lastChange = "2024-07-25 10:00:52 +0000";
layers = (
{
background = {
shapes = (
{
closed = 1;
nodes = (
(143,0,l),
(143,252,l),
(219.608,198.374,o),
(254.858,88.781,o),
(271,0,c),
(382,0,l),
(362.95,122.465,o),
(324.461,242.506,o),
(226,325,c),
(326.456,406.451,o),
(363.504,532.742,o),
(382,649,c),
(271,649,l),
(253.214,551.177,o),
(220.367,452.157,o),
(143,398,c),
(143,649,l),
(31,649,l),
(31,0,l)
);
},
{
closed = 1;
nodes = (
(220,-181.333,o),
(253,-141,o),
(253,-97,cs),
(253,-93.667,o),
(252.667,-90,o),
(252,-86,cs),
(248,-50,o),
(225.333,-37,o),
(200,-37,cs),
(153.813,-37,o),
(136,-72.317,o),
(136,-89,cs),
(136,-92.333,o),
(136.333,-95.667,o),
(137,-99,cs),
(139.667,-108.333,o),
(142.667,-112.667,o),
(148,-118,c),
(148,-117,l),
(153,-125,ls),
(159.667,-135,o),
(163,-147.333,o),
(163,-162,cs),
(163,-174.667,o),
(157,-185,o),
(145,-193,c),
(176,-212,l)
);
}
);
};
layerId = "27BA4E46-0A2B-46F0-A320-1D87D61B7B36";
shapes = (
{
closed = 1;
nodes = (
(143,0,l),
(143,252,l),
(220,198,o),
(255,89,o),
(271,0,c),
(382,0,l),
(363,122,o),
(324,243,o),
(226,325,c),
(326,406,o),
(364,533,o),
(382,649,c),
(271,649,l),
(253,551,o),
(220,452,o),
(143,398,c),
(143,649,l),
(31,649,l),
(31,0,l)
);
},
{
closed = 1;
nodes = (
(220,-181,o),
(253,-141,o),
(253,-97,cs),
(252,-86,ls),
(248,-50,o),
(225,-37,o),
(200,-37,cs),
(154,-37,o),
(136,-72,o),
(136,-89,cs),
(136,-92,o),
(136,-96,o),
(137,-99,cs),
(140,-108,o),
(143,-113,o),
(148,-118,c),
(148,-117,l),
(153,-125,ls),
(160,-135,o),
(163,-147,o),
(163,-162,cs),
(163,-175,o),
(157,-185,o),
(145,-193,c),
(176,-212,l)
);
}
);
width = 403;
}
);
unicode = 310;
},
{
glyphname = L;
lastChange = "2024-07-25 12:26:47 +0000";
layers = (
{
anchors = (
{
name = bottom;
pos = (159,0);
},
{
name = center;
pos = (159,325);
},
{
name = top;
pos = (159,650);
},
{
name = topright;
pos = (297,650);
}
);
background = {
shapes = (
{
closed = 1;
nodes = (
(307,0,l),
(307,106,l),
(307,106,l),
(145,106,l),
(145,649,l),
(32,649,l),
(32,0,l)
);
}
);
};
layerId = "27BA4E46-0A2B-46F0-A320-1D87D61B7B36";
shapes = (
{
closed = 1;
nodes = (
(307,0,l),
(307,106,l),
(145,106,l),
(145,649,l),
(32,649,l),
(32,0,l)
);
}
);
width = 317;
}
);
unicode = 76;
},
{
glyphname = Lacute;
lastChange = "2024-07-25 10:00:52 +0000";
layers = (
{
background = {
shapes = (
{
closed = 1;
nodes = (
(307,0,l),
(307,106,l),
(307,106,l),
(145,106,l),
(145,649,l),
(32,649,l),
(32,0,l)
);
},
{
closed = 1;
nodes = (
(65.167,681,o),
(76,681.333,o),
(88,682,cs),
(102,682,o),
(118,682.333,o),
(136,683,c),
(190,764,l),
(93,764,l),
(67,724,ls),
(60.333,714,o),
(54.333,704.667,o),
(49,696,cs),
(43.667,687.333,o),
(41,682.667,o),
(41,682,cs),
(41,681.333,o),
(45.833,681,o),
(55.5,681,cs)
);
}
);
};
layerId = "27BA4E46-0A2B-46F0-A320-1D87D61B7B36";
shapes = (
{
closed = 1;
nodes = (
(307,0,l),
(307,106,l),
(145,106,l),
(145,649,l),
(32,649,l),
(32,0,l)
);
},
{
closed = 1;
nodes = (
(88,682,l),
(136,683,l),
(190,764,l),
(93,764,l),
(67,724,l),
(49,696,l),
(41,682,l),
(41,681,o),
(46,681,o),
(56,681,cs)
);
}
);
width = 317;
}
);
unicode = 313;
},
{
glyphname = Lcaron;
lastChange = "2024-07-25 10:00:52 +0000";
layers = (
{
background = {
shapes = (
{
closed = 1;
nodes = (
(307,0,l),
(307,106,l),
(307,106,l),
(145,106,l),
(145,649,l),
(32,649,l),
(32,0,l)
);
},
{
closed = 1;
nodes = (
(255,502.667,o),
(288,543,o),
(288,587,cs),
(288,590.333,o),
(287.667,594,o),
(287,598,cs),
(283,634,o),
(260.333,647,o),
(235,647,cs),
(188.813,647,o),
(171,611.683,o),
(171,595,cs),
(171,591.667,o),
(171.333,588.333,o),
(172,585,cs),
(174.667,575.667,o),
(177.667,571.333,o),
(183,566,c),
(183,567,l),
(188,559,ls),
(194.667,549,o),
(198,536.667,o),
(198,522,cs),
(198,509.333,o),
(192,499,o),
(180,491,c),
(211,472,l)
);
}
);
};
layerId = "27BA4E46-0A2B-46F0-A320-1D87D61B7B36";
shapes = (
{
closed = 1;
nodes = (
(307,0,l),
(307,106,l),
(145,106,l),
(145,649,l),
(32,649,l),
(32,0,l)
);
},
{
closed = 1;
nodes = (
(255,503,o),
(288,543,o),
(288,587,cs),
(287,598,ls),
(283,634,o),
(260,647,o),
(235,647,cs),
(189,647,o),
(171,612,o),
(171,595,cs),
(171,592,o),
(171,588,o),
(172,585,cs),
(175,576,o),
(178,571,o),
(183,566,c),
(183,567,l),
(188,559,ls),
(195,549,o),
(198,537,o),
(198,522,cs),
(198,509,o),
(192,499,o),
(180,491,c),
(211,472,l)
);
}
);
width = 317;
}
);
unicode = 317;
},
{
glyphname = Lcommaaccent;
lastChange = "2024-07-25 10:00:52 +0000";
layers = (
{
background = {
shapes = (
{
closed = 1;
nodes = (
(307,0,l),
(307,106,l),
(307,106,l),
(145,106,l),
(145,649,l),
(32,649,l),
(32,0,l)
);
},
{
closed = 1;
nodes = (
(197,-181.333,o),
(230,-141,o),
(230,-97,cs),
(230,-93.667,o),
(229.667,-90,o),
(229,-86,cs),
(225,-50,o),
(202.333,-37,o),
(177,-37,cs),
(130.813,-37,o),
(113,-72.317,o),
(113,-89,cs),
(113,-92.333,o),
(113.333,-95.667,o),
(114,-99,cs),
(116.667,-108.333,o),
(119.667,-112.667,o),
(125,-118,c),
(125,-117,l),
(130,-125,ls),
(136.667,-135,o),
(140,-147.333,o),
(140,-162,cs),
(140,-174.667,o),
(134,-185,o),
(122,-193,c),
(153,-212,l)
);
}
);
};
layerId = "27BA4E46-0A2B-46F0-A320-1D87D61B7B36";
shapes = (
{
closed = 1;
nodes = (
(307,0,l),
(307,106,l),
(145,106,l),
(145,649,l),
(32,649,l),
(32,0,l)
);
},
{
closed = 1;
nodes = (
(197,-181,o),
(230,-141,o),
(230,-97,cs),
(229,-86,ls),
(225,-50,o),
(202,-37,o),
(177,-37,cs),
(131,-37,o),
(113,-72,o),
(113,-89,cs),
(113,-92,o),
(113,-96,o),
(114,-99,cs),
(117,-108,o),
(120,-113,o),
(125,-118,c),
(125,-117,l),
(130,-125,ls),
(137,-135,o),
(140,-147,o),
(140,-162,cs),
(140,-175,o),
(134,-185,o),
(122,-193,c),
(153,-212,l)
);
}
);
width = 317;
}
);
unicode = 315;
},
{
glyphname = Ldot;
lastChange = "2024-07-25 10:00:52 +0000";
layers = (
{
background = {
shapes = (
{
closed = 1;
nodes = (
(307,0,l),
(307,106,l),
(307,106,l),
(145,106,l),
(145,649,l),
(32,649,l),
(32,0,l)
);
},
{
closed = 1;
nodes = (
(281.333,403,o),
(300,420.667,o),
(300,456,cs),
(300,494.667,o),
(284,510,o),
(244,510,cs),
(202.667,510,o),
(188,493.333,o),
(188,456,cs),
(188,420,o),
(204,403,o),
(244,403,cs)
);
}
);
};
layerId = "27BA4E46-0A2B-46F0-A320-1D87D61B7B36";
shapes = (
{
closed = 1;
nodes = (
(307,0,l),
(307,106,l),
(145,106,l),
(145,649,l),
(32,649,l),
(32,0,l)
);
},
{
closed = 1;
nodes = (
(281,403,o),
(300,421,o),
(300,456,cs),
(300,495,o),
(284,510,o),
(244,510,cs),
(203,510,o),
(188,493,o),
(188,456,cs),
(188,420,o),
(204,403,o),
(244,403,cs)
);
}
);
width = 317;
}
);
unicode = 319;
},
{
glyphname = Lslash;
lastChange = "2024-07-25 10:00:52 +0000";
layers = (
{
background = {
shapes = (
{
closed = 1;
nodes = (
(330,0,l),
(330,106,l),
(168,106,l),
(168,283,l),
(168,283,l),
(291,361,l),
(291,464,l),
(168,388,l),
(168,649,l),
(55,649,l),
(55,318,l),
(13,291,l),
(13,185,l),
(55,211,l),
(55,0,l)
);
}
);
};
layerId = "27BA4E46-0A2B-46F0-A320-1D87D61B7B36";
shapes = (
{
closed = 1;
nodes = (
(330,0,l),
(330,106,l),
(168,106,l),
(168,283,l),
(291,361,l),
(291,464,l),
(168,388,l),
(168,649,l),
(55,649,l),
(55,318,l),
(13,291,l),
(13,185,l),
(55,211,l),
(55,0,l)
);
}
);
width = 357;
}
);
unicode = 321;
},
{
glyphname = M;
lastChange = "2024-07-25 12:26:47 +0000";
layers = (
{
anchors = (
{
name = bottom;
pos = (275,0);
},
{
name = top;
pos = (275,650);
}
);
background = {
shapes = (
{
closed = 1;
nodes = (
(143,0,l),
(143,363,l),
(235,147,l),
(314,147,l),
(407,363,l),
(407,0,l),
(519,0,l),
(519,653,l),
(519,653,l),
(408,653,l),
(274,340,l),
(142,653,l),
(31,653,l),
(31,0,l)
);
}
);
};
layerId = "27BA4E46-0A2B-46F0-A320-1D87D61B7B36";
shapes = (
{
closed = 1;
nodes = (
(143,0,l),
(143,363,l),
(235,147,l),
(314,147,l),
(407,363,l),
(407,0,l),
(519,0,l),
(519,653,l),
(408,653,l),
(274,340,l),
(142,653,l),
(31,653,l),
(31,0,l)
);
}
);
width = 549;
}
);
unicode = 77;
},
{
glyphname = N;
lastChange = "2024-07-25 12:26:47 +0000";
layers = (
{
anchors = (
{
name = bottom;
pos = (223,0);
},
{
name = top;
pos = (223,650);
}
);
background = {
shapes = (
{
closed = 1;
nodes = (
(140,0,l),
(140,368,l),
(301,0,l),
(413,0,l),
(413,649,l),
(413,649,l),
(300,649,l),
(300,281,l),
(139,649,l),
(29,649,l),
(29,0,l)
);
}
);
};
layerId = "27BA4E46-0A2B-46F0-A320-1D87D61B7B36";
shapes = (
{
closed = 1;
nodes = (
(140,0,l),
(140,368,l),
(301,0,l),
(413,0,l),
(413,649,l),
(300,649,l),
(300,281,l),
(139,649,l),
(29,649,l),
(29,0,l)
);
}
);
width = 446;
}
);
unicode = 78;
},
{
glyphname = Nacute;
lastChange = "2024-07-25 10:00:52 +0000";
layers = (
{
background = {
shapes = (
{
closed = 1;
nodes = (
(140,0,l),
(140,368,l),
(301,0,l),
(413,0,l),
(413,649,l),
(413,649,l),
(300,649,l),
(300,281,l),
(139,649,l),
(29,649,l),
(29,0,l)
);
},
{
closed = 1;
nodes = (
(177.167,681,o),
(188,681.333,o),
(200,682,cs),
(214,682,o),
(230,682.333,o),
(248,683,c),
(302,764,l),
(205,764,l),
(179,724,ls),
(172.333,714,o),
(166.333,704.667,o),
(161,696,cs),
(155.667,687.333,o),
(153,682.667,o),
(153,682,cs),
(153,681.333,o),
(157.833,681,o),
(167.5,681,cs)
);
}
);
};
layerId = "27BA4E46-0A2B-46F0-A320-1D87D61B7B36";
shapes = (
{
closed = 1;
nodes = (
(140,0,l),
(140,368,l),
(301,0,l),
(413,0,l),
(413,649,l),
(300,649,l),
(300,281,l),
(139,649,l),
(29,649,l),
(29,0,l)
);
},
{
closed = 1;
nodes = (
(200,682,l),
(248,683,l),
(302,764,l),
(205,764,l),
(179,724,l),
(161,696,l),
(153,682,l),
(153,681,o),
(158,681,o),
(168,681,cs)
);
}
);
width = 446;
}
);
unicode = 323;
},
{
glyphname = Ncaron;
lastChange = "2024-07-25 10:00:52 +0000";
layers = (
{
background = {
shapes = (
{
closed = 1;
nodes = (
(140,0,l),
(140,368,l),
(301,0,l),
(413,0,l),
(413,649,l),
(413,649,l),
(300,649,l),
(300,281,l),
(139,649,l),
(29,649,l),
(29,0,l)
);
},
{
closed = 1;
nodes = (
(300,671,l),
(358,765,l),
(358,765,l),
(254,765,l),
(215,705,l),
(173,761,l),
(69,761,l),
(129,669,l)
);
}
);
};
layerId = "27BA4E46-0A2B-46F0-A320-1D87D61B7B36";
shapes = (
{
closed = 1;
nodes = (
(140,0,l),
(140,368,l),
(301,0,l),
(413,0,l),
(413,649,l),
(300,649,l),
(300,281,l),
(139,649,l),
(29,649,l),
(29,0,l)
);
},
{
closed = 1;
nodes = (
(300,671,l),
(358,765,l),
(254,765,l),
(215,705,l),
(173,761,l),
(69,761,l),
(129,669,l)
);
}
);
width = 446;
}
);
unicode = 327;
},
{
glyphname = Ncommaaccent;
lastChange = "2024-07-25 10:00:52 +0000";
layers = (
{
background = {
shapes = (
{
closed = 1;
nodes = (
(140,0,l),
(140,368,l),
(301,0,l),
(413,0,l),
(413,649,l),
(413,649,l),
(300,649,l),
(300,281,l),
(139,649,l),
(29,649,l),
(29,0,l)
);
},
{
closed = 1;
nodes = (
(233,-181.333,o),
(266,-141,o),
(266,-97,cs),
(266,-93.667,o),
(265.667,-90,o),
(265,-86,cs),
(261,-50,o),
(238.333,-37,o),
(213,-37,cs),
(166.813,-37,o),
(149,-72.317,o),
(149,-89,cs),
(149,-92.333,o),
(149.333,-95.667,o),
(150,-99,cs),
(152.667,-108.333,o),
(155.667,-112.667,o),
(161,-118,c),
(161,-117,l),
(166,-125,ls),
(172.667,-135,o),
(176,-147.333,o),
(176,-162,cs),
(176,-174.667,o),
(170,-185,o),
(158,-193,c),
(189,-212,l)
);
}
);
};
layerId = "27BA4E46-0A2B-46F0-A320-1D87D61B7B36";
shapes = (
{
closed = 1;
nodes = (
(140,0,l),
(140,368,l),
(301,0,l),
(413,0,l),
(413,649,l),
(300,649,l),
(300,281,l),
(139,649,l),
(29,649,l),
(29,0,l)
);
},
{
closed = 1;
nodes = (
(233,-181,o),
(266,-141,o),
(266,-97,cs),
(265,-86,ls),
(261,-50,o),
(238,-37,o),
(213,-37,cs),
(167,-37,o),
(149,-72,o),
(149,-89,cs),
(149,-92,o),
(149,-96,o),
(150,-99,cs),
(153,-108,o),
(156,-113,o),
(161,-118,c),
(161,-117,l),
(166,-125,ls),
(173,-135,o),
(176,-147,o),
(176,-162,cs),
(176,-175,o),
(170,-185,o),
(158,-193,c),
(189,-212,l)
);
}
);
width = 446;
}
);
unicode = 325;
},
{
glyphname = Ntilde;
lastChange = "2024-07-25 12:15:26 +0000";
layers = (
{
background = {
shapes = (
{
closed = 1;
nodes = (
(140,0,l),
(140,368,l),
(301,0,l),
(413,0,l),
(413,649,l),
(413,649,l),
(300,649,l),
(300,281,l),
(139,649,l),
(29,649,l),
(29,0,l)
);
},
{
closed = 1;
nodes = (
(143,693,ls),
(145.667,695.667,o),
(149.333,698.667,o),
(154,702,cs),
(162,706,o),
(171.333,710,o),
(182,710,cs),
(190,710,o),
(197,706,o),
(205,702,c),
(233.667,682.667,o),
(260.333,673,o),
(285,673,cs),
(293,673,l),
(293,673,o),
(293,673,o),
(293,673,c),
(293,673,o),
(293,673,o),
(293,673,c),
(295,673,ls),
(297.667,673,o),
(300.667,673.333,o),
(304,674,cs),
(328,680,o),
(350.333,695.333,o),
(371,720,cs),
(375,725,l),
(329,769,l),
(329,769,l),
(326,764,ls),
(316,750.667,o),
(305,742.333,o),
(293,739,cs),
(290.333,738.333,o),
(287.667,738,o),
(285,738,cs),
(271.667,738,o),
(255.667,744.333,o),
(237,757,cs),
(219,769,o),
(200.667,775,o),
(182,775,cs),
(162,775,o),
(143,769,o),
(125,757,cs),
(111.667,749.667,o),
(101.167,741.5,o),
(93.5,732.5,cs),
(85.833,723.5,o),
(81.333,718.333,o),
(80,717,c),
(77,711,l),
(122,671,l)
);
}
);
};
layerId = "27BA4E46-0A2B-46F0-A320-1D87D61B7B36";
shapes = (
{
closed = 1;
nodes = (
(140,0,l),
(140,368,l),
(301,0,l),
(413,0,l),
(413,649,l),
(300,649,l),
(300,281,l),
(139,649,l),
(29,649,l),
(29,0,l)
);
},
{
closed = 1;
nodes = (
(143,693,l),
(154,702,l),
(162,706,o),
(171,710,o),
(182,710,cs),
(190,710,o),
(197,706,o),
(205,702,c),
(234,683,o),
(260,673,o),
(285,673,cs),
(295,673,l),
(304,674,l),
(328,680,o),
(350,695,o),
(371,720,cs),
(375,725,l),
(329,769,l),
(326,764,ls),
(316,751,o),
(305,742,o),
(293,739,cs),
(290,738,o),
(288,738,o),
(285,738,cs),
(272,738,o),
(256,744,o),
(237,757,cs),
(219,769,o),
(201,775,o),
(182,775,cs),
(162,775,o),
(143,769,o),
(125,757,cs),
(112,750,o),
(101,742,o),
(94,733,cs),
(80,717,l),
(77,711,l),
(122,671,l)
);
}
);
width = 446;
}
);
unicode = 209;
},
{
glyphname = Eng;
lastChange = "2024-07-25 12:15:26 +0000";
layers = (
{
background = {
shapes = (
{
closed = 1;
nodes = (
(237,-173,l),
(237,-173,o),
(237,-173,o),
(237,-173,c),
(237.667,-173,o),
(238,-173,o),
(238,-173,c),
(238,-173,o),
(238,-173,o),
(238,-173,c),
(238,-173,o),
(238,-173,o),
(238,-173,c),
(238,-173,o),
(238,-173,o),
(238,-173,c),
(238,-173,o),
(238,-173,o),
(238,-173,c),
(238.667,-173,o),
(239,-173,o),
(239,-173,c),
(239,-173,o),
(239,-173,o),
(239,-173,c),
(239,-173,o),
(239,-173,o),
(239,-173,c),
(239,-173,o),
(239,-173,o),
(239,-173,c),
(269,-173,o),
(296,-168,o),
(320,-158,cs),
(368.32,-139.209,o),
(416,-92.248,o),
(416,0,cs),
(416,649,l),
(303,649,l),
(303,649,l),
(303,281,l),
(142,649,l),
(32,649,l),
(32,0,l),
(143,0,l),
(143,368,l),
(304,1,l),
(296.974,-48.18,o),
(273.844,-82,o),
(229,-82,c),
(229,-82,o),
(229,-82,o),
(229,-82,c),
(229,-82,o),
(229,-82,o),
(229,-82,c),
(228,-82,l),
(228,-82,o),
(228,-82,o),
(228,-82,c),
(228,-82,o),
(228,-82,o),
(228,-82,c),
(226,-82,l),
(226,-82,o),
(226,-82,o),
(226,-82,c),
(226,-82,o),
(226,-82,o),
(226,-82,c),
(226,-82,o),
(226,-82,o),
(226,-82,c),
(225,-82,l),
(225,-82,o),
(225,-82,o),
(225,-82,c),
(225,-82,o),
(225,-82,o),
(225,-82,c),
(225,-82,o),
(225,-82,o),
(225,-82,c),
(224,-82,l),
(224,-82,o),
(224,-82,o),
(224,-82,c),
(224,-82,o),
(224,-82,o),
(224,-82,c),
(224,-82,o),
(224,-82,o),
(224,-82,c),
(224,-173,l)
);
}
);
};
layerId = "27BA4E46-0A2B-46F0-A320-1D87D61B7B36";
shapes = (
{
closed = 1;
nodes = (
(239,-173,ls),
(269,-173,o),
(296,-168,o),
(320,-158,cs),
(368,-139,o),
(416,-92,o),
(416,0,cs),
(416,649,l),
(303,649,l),
(303,281,l),
(142,649,l),
(32,649,l),
(32,0,l),
(143,0,l),
(143,368,l),
(304,1,l),
(297,-48,o),
(274,-82,o),
(229,-82,cs),
(224,-82,l),
(224,-173,l)
);
}
);
width = 446;
}
);
unicode = 330;
},
{
glyphname = O;
lastChange = "2024-07-25 12:26:47 +0000";
layers = (
{
anchors = (
{
name = bottom;
pos = (201,0);
},
{
name = center;
pos = (201,325);
},
{
name = ogonek;
pos = (362,10);
},
{
name = top;
pos = (201,650);
},
{
name = topleft;
pos = (20,650);
},
{
name = topright;
pos = (382,650);
}
);
background = {
shapes = (
{
closed = 1;
nodes = (
(358.694,0,o),
(374,67.949,o),
(374,197,cs),
(374,484,ls),
(374,603.826,o),
(326.811,649,o),
(199,649,cs),
(68.754,649,o),
(25,601.89,o),
(25,484,cs),
(25,165,ls),
(25,47.11,o),
(68.754,0,o),
(199,0,cs)
);
},
{
closed = 1;
nodes = (
(143.721,108,o),
(137,123.828,o),
(137,192,cs),
(135,484,ls),
(135,533.109,o),
(139.187,543,o),
(199,543,cs),
(258.458,543,o),
(262,541.585,o),
(262,484,cs),
(262,197,ls),
(262,134.593,o),
(258.739,108,o),
(201,108,cs)
);
}
);
};
layerId = "27BA4E46-0A2B-46F0-A320-1D87D61B7B36";
shapes = (
{
closed = 1;
nodes = (
(359,0,o),
(374,68,o),
(374,197,cs),
(374,484,ls),
(374,604,o),
(327,649,o),
(199,649,cs),
(69,649,o),
(25,602,o),
(25,484,cs),
(25,165,ls),
(25,47,o),
(69,0,o),
(199,0,cs)
);
},
{
closed = 1;
nodes = (
(144,108,o),
(137,124,o),
(137,192,cs),
(135,484,ls),
(135,533,o),
(139,543,o),
(199,543,cs),
(258,543,o),
(262,542,o),
(262,484,cs),
(262,197,ls),
(262,135,o),
(259,108,o),
(201,108,cs)
);
}
);
width = 402;
}
);
unicode = 79;
},
{
glyphname = Oacute;
lastChange = "2024-07-25 10:00:52 +0000";
layers = (
{
background = {
shapes = (
{
closed = 1;
nodes = (
(358.694,0,o),
(374,67.949,o),
(374,197,cs),
(374,484,ls),
(374,603.826,o),
(326.811,649,o),
(199,649,cs),
(68.754,649,o),
(25,601.89,o),
(25,484,cs),
(25,165,ls),
(25,47.11,o),
(68.754,0,o),
(199,0,cs)
);
},
{
closed = 1;
nodes = (
(143.721,108,o),
(137,123.828,o),
(137,192,cs),
(135,484,ls),
(135,533.109,o),
(139.187,543,o),
(199,543,cs),
(258.458,543,o),
(262,541.585,o),
(262,484,cs),
(262,197,ls),
(262,134.593,o),
(258.739,108,o),
(201,108,cs)
);
},
{
closed = 1;
nodes = (
(160.167,681,o),
(171,681.333,o),
(183,682,cs),
(197,682,o),
(213,682.333,o),
(231,683,c),
(285,764,l),
(188,764,l),
(162,724,ls),
(155.333,714,o),
(149.333,704.667,o),
(144,696,cs),
(138.667,687.333,o),
(136,682.667,o),
(136,682,cs),
(136,681.333,o),
(140.833,681,o),
(150.5,681,cs)
);
}
);
};
layerId = "27BA4E46-0A2B-46F0-A320-1D87D61B7B36";
shapes = (
{
closed = 1;
nodes = (
(359,0,o),
(374,68,o),
(374,197,cs),
(374,484,ls),
(374,604,o),
(327,649,o),
(199,649,cs),
(69,649,o),
(25,602,o),
(25,484,cs),
(25,165,ls),
(25,47,o),
(69,0,o),
(199,0,cs)
);
},
{
closed = 1;
nodes = (
(144,108,o),
(137,124,o),
(137,192,cs),
(135,484,ls),
(135,533,o),
(139,543,o),
(199,543,cs),
(258,543,o),
(262,542,o),
(262,484,cs),
(262,197,ls),
(262,135,o),
(259,108,o),
(201,108,cs)
);
},
{
closed = 1;
nodes = (
(183,682,l),
(231,683,l),
(285,764,l),
(188,764,l),
(162,724,l),
(144,696,l),
(136,682,l),
(136,681,o),
(141,681,o),
(151,681,cs)
);
}
);
width = 402;
}
);
unicode = 211;
},
{
glyphname = Obreve;
lastChange = "2024-07-25 10:00:52 +0000";
layers = (
{
background = {
shapes = (
{
closed = 1;
nodes = (
(358.694,0,o),
(374,67.949,o),
(374,197,cs),
(374,484,ls),
(374,603.826,o),
(326.811,649,o),
(199,649,cs),
(68.754,649,o),
(25,601.89,o),
(25,484,cs),
(25,165,ls),
(25,47.11,o),
(68.754,0,o),
(199,0,cs)
);
},
{
closed = 1;
nodes = (
(143.721,108,o),
(137,123.828,o),
(137,192,cs),
(135,484,ls),
(135,533.109,o),
(139.187,543,o),
(199,543,cs),
(258.458,543,o),
(262,541.585,o),
(262,484,cs),
(262,197,ls),
(262,134.593,o),
(258.739,108,o),
(201,108,cs)
);
},
{
closed = 1;
nodes = (
(270,679,o),
(310.333,708.333,o),
(313,783,c),
(248,783,l),
(242.667,744.333,o),
(223.333,742,o),
(194,742,cs),
(166,742,o),
(147.333,744.333,o),
(142,783,c),
(77,783,l),
(79.667,708.333,o),
(118,679,o),
(194,679,cs)
);
}
);
};
layerId = "27BA4E46-0A2B-46F0-A320-1D87D61B7B36";
shapes = (
{
closed = 1;
nodes = (
(359,0,o),
(374,68,o),
(374,197,cs),
(374,484,ls),
(374,604,o),
(327,649,o),
(199,649,cs),
(69,649,o),
(25,602,o),
(25,484,cs),
(25,165,ls),
(25,47,o),
(69,0,o),
(199,0,cs)
);
},
{
closed = 1;
nodes = (
(144,108,o),
(137,124,o),
(137,192,cs),
(135,484,ls),
(135,533,o),
(139,543,o),
(199,543,cs),
(258,543,o),
(262,542,o),
(262,484,cs),
(262,197,ls),
(262,135,o),
(259,108,o),
(201,108,cs)
);
},
{
closed = 1;
nodes = (
(270,679,o),
(310,708,o),
(313,783,c),
(248,783,l),
(243,744,o),
(223,742,o),
(194,742,cs),
(166,742,o),
(147,744,o),
(142,783,c),
(77,783,l),
(80,708,o),
(118,679,o),
(194,679,cs)
);
}
);
width = 402;
}
);
unicode = 334;
},
{
glyphname = Ocircumflex;
lastChange = "2024-07-25 10:00:52 +0000";
layers = (
{
background = {
shapes = (
{
closed = 1;
nodes = (
(358.694,0,o),
(374,67.949,o),
(374,197,cs),
(374,484,ls),
(374,603.826,o),
(326.811,649,o),
(199,649,cs),
(68.754,649,o),
(25,601.89,o),
(25,484,cs),
(25,165,ls),
(25,47.11,o),
(68.754,0,o),
(199,0,cs)
);
},
{
closed = 1;
nodes = (
(143.721,108,o),
(137,123.828,o),
(137,192,cs),
(135,484,ls),
(135,533.109,o),
(139.187,543,o),
(199,543,cs),
(258.458,543,o),
(262,541.585,o),
(262,484,cs),
(262,197,ls),
(262,134.593,o),
(258.739,108,o),
(201,108,cs)
);
},
{
closed = 1;
nodes = (
(158,676,l),
(197,736,l),
(239,680,l),
(343,680,l),
(283,774,l),
(112,772,l),
(54,676,l),
(54,676,l)
);
}
);
};
layerId = "27BA4E46-0A2B-46F0-A320-1D87D61B7B36";
shapes = (
{
closed = 1;
nodes = (
(359,0,o),
(374,68,o),
(374,197,cs),
(374,484,ls),
(374,604,o),
(327,649,o),
(199,649,cs),
(69,649,o),
(25,602,o),
(25,484,cs),
(25,165,ls),
(25,47,o),
(69,0,o),
(199,0,cs)
);
},
{
closed = 1;
nodes = (
(144,108,o),
(137,124,o),
(137,192,cs),
(135,484,ls),
(135,533,o),
(139,543,o),
(199,543,cs),
(258,543,o),
(262,542,o),
(262,484,cs),
(262,197,ls),
(262,135,o),
(259,108,o),
(201,108,cs)
);
},
{
closed = 1;
nodes = (
(158,676,l),
(197,736,l),
(239,680,l),
(343,680,l),
(283,774,l),
(112,772,l),
(54,676,l)
);
}
);
width = 402;
}
);
unicode = 212;
},
{
glyphname = Odieresis;
lastChange = "2024-07-25 12:15:26 +0000";
layers = (
{
background = {
shapes = (
{
closed = 1;
nodes = (
(358.694,0,o),
(374,67.949,o),
(374,197,cs),
(374,484,ls),
(374,603.826,o),
(326.811,649,o),
(199,649,cs),
(68.754,649,o),
(25,601.89,o),
(25,484,cs),
(25,165,ls),
(25,47.11,o),
(68.754,0,o),
(199,0,cs)
);
},
{
closed = 1;
nodes = (
(143.721,108,o),
(137,123.828,o),
(137,192,cs),
(135,484,ls),
(135,533.109,o),
(139.187,543,o),
(199,543,cs),
(258.458,543,o),
(262,541.585,o),
(262,484,cs),
(262,197,ls),
(262,134.593,o),
(258.739,108,o),
(201,108,cs)
);
},
{
closed = 1;
nodes = (
(102.167,681,o),
(113,681.333,o),
(125,682,cs),
(139,682,o),
(155,682.333,o),
(173,683,c),
(174,764,l),
(78,764,l),
(78,682,ls),
(78,681.333,o),
(82.833,681,o),
(92.5,681,cs)
);
},
{
closed = 1;
nodes = (
(251,684,l),
(251,684,o),
(251,684,o),
(251,684,c),
(251,684,o),
(251,684,o),
(251,684,c),
(251,684,o),
(251,684,o),
(251,684,c),
(252,684,l),
(252,684,o),
(252,684,o),
(252,684,c),
(252,684,o),
(252,684,o),
(252,684,c),
(252,684,o),
(252,684,o),
(252,684,c),
(252.667,684,o),
(253,684,o),
(253,684,c),
(253,684,o),
(253,684,o),
(253,684,c),
(253,684,o),
(253,684,o),
(253,684,c),
(253,684,o),
(253,684,o),
(253,684,c),
(253,684,o),
(253,684,o),
(253,684,c),
(253,684,o),
(253,684,o),
(253,684,c),
(253,684,o),
(253,684,o),
(253,684,c),
(264,684,l),
(264,684,o),
(264,684,o),
(264,684,c),
(264,684,o),
(264,684,o),
(264,684,c),
(264,684,o),
(264,684,o),
(264,684,c),
(264.667,684,o),
(265,684,o),
(265,684,c),
(265,684,o),
(265,684,o),
(265,684,c),
(265,684,o),
(265,684,o),
(265,684,c),
(265,684,o),
(265,684,o),
(265,684,c),
(265,684,o),
(265,684,o),
(265,684,c),
(268,684,l),
(268,684,o),
(268,684,o),
(268,684,c),
(268,684,o),
(268,684,o),
(268,684,c),
(268,684,o),
(268,684,o),
(268,684,c),
(268,684,o),
(268,684,o),
(268,684,c),
(268.667,684,o),
(269,684,o),
(269,684,c),
(269,684,o),
(269,684,o),
(269,684,c),
(269,684,o),
(269,684,o),
(269,684,c),
(269,684,o),
(269,684,o),
(269,684,c),
(269,684,o),
(269,684,o),
(269,684,c),
(269,684,o),
(269,684,o),
(269,684,c),
(269,684,o),
(269,684,o),
(269,684,c),
(270,684,l),
(270,684,o),
(270,684,o),
(270,684,c),
(270,684,o),
(270,684,o),
(270,684,c),
(270,684,o),
(270,684,o),
(270,684,c),
(270,684,o),
(270,684,o),
(270,684,c),
(270.667,684,o),
(271,684,o),
(271,684,c),
(271,684,o),
(271,684,o),
(271,684,c),
(271,684,o),
(271,684,o),
(271,684,c),
(271,684,o),
(271,684,o),
(271,684,c),
(271,684,o),
(271,684,o),
(271,684,c),
(272,684,l),
(272,684,o),
(272,684,o),
(272,684,c),
(272,684,o),
(272,684,o),
(272,684,c),
(272,684,o),
(272,684,o),
(272,684,c),
(272.667,684,o),
(273,684,o),
(273,684,c),
(273,684,o),
(273,684,o),
(273,684,c),
(273,684,o),
(273,684,o),
(273,684,c),
(273,684,o),
(273,684,o),
(273,684,c),
(273,684,o),
(273,684,o),
(273,684,c),
(274,684,l),
(274,684,o),
(274,684,o),
(274,684,c),
(274,684,o),
(274,684,o),
(274,684,c),
(274,684,o),
(274,684,o),
(274,684,c),
(274,684,o),
(274,684,o),
(274,684,c),
(274.667,684,o),
(275,684,o),
(275,684,c),
(275,684,o),
(275,684,o),
(275,684,c),
(275,684,o),
(275,684,o),
(275,684,c),
(275,684,o),
(275,684,o),
(275,684,c),
(275,684,o),
(275,684,o),
(275,684,c),
(275,684,o),
(275,684,o),
(275,684,c),
(275,684,o),
(275,684,o),
(275,684,c),
(276,684,l),
(276,684,o),
(276,684,o),
(276,684,c),
(276,684,o),
(276,684,o),
(276,684,c),
(276,684,o),
(276,684,o),
(276,684,c),
(276.667,684,o),
(277,684,o),
(277,684,c),
(277,684,o),
(277,684,o),
(277,684,c),
(277,684,o),
(277,684,o),
(277,684,c),
(277,684,o),
(277,684,o),
(277,684,c),
(277,684,o),
(277,684,o),
(277,684,c),
(277,684,o),
(277,684,o),
(277,684,c),
(277.667,684,o),
(278,684,o),
(278,684,c),
(278,684,o),
(278,684,o),
(278,684,c),
(278,684,o),
(278,684,o),
(278,684,c),
(278,684,o),
(278,684,o),
(278,684,c),
(278,684,o),
(278,684,o),
(278,684,c),
(278,684,o),
(278,684,o),
(278,684,c),
(278,684,o),
(278,684,o),
(278,684,c),
(278,684,o),
(278,684,o),
(278,684,c),
(281,684,ls),
(295,684,o),
(311,684.333,o),
(329,685,c),
(330,766,l),
(234,766,l),
(234,685,ls),
(234,684.333,o),
(239,684,o),
(249,684,cs)
);
}
);
};
layerId = "27BA4E46-0A2B-46F0-A320-1D87D61B7B36";
shapes = (
{
closed = 1;
nodes = (
(359,0,o),
(374,68,o),
(374,197,cs),
(374,484,ls),
(374,604,o),
(327,649,o),
(199,649,cs),
(69,649,o),
(25,602,o),
(25,484,cs),
(25,165,ls),
(25,47,o),
(69,0,o),
(199,0,cs)
);
},
{
closed = 1;
nodes = (
(144,108,o),
(137,124,o),
(137,192,cs),
(135,484,ls),
(135,533,o),
(139,543,o),
(199,543,cs),
(258,543,o),
(262,542,o),
(262,484,cs),
(262,197,ls),
(262,135,o),
(259,108,o),
(201,108,cs)
);
},
{
closed = 1;
nodes = (
(125,682,l),
(173,683,l),
(174,764,l),
(78,764,l),
(78,682,ls),
(78,681,o),
(83,681,o),
(93,681,cs)
);
},
{
closed = 1;
nodes = (
(281,684,l),
(329,685,l),
(330,766,l),
(234,766,l),
(234,685,ls),
(234,684,o),
(239,684,o),
(249,684,cs)
);
}
);
width = 402;
}
);
unicode = 214;
},
{
glyphname = Ograve;
lastChange = "2024-07-25 10:00:52 +0000";
layers = (
{
background = {
shapes = (
{
closed = 1;
nodes = (
(358.694,0,o),
(374,67.949,o),
(374,197,cs),
(374,484,ls),
(374,603.826,o),
(326.811,649,o),
(199,649,cs),
(68.754,649,o),
(25,601.89,o),
(25,484,cs),
(25,165,ls),
(25,47.11,o),
(68.754,0,o),
(199,0,cs)
);
},
{
closed = 1;
nodes = (
(143.721,108,o),
(137,123.828,o),
(137,192,cs),
(135,484,ls),
(135,533.109,o),
(139.187,543,o),
(199,543,cs),
(258.458,543,o),
(262,541.585,o),
(262,484,cs),
(262,197,ls),
(262,134.593,o),
(258.739,108,o),
(201,108,cs)
);
},
{
closed = 1;
nodes = (
(189.167,679,o),
(200,679.333,o),
(212,680,cs),
(226,680,o),
(242,680.333,o),
(260,681,c),
(200,762,l),
(103,762,l),
(114.333,747.333,o),
(124.667,734,o),
(134,722,cs),
(141.333,712,o),
(148.333,702.667,o),
(155,694,cs),
(161.667,685.333,o),
(165,680.667,o),
(165,680,cs),
(165,679.333,o),
(169.833,679,o),
(179.5,679,cs)
);
}
);
};
layerId = "27BA4E46-0A2B-46F0-A320-1D87D61B7B36";
shapes = (
{
closed = 1;
nodes = (
(359,0,o),
(374,68,o),
(374,197,cs),
(374,484,ls),
(374,604,o),
(327,649,o),
(199,649,cs),
(69,649,o),
(25,602,o),
(25,484,cs),
(25,165,ls),
(25,47,o),
(69,0,o),
(199,0,cs)
);
},
{
closed = 1;
nodes = (
(144,108,o),
(137,124,o),
(137,192,cs),
(135,484,ls),
(135,533,o),
(139,543,o),
(199,543,cs),
(258,543,o),
(262,542,o),
(262,484,cs),
(262,197,ls),
(262,135,o),
(259,108,o),
(201,108,cs)
);
},
{
closed = 1;
nodes = (
(212,680,l),
(260,681,l),
(200,762,l),
(103,762,l),
(134,722,l),
(155,694,l),
(165,680,l),
(165,679,o),
(170,679,o),
(180,679,cs)
);
}
);
width = 402;
}
);
unicode = 210;
},
{
glyphname = Ohungarumlaut;
lastChange = "2024-07-25 10:00:52 +0000";
layers = (
{
background = {
shapes = (
{
closed = 1;
nodes = (
(358.694,0,o),
(374,67.949,o),
(374,197,cs),
(374,484,ls),
(374,603.826,o),
(326.811,649,o),
(199,649,cs),
(68.754,649,o),
(25,601.89,o),
(25,484,cs),
(25,165,ls),
(25,47.11,o),
(68.754,0,o),
(199,0,cs)
);
},
{
closed = 1;
nodes = (
(143.721,108,o),
(137,123.828,o),
(137,192,cs),
(135,484,ls),
(135,533.109,o),
(139.187,543,o),
(199,543,cs),
(258.458,543,o),
(262,541.585,o),
(262,484,cs),
(262,197,ls),
(262,134.593,o),
(258.739,108,o),
(201,108,cs)
);
},
{
closed = 1;
nodes = (
(74.167,681,o),
(85,681.333,o),
(97,682,cs),
(111,682,o),
(127,682.333,o),
(145,683,c),
(199,764,l),
(102,764,l),
(76,724,ls),
(69.333,714,o),
(63.333,704.667,o),
(58,696,cs),
(52.667,687.333,o),
(50,682.667,o),
(50,682,cs),
(50,681.333,o),
(54.833,681,o),
(64.5,681,cs)
);
},
{
closed = 1;
nodes = (
(238.167,681,o),
(249,681.333,o),
(261,682,cs),
(275,682,o),
(291,682.333,o),
(309,683,c),
(363,764,l),
(266,764,l),
(240,724,ls),
(233.333,714,o),
(227.333,704.667,o),
(222,696,cs),
(216.667,687.333,o),
(214,682.667,o),
(214,682,cs),
(214,681.333,o),
(218.833,681,o),
(228.5,681,cs)
);
}
);
};
layerId = "27BA4E46-0A2B-46F0-A320-1D87D61B7B36";
shapes = (
{
closed = 1;
nodes = (
(359,0,o),
(374,68,o),
(374,197,cs),
(374,484,ls),
(374,604,o),
(327,649,o),
(199,649,cs),
(69,649,o),
(25,602,o),
(25,484,cs),
(25,165,ls),
(25,47,o),
(69,0,o),
(199,0,cs)
);
},
{
closed = 1;
nodes = (
(144,108,o),
(137,124,o),
(137,192,cs),
(135,484,ls),
(135,533,o),
(139,543,o),
(199,543,cs),
(258,543,o),
(262,542,o),
(262,484,cs),
(262,197,ls),
(262,135,o),
(259,108,o),
(201,108,cs)
);
},
{
closed = 1;
nodes = (
(97,682,l),
(145,683,l),
(199,764,l),
(102,764,l),
(76,724,l),
(58,696,l),
(50,682,l),
(50,681,o),
(55,681,o),
(65,681,cs)
);
},
{
closed = 1;
nodes = (
(261,682,l),
(309,683,l),
(363,764,l),
(266,764,l),
(240,724,l),
(222,696,l),
(214,682,l),
(214,681,o),
(219,681,o),
(229,681,cs)
);
}
);
width = 402;
}
);
unicode = 336;
},
{
glyphname = Omacron;
lastChange = "2024-07-25 12:15:26 +0000";
layers = (
{
background = {
shapes = (
{
closed = 1;
nodes = (
(358.694,0,o),
(374,67.949,o),
(374,197,cs),
(374,484,ls),
(374,603.826,o),
(326.811,649,o),
(199,649,cs),
(68.754,649,o),
(25,601.89,o),
(25,484,cs),
(25,165,ls),
(25,47.11,o),
(68.754,0,o),
(199,0,cs)
);
},
{
closed = 1;
nodes = (
(143.721,108,o),
(137,123.828,o),
(137,192,cs),
(135,484,ls),
(135,533.109,o),
(139.187,543,o),
(199,543,cs),
(258.458,543,o),
(262,541.585,o),
(262,484,cs),
(262,197,ls),
(262,134.593,o),
(258.739,108,o),
(201,108,cs)
);
},
{
closed = 1;
nodes = (
(145,683,l),
(145,683,o),
(145,683,o),
(145,683,c),
(145,683,o),
(145,683,o),
(145,683,c),
(145,683,o),
(145,683,o),
(145,683,c),
(150,683,l),
(150,683,o),
(150,683,o),
(150,683,c),
(150,683,o),
(150,683,o),
(150,683,c),
(150,683,o),
(150,683,o),
(150,683,c),
(153,683,l),
(153,683,o),
(153,683,o),
(153,683,c),
(153,683,o),
(153,683,o),
(153,683,c),
(153,683,o),
(153,683,o),
(153,683,c),
(180,683,l),
(180,683,o),
(180,683,o),
(180,683,c),
(185,683,l),
(185,683,o),
(185,683,o),
(185,683,c),
(188,683,l),
(188,683,o),
(188,683,o),
(188,683,c),
(188,683,o),
(188,683,o),
(188,683,c),
(193,683,l),
(193,683,o),
(193,683,o),
(193,683,c),
(195,683,l),
(195,683,o),
(195,683,o),
(195,683,c),
(195,683,o),
(195,683,o),
(195,683,c),
(195,683,o),
(195,683,o),
(195,683,c),
(198,683,ls),
(227.333,683,o),
(260.667,683.333,o),
(298,684,c),
(299,765,l),
(99,765,l),
(99,684,l),
(99,684,o),
(101.833,683.833,o),
(107.5,683.5,cs),
(113.167,683.167,o),
(120.667,683,o),
(130,683,cs)
);
}
);
};
layerId = "27BA4E46-0A2B-46F0-A320-1D87D61B7B36";
shapes = (
{
closed = 1;
nodes = (
(359,0,o),
(374,68,o),
(374,197,cs),
(374,484,ls),
(374,604,o),
(327,649,o),
(199,649,cs),
(69,649,o),
(25,602,o),
(25,484,cs),
(25,165,ls),
(25,47,o),
(69,0,o),
(199,0,cs)
);
},
{
closed = 1;
nodes = (
(144,108,o),
(137,124,o),
(137,192,cs),
(135,484,ls),
(135,533,o),
(139,543,o),
(199,543,cs),
(258,543,o),
(262,542,o),
(262,484,cs),
(262,197,ls),
(262,135,o),
(259,108,o),
(201,108,cs)
);
},
{
closed = 1;
nodes = (
(198,683,l),
(298,684,l),
(299,765,l),
(99,765,l),
(99,684,l),
(108,684,l),
(130,683,l)
);
}
);
width = 402;
}
);
unicode = 332;
},
{
glyphname = Oslash;
lastChange = "2024-07-25 10:00:52 +0000";
layers = (
{
background = {
shapes = (
{
closed = 1;
nodes = (
(107,14,l),
(133,4.667,o),
(164.667,0,o),
(202,0,cs),
(361.694,0,o),
(377,67.949,o),
(377,197,cs),
(377,484,ls),
(377,540,o),
(367.667,578.333,o),
(345,605,c),
(364,652,l),
(364,652,l),
(308,675,l),
(293,638,l),
(269,646,o),
(239.333,649,o),
(202,649,cs),
(71.754,649,o),
(28,601.89,o),
(28,484,cs),
(28,165,ls),
(28,114.333,o),
(37.333,76.333,o),
(56,51,c),
(36,0,l),
(92,-23,l)
);
},
{
closed = 1;
nodes = (
(176.667,108,o),
(159,113.333,o),
(151,124,c),
(265,407,l),
(265,197,ls),
(265,134.593,o),
(261.739,108,o),
(204,108,cs)
);
},
{
closed = 1;
nodes = (
(138,484,ls),
(138,533.109,o),
(142.187,543,o),
(202,543,cs),
(228.667,543,o),
(243.667,543.333,o),
(253,538,c),
(140,259,l)
);
}
);
};
layerId = "27BA4E46-0A2B-46F0-A320-1D87D61B7B36";
shapes = (
{
closed = 1;
nodes = (
(107,14,l),
(133,5,o),
(165,0,o),
(202,0,cs),
(362,0,o),
(377,68,o),
(377,197,cs),
(377,484,ls),
(377,540,o),
(368,578,o),
(345,605,c),
(364,652,l),
(308,675,l),
(293,638,l),
(269,646,o),
(239,649,o),
(202,649,cs),
(72,649,o),
(28,602,o),
(28,484,cs),
(28,165,ls),
(28,114,o),
(37,76,o),
(56,51,c),
(36,0,l),
(92,-23,l)
);
},
{
closed = 1;
nodes = (
(177,108,o),
(159,113,o),
(151,124,c),
(265,407,l),
(265,197,ls),
(265,135,o),
(262,108,o),
(204,108,cs)
);
},
{
closed = 1;
nodes = (
(138,484,ls),
(138,533,o),
(142,543,o),
(202,543,cs),
(229,543,o),
(244,543,o),
(253,538,c),
(140,259,l)
);
}
);
width = 402;
}
);
unicode = 216;
},
{
glyphname = Oslashacute;
lastChange = "2024-07-25 10:00:52 +0000";
layers = (
{
background = {
shapes = (
{
closed = 1;
nodes = (
(107,14,l),
(133,4.667,o),
(164.667,0,o),
(202,0,cs),
(361.694,0,o),
(377,67.949,o),
(377,197,cs),
(377,484,ls),
(377,540,o),
(367.667,578.333,o),
(345,605,c),
(364,652,l),
(364,652,l),
(308,675,l),
(293,638,l),
(269,646,o),
(239.333,649,o),
(202,649,cs),
(71.754,649,o),
(28,601.89,o),
(28,484,cs),
(28,165,ls),
(28,114.333,o),
(37.333,76.333,o),
(56,51,c),
(36,0,l),
(92,-23,l)
);
},
{
closed = 1;
nodes = (
(176.667,108,o),
(159,113.333,o),
(151,124,c),
(265,407,l),
(265,197,ls),
(265,134.593,o),
(261.739,108,o),
(204,108,cs)
);
},
{
closed = 1;
nodes = (
(138,484,ls),
(138,533.109,o),
(142.187,543,o),
(202,543,cs),
(228.667,543,o),
(243.667,543.333,o),
(253,538,c),
(140,259,l)
);
},
{
closed = 1;
nodes = (
(160.167,681,o),
(171,681.333,o),
(183,682,cs),
(197,682,o),
(213,682.333,o),
(231,683,c),
(285,764,l),
(188,764,l),
(162,724,ls),
(155.333,714,o),
(149.333,704.667,o),
(144,696,cs),
(138.667,687.333,o),
(136,682.667,o),
(136,682,cs),
(136,681.333,o),
(140.833,681,o),
(150.5,681,cs)
);
}
);
};
layerId = "27BA4E46-0A2B-46F0-A320-1D87D61B7B36";
shapes = (
{
closed = 1;
nodes = (
(107,14,l),
(133,5,o),
(165,0,o),
(202,0,cs),
(362,0,o),
(377,68,o),
(377,197,cs),
(377,484,ls),
(377,540,o),
(368,578,o),
(345,605,c),
(364,652,l),
(308,675,l),
(293,638,l),
(269,646,o),
(239,649,o),
(202,649,cs),
(72,649,o),
(28,602,o),
(28,484,cs),
(28,165,ls),
(28,114,o),
(37,76,o),
(56,51,c),
(36,0,l),
(92,-23,l)
);
},
{
closed = 1;
nodes = (
(177,108,o),
(159,113,o),
(151,124,c),
(265,407,l),
(265,197,ls),
(265,135,o),
(262,108,o),
(204,108,cs)
);
},
{
closed = 1;
nodes = (
(138,484,ls),
(138,533,o),
(142,543,o),
(202,543,cs),
(229,543,o),
(244,543,o),
(253,538,c),
(140,259,l)
);
},
{
closed = 1;
nodes = (
(183,682,l),
(231,683,l),
(285,764,l),
(188,764,l),
(162,724,l),
(144,696,l),
(136,682,l),
(136,681,o),
(141,681,o),
(151,681,cs)
);
}
);
width = 402;
}
);
unicode = 510;
},
{
glyphname = Otilde;
lastChange = "2024-07-25 12:15:26 +0000";
layers = (
{
background = {
shapes = (
{
closed = 1;
nodes = (
(358.694,0,o),
(374,67.949,o),
(374,197,cs),
(374,484,ls),
(374,603.826,o),
(326.811,649,o),
(199,649,cs),
(68.754,649,o),
(25,601.89,o),
(25,484,cs),
(25,165,ls),
(25,47.11,o),
(68.754,0,o),
(199,0,cs)
);
},
{
closed = 1;
nodes = (
(143.721,108,o),
(137,123.828,o),
(137,192,cs),
(135,484,ls),
(135,533.109,o),
(139.187,543,o),
(199,543,cs),
(258.458,543,o),
(262,541.585,o),
(262,484,cs),
(262,197,ls),
(262,134.593,o),
(258.739,108,o),
(201,108,cs)
);
},
{
closed = 1;
nodes = (
(118,691,ls),
(120.667,693.667,o),
(124.333,696.667,o),
(129,700,cs),
(137,704,o),
(146.333,708,o),
(157,708,cs),
(165,708,o),
(172,704,o),
(180,700,c),
(208.667,680.667,o),
(235.333,671,o),
(260,671,cs),
(268,671,l),
(268,671,o),
(268,671,o),
(268,671,c),
(269,671,l),
(269,671,o),
(269,671,o),
(269,671,c),
(269,671,o),
(269,671,o),
(269,671,c),
(272.333,671,o),
(275.667,671.333,o),
(279,672,cs),
(303,678,o),
(325.333,693.333,o),
(346,718,cs),
(350,723,l),
(304,767,l),
(304,767,l),
(301,762,ls),
(291,748.667,o),
(280,740.333,o),
(268,737,cs),
(265.333,736.333,o),
(262.667,736,o),
(260,736,cs),
(246.667,736,o),
(230.667,742.333,o),
(212,755,cs),
(194,767,o),
(175.667,773,o),
(157,773,cs),
(137,773,o),
(118,767,o),
(100,755,cs),
(86.667,747.667,o),
(76.167,739.5,o),
(68.5,730.5,cs),
(60.833,721.5,o),
(56.333,716.333,o),
(55,715,c),
(52,709,l),
(97,669,l)
);
}
);
};
layerId = "27BA4E46-0A2B-46F0-A320-1D87D61B7B36";
shapes = (
{
closed = 1;
nodes = (
(359,0,o),
(374,68,o),
(374,197,cs),
(374,484,ls),
(374,604,o),
(327,649,o),
(199,649,cs),
(69,649,o),
(25,602,o),
(25,484,cs),
(25,165,ls),
(25,47,o),
(69,0,o),
(199,0,cs)
);
},
{
closed = 1;
nodes = (
(144,108,o),
(137,124,o),
(137,192,cs),
(135,484,ls),
(135,533,o),
(139,543,o),
(199,543,cs),
(258,543,o),
(262,542,o),
(262,484,cs),
(262,197,ls),
(262,135,o),
(259,108,o),
(201,108,cs)
);
},
{
closed = 1;
nodes = (
(118,691,l),
(129,700,l),
(137,704,o),
(146,708,o),
(157,708,cs),
(165,708,o),
(172,704,o),
(180,700,c),
(209,681,o),
(235,671,o),
(260,671,cs),
(269,671,ls),
(272,671,o),
(276,671,o),
(279,672,cs),
(303,678,o),
(325,693,o),
(346,718,cs),
(350,723,l),
(304,767,l),
(301,762,ls),
(291,749,o),
(280,740,o),
(268,737,cs),
(265,736,o),
(263,736,o),
(260,736,cs),
(247,736,o),
(231,742,o),
(212,755,cs),
(194,767,o),
(176,773,o),
(157,773,cs),
(137,773,o),
(118,767,o),
(100,755,cs),
(87,748,o),
(76,740,o),
(69,731,cs),
(55,715,l),
(52,709,l),
(97,669,l)
);
}
);
width = 402;
}
);
unicode = 213;
},
{
glyphname = OE;
lastChange = "2024-07-25 10:00:52 +0000";
layers = (
{
background = {
shapes = (
{
closed = 1;
nodes = (
(561,0,l),
(561,106,l),
(357,106,l),
(357,287,l),
(501,287,l),
(501,393,l),
(357,393,l),
(357,544,l),
(561,544,l),
(561,544,l),
(561,649,l),
(245,649,ls),
(117.806,649,o),
(25,604.389,o),
(25,484,cs),
(25,165,ls),
(25,44.611,o),
(117.806,0,o),
(245,0,cs)
);
},
{
closed = 1;
nodes = (
(189.932,108,o),
(137,123.443,o),
(137,192,cs),
(135,483,ls),
(135,530.888,o),
(183.958,543,o),
(245,543,c),
(245,108,l)
);
}
);
};
layerId = "27BA4E46-0A2B-46F0-A320-1D87D61B7B36";
shapes = (
{
closed = 1;
nodes = (
(561,0,l),
(561,106,l),
(357,106,l),
(357,287,l),
(501,287,l),
(501,393,l),
(357,393,l),
(357,544,l),
(561,544,l),
(561,649,l),
(245,649,ls),
(118,649,o),
(25,604,o),
(25,484,cs),
(25,165,ls),
(25,45,o),
(118,0,o),
(245,0,cs)
);
},
{
closed = 1;
nodes = (
(190,108,o),
(137,123,o),
(137,192,cs),
(135,483,ls),
(135,531,o),
(184,543,o),
(245,543,c),
(245,108,l)
);
}
);
width = 580;
}
);
unicode = 338;
},
{
glyphname = P;
lastChange = "2024-07-25 12:26:47 +0000";
layers = (
{
anchors = (
{
name = bottom;
pos = (203,0);
},
{
name = top;
pos = (203,650);
}
);
background = {
shapes = (
{
closed = 1;
nodes = (
(140,0,l),
(140,224,l),
(286.595,224,o),
(380,223.815,o),
(380,388,cs),
(380,394.667,o),
(380.167,401.167,o),
(380.5,407.5,cs),
(380.833,413.833,o),
(381,420,o),
(381,426,cs),
(381,433.333,o),
(381.167,440.667,o),
(381.5,448,cs),
(381.833,455.333,o),
(382,462.667,o),
(382,470,cs),
(382,573.768,o),
(360.993,648,o),
(203,648,cs),
(27,648,l),
(27,0,l)
);
},
{
closed = 1;
nodes = (
(140,543,l),
(140,543,l),
(168,543,ls),
(216.98,543,o),
(269,546.569,o),
(269,481,cs),
(269,478,l),
(269,478,o),
(269,478,o),
(269,478,c),
(269,478,o),
(269,478,o),
(269,478,c),
(269,477,l),
(269,477,o),
(269,477,o),
(269,477,c),
(269,477,o),
(269,477,o),
(269,477,c),
(269,476,l),
(269,476,o),
(269,476,o),
(269,476,c),
(269,476,o),
(269,476,o),
(269,476,c),
(269,475,l),
(269,475,o),
(269,475,o),
(269,475,c),
(269,475,o),
(269,475,o),
(269,475,c),
(269,475,o),
(269,475,o),
(269,475,c),
(269,475,o),
(269,475,o),
(269,475,c),
(269,475,o),
(269,475,o),
(269,475,c),
(269,475,o),
(269,475,o),
(269,475,c),
(269,475,o),
(269,475,o),
(269,475,c),
(269,475,o),
(269,475,o),
(269,475,c),
(269,475,o),
(269,475,o),
(269,475,c),
(269,475,o),
(269,475,o),
(269,475,c),
(269,401,l),
(269,401,o),
(269,401,o),
(269,401,c),
(269,401,o),
(269,401,o),
(269,401,c),
(269,400,l),
(269,400,o),
(269,400,o),
(269,400,c),
(269,400,o),
(269,400,o),
(269,400,c),
(269,400,o),
(269,400,o),
(269,400,c),
(269,399,l),
(269,399,o),
(269,399,o),
(269,399,c),
(269,399,o),
(269,399,o),
(269,399,c),
(269,399,o),
(269,399,o),
(269,399,c),
(269,399,o),
(269,399,o),
(269,399,c),
(269,399,o),
(269,399,o),
(269,399,c),
(269,399,o),
(269,399,o),
(269,399,c),
(269,399,o),
(269,399,o),
(269,399,c),
(269,399,o),
(269,399,o),
(269,399,c),
(269,396,l),
(269,396,o),
(269,396,o),
(269,396,c),
(269,396,o),
(269,396,o),
(269,396,c),
(269,395,l),
(269,395,o),
(269,395,o),
(269,395,c),
(269,395,o),
(269,395,o),
(269,395,c),
(269,395,o),
(269,395,o),
(269,395,c),
(269,395,o),
(269,395,o),
(269,395,c),
(269,395,o),
(269,395,o),
(269,395,c),
(269,395,o),
(269,395,o),
(269,395,c),
(269,395,o),
(269,395,o),
(269,395,c),
(269,394,l),
(269,394,o),
(269,394,o),
(269,394,c),
(269,394,o),
(269,394,o),
(269,394,c),
(269,394,o),
(269,394,o),
(269,394,c),
(269,393,l),
(269,393,o),
(269,393,o),
(269,393,c),
(269,393,o),
(269,393,o),
(269,393,c),
(269,391,l),
(269,391,o),
(269,391,o),
(269,391,c),
(269,391,o),
(269,391,o),
(269,391,c),
(269,328.423,o),
(263.812,329,o),
(140,329,c)
);
},
{
closed = 1;
nodes = (
(269,397,o),
(269,397,o),
(269,397,c),
(269,397,o),
(269,397,o),
(269,397,c)
);
}
);
};
layerId = "27BA4E46-0A2B-46F0-A320-1D87D61B7B36";
shapes = (
{
closed = 1;
nodes = (
(140,0,l),
(140,224,l),
(287,224,o),
(380,224,o),
(380,388,cs),
(381,408,l),
(381,426,l),
(382,448,l),
(382,470,ls),
(382,574,o),
(361,648,o),
(203,648,cs),
(27,648,l),
(27,0,l)
);
},
{
closed = 1;
nodes = (
(140,543,l),
(168,543,ls),
(217,543,o),
(269,547,o),
(269,481,cs),
(269,391,ls),
(269,328,o),
(264,329,o),
(140,329,c)
);
}
);
width = 405;
}
);
unicode = 80;
},
{
glyphname = Thorn;
lastChange = "2024-07-25 10:00:52 +0000";
layers = (
{
background = {
shapes = (
{
closed = 1;
nodes = (
(138,0,l),
(138,74,l),
(156.667,71.333,o),
(176.333,69,o),
(199,69,cs),
(358.694,69,o),
(374,136.949,o),
(374,266,cs),
(374,410,ls),
(374,529.826,o),
(326.811,575,o),
(199,575,cs),
(176.333,575,o),
(156.667,573.667,o),
(138,571,c),
(138,653,l),
(25,653,l),
(25,0,l)
);
},
{
closed = 1;
nodes = (
(154.333,177,o),
(140.667,188.333,o),
(138,227,c),
(138,447,l),
(140.667,455.667,o),
(146.333,461.5,o),
(155,464.5,cs),
(163.667,467.5,o),
(178.333,469,o),
(199,469,cs),
(258.458,469,o),
(262,467.585,o),
(262,410,cs),
(262,266,ls),
(262,203.593,o),
(258.739,177,o),
(201,177,cs)
);
}
);
};
layerId = "27BA4E46-0A2B-46F0-A320-1D87D61B7B36";
shapes = (
{
closed = 1;
nodes = (
(138,0,l),
(138,74,l),
(157,71,o),
(176,69,o),
(199,69,cs),
(359,69,o),
(374,137,o),
(374,266,cs),
(374,410,ls),
(374,530,o),
(327,575,o),
(199,575,cs),
(176,575,o),
(157,574,o),
(138,571,c),
(138,653,l),
(25,653,l),
(25,0,l)
);
},
{
closed = 1;
nodes = (
(154,177,o),
(141,188,o),
(138,227,c),
(138,447,l),
(141,456,o),
(146,462,o),
(155,465,cs),
(164,468,o),
(178,469,o),
(199,469,cs),
(258,469,o),
(262,468,o),
(262,410,cs),
(262,266,ls),
(262,204,o),
(259,177,o),
(201,177,cs)
);
}
);
width = 392;
}
);
unicode = 222;
},
{
glyphname = Q;
lastChange = "2024-07-25 12:26:47 +0000";
layers = (
{
anchors = (
{
name = bottom;
pos = (205,0);
},
{
name = top;
pos = (205,650);
}
);
background = {
shapes = (
{
closed = 1;
nodes = (
(318.333,-46.333,o),
(355.333,-22.667,o),
(382,-4,c),
(367,17,ls),
(363.667,21.667,o),
(360.167,26.667,o),
(356.5,32,cs),
(352.833,37.333,o),
(349.333,41.667,o),
(346,45,c),
(379.333,83.667,o),
(378,134.333,o),
(378,181,cs),
(378,484,ls),
(378,601.597,o),
(333.04,649,o),
(203,649,cs),
(72.035,649,o),
(28,600.766,o),
(28,484,cs),
(28,165,ls),
(28,41,o),
(83,0,o),
(195,0,cs),
(208.333,0,o),
(225.333,0.667,o),
(240,2,c),
(289,-65,l)
);
},
{
closed = 1;
nodes = (
(142.161,107,o),
(140,130.032,o),
(140,163,cs),
(140,505,ls),
(140,533,o),
(169.333,546,o),
(200,546,cs),
(232,546,o),
(266,531.667,o),
(266,505,cs),
(266,188,ls),
(266,139.648,o),
(265.147,109.607,o),
(213,107,cs)
);
}
);
};
layerId = "27BA4E46-0A2B-46F0-A320-1D87D61B7B36";
shapes = (
{
closed = 1;
nodes = (
(318,-46,o),
(355,-23,o),
(382,-4,c),
(367,17,l),
(357,32,l),
(346,45,l),
(379,84,o),
(378,134,o),
(378,181,cs),
(378,484,ls),
(378,602,o),
(333,649,o),
(203,649,cs),
(72,649,o),
(28,601,o),
(28,484,cs),
(28,165,ls),
(28,41,o),
(83,0,o),
(195,0,cs),
(240,2,l),
(289,-65,l)
);
},
{
closed = 1;
nodes = (
(142,107,o),
(140,130,o),
(140,163,cs),
(140,505,ls),
(140,533,o),
(169,546,o),
(200,546,cs),
(232,546,o),
(266,532,o),
(266,505,cs),
(266,188,ls),
(266,140,o),
(265,110,o),
(213,107,cs)
);
}
);
width = 410;
}
);
unicode = 81;
},
{
glyphname = R;
lastChange = "2024-07-25 12:26:47 +0000";
layers = (
{
anchors = (
{
name = bottom;
pos = (205,0);
},
{
name = top;
pos = (205,650);
}
);
background = {
shapes = (
{
closed = 1;
nodes = (
(143,0,l),
(143,224,l),
(176,224,l),
(264,0,l),
(384,0,l),
(384,0,l),
(292,235,l),
(380.764,259.965,o),
(383,336.579,o),
(383,417,cs),
(383,439.667,o),
(385,517.667,o),
(373,559,cs),
(354.728,621.939,o),
(304.246,649,o),
(207,649,cs),
(31,649,l),
(31,0,l)
);
},
{
closed = 1;
nodes = (
(143,544,l),
(143,544,l),
(207,544,ls),
(229,544,o),
(245.167,538.5,o),
(255.5,527.5,cs),
(276.167,505.5,o),
(272,438.333,o),
(272,421,cs),
(272,331.198,o),
(265.867,329,o),
(143,329,c)
);
}
);
};
layerId = "27BA4E46-0A2B-46F0-A320-1D87D61B7B36";
shapes = (
{
closed = 1;
nodes = (
(143,0,l),
(143,224,l),
(176,224,l),
(264,0,l),
(384,0,l),
(292,235,l),
(381,260,o),
(383,337,o),
(383,417,cs),
(383,440,o),
(385,518,o),
(373,559,cs),
(355,622,o),
(304,649,o),
(207,649,cs),
(31,649,l),
(31,0,l)
);
},
{
closed = 1;
nodes = (
(143,544,l),
(207,544,ls),
(229,544,o),
(245,539,o),
(256,528,cs),
(276,506,o),
(272,438,o),
(272,421,cs),
(272,331,o),
(266,329,o),
(143,329,c)
);
}
);
width = 410;
}
);
unicode = 82;
},
{
glyphname = Racute;
lastChange = "2024-07-25 10:00:52 +0000";
layers = (
{
background = {
shapes = (
{
closed = 1;
nodes = (
(143,0,l),
(143,224,l),
(176,224,l),
(264,0,l),
(384,0,l),
(384,0,l),
(292,235,l),
(380.764,259.965,o),
(383,336.579,o),
(383,417,cs),
(383,439.667,o),
(385,517.667,o),
(373,559,cs),
(354.728,621.939,o),
(304.246,649,o),
(207,649,cs),
(31,649,l),
(31,0,l)
);
},
{
closed = 1;
nodes = (
(143,544,l),
(143,544,l),
(207,544,ls),
(229,544,o),
(245.167,538.5,o),
(255.5,527.5,cs),
(276.167,505.5,o),
(272,438.333,o),
(272,421,cs),
(272,331.198,o),
(265.867,329,o),
(143,329,c)
);
},
{
closed = 1;
nodes = (
(155.167,681,o),
(166,681.333,o),
(178,682,cs),
(192,682,o),
(208,682.333,o),
(226,683,c),
(280,764,l),
(183,764,l),
(157,724,ls),
(150.333,714,o),
(144.333,704.667,o),
(139,696,cs),
(133.667,687.333,o),
(131,682.667,o),
(131,682,cs),
(131,681.333,o),
(135.833,681,o),
(145.5,681,cs)
);
}
);
};
layerId = "27BA4E46-0A2B-46F0-A320-1D87D61B7B36";
shapes = (
{
closed = 1;
nodes = (
(143,0,l),
(143,224,l),
(176,224,l),
(264,0,l),
(384,0,l),
(292,235,l),
(381,260,o),
(383,337,o),
(383,417,cs),
(383,440,o),
(385,518,o),
(373,559,cs),
(355,622,o),
(304,649,o),
(207,649,cs),
(31,649,l),
(31,0,l)
);
},
{
closed = 1;
nodes = (
(143,544,l),
(207,544,ls),
(229,544,o),
(245,539,o),
(256,528,cs),
(276,506,o),
(272,438,o),
(272,421,cs),
(272,331,o),
(266,329,o),
(143,329,c)
);
},
{
closed = 1;
nodes = (
(178,682,l),
(226,683,l),
(280,764,l),
(183,764,l),
(157,724,l),
(139,696,l),
(131,682,l),
(131,681,o),
(136,681,o),
(146,681,cs)
);
}
);
width = 410;
}
);
unicode = 340;
},
{
glyphname = Rcaron;
lastChange = "2024-07-25 10:00:52 +0000";
layers = (
{
background = {
shapes = (
{
closed = 1;
nodes = (
(143,0,l),
(143,224,l),
(176,224,l),
(264,0,l),
(384,0,l),
(384,0,l),
(292,235,l),
(380.764,259.965,o),
(383,336.579,o),
(383,417,cs),
(383,439.667,o),
(385,517.667,o),
(373,559,cs),
(354.728,621.939,o),
(304.246,649,o),
(207,649,cs),
(31,649,l),
(31,0,l)
);
},
{
closed = 1;
nodes = (
(143,544,l),
(143,544,l),
(207,544,ls),
(229,544,o),
(245.167,538.5,o),
(255.5,527.5,cs),
(276.167,505.5,o),
(272,438.333,o),
(272,421,cs),
(272,331.198,o),
(265.867,329,o),
(143,329,c)
);
},
{
closed = 1;
nodes = (
(285,671,l),
(343,765,l),
(343,765,l),
(239,765,l),
(200,705,l),
(158,761,l),
(54,761,l),
(114,669,l)
);
}
);
};
layerId = "27BA4E46-0A2B-46F0-A320-1D87D61B7B36";
shapes = (
{
closed = 1;
nodes = (
(143,0,l),
(143,224,l),
(176,224,l),
(264,0,l),
(384,0,l),
(292,235,l),
(381,260,o),
(383,337,o),
(383,417,cs),
(383,440,o),
(385,518,o),
(373,559,cs),
(355,622,o),
(304,649,o),
(207,649,cs),
(31,649,l),
(31,0,l)
);
},
{
closed = 1;
nodes = (
(143,544,l),
(207,544,ls),
(229,544,o),
(245,539,o),
(256,528,cs),
(276,506,o),
(272,438,o),
(272,421,cs),
(272,331,o),
(266,329,o),
(143,329,c)
);
},
{
closed = 1;
nodes = (
(285,671,l),
(343,765,l),
(239,765,l),
(200,705,l),
(158,761,l),
(54,761,l),
(114,669,l)
);
}
);
width = 410;
}
);
unicode = 344;
},
{
glyphname = Rcommaaccent;
lastChange = "2024-07-25 10:00:52 +0000";
layers = (
{
background = {
shapes = (
{
closed = 1;
nodes = (
(143,0,l),
(143,224,l),
(176,224,l),
(264,0,l),
(384,0,l),
(384,0,l),
(292,235,l),
(380.764,259.965,o),
(383,336.579,o),
(383,417,cs),
(383,439.667,o),
(385,517.667,o),
(373,559,cs),
(354.728,621.939,o),
(304.246,649,o),
(207,649,cs),
(31,649,l),
(31,0,l)
);
},
{
closed = 1;
nodes = (
(223,-181.333,o),
(256,-141,o),
(256,-97,cs),
(256,-93.667,o),
(255.667,-90,o),
(255,-86,cs),
(251,-50,o),
(228.333,-37,o),
(203,-37,cs),
(156.813,-37,o),
(139,-72.317,o),
(139,-89,cs),
(139,-92.333,o),
(139.333,-95.667,o),
(140,-99,cs),
(142.667,-108.333,o),
(145.667,-112.667,o),
(151,-118,c),
(151,-117,l),
(156,-125,ls),
(162.667,-135,o),
(166,-147.333,o),
(166,-162,cs),
(166,-174.667,o),
(160,-185,o),
(148,-193,c),
(179,-212,l)
);
},
{
closed = 1;
nodes = (
(143,544,l),
(143,544,l),
(207,544,ls),
(229,544,o),
(245.167,538.5,o),
(255.5,527.5,cs),
(276.167,505.5,o),
(272,438.333,o),
(272,421,cs),
(272,331.198,o),
(265.867,329,o),
(143,329,c)
);
}
);
};
layerId = "27BA4E46-0A2B-46F0-A320-1D87D61B7B36";
shapes = (
{
closed = 1;
nodes = (
(143,0,l),
(143,224,l),
(176,224,l),
(264,0,l),
(384,0,l),
(292,235,l),
(381,260,o),
(383,337,o),
(383,417,cs),
(383,440,o),
(385,518,o),
(373,559,cs),
(355,622,o),
(304,649,o),
(207,649,cs),
(31,649,l),
(31,0,l)
);
},
{
closed = 1;
nodes = (
(223,-181,o),
(256,-141,o),
(256,-97,cs),
(255,-86,ls),
(251,-50,o),
(228,-37,o),
(203,-37,cs),
(157,-37,o),
(139,-72,o),
(139,-89,cs),
(139,-92,o),
(139,-96,o),
(140,-99,cs),
(143,-108,o),
(146,-113,o),
(151,-118,c),
(151,-117,l),
(156,-125,ls),
(163,-135,o),
(166,-147,o),
(166,-162,cs),
(166,-175,o),
(160,-185,o),
(148,-193,c),
(179,-212,l)
);
},
{
closed = 1;
nodes = (
(143,544,l),
(207,544,ls),
(229,544,o),
(245,539,o),
(256,528,cs),
(276,506,o),
(272,438,o),
(272,421,cs),
(272,331,o),
(266,329,o),
(143,329,c)
);
}
);
width = 410;
}
);
unicode = 342;
},
{
glyphname = S;
lastChange = "2024-07-25 12:26:47 +0000";
layers = (
{
anchors = (
{
name = bottom;
pos = (201,0);
},
{
name = top;
pos = (201,650);
}
);
background = {
shapes = (
{
closed = 1;
nodes = (
(330.157,0,o),
(375,45.075,o),
(375,165,cs),
(375,187,ls),
(375,305.8,o),
(376.32,393,o),
(200,393,cs),
(163.906,393,o),
(142.401,398.797,o),
(141,403,cs),
(134.333,421.667,o),
(135,438.333,o),
(135,445,cs),
(135,453,o),
(135.333,460.667,o),
(136,468,cs),
(136,484,ls),
(136,539.95,o),
(138.793,543,o),
(200,543,cs),
(259.834,543,o),
(263,543.226,o),
(263,479,c),
(375,479,l),
(375,599.306,o),
(330.105,648,o),
(200,648,cs),
(69.771,648,o),
(25,602.797,o),
(25,484,cs),
(25,357.391,o),
(36.363,287,o),
(200,287,cs),
(204,287,ls),
(224.094,287,o),
(255.15,285.124,o),
(260,273,c),
(265.333,246.333,o),
(265,227.333,o),
(265,218,cs),
(265,209.333,o),
(264.667,200.667,o),
(264,192,cs),
(264,186.667,o),
(263.833,182,o),
(263.5,178,cs),
(263.167,174,o),
(263,169.667,o),
(263,165,cs),
(263,154,ls),
(263,108.757,o),
(259.414,108.521,o),
(209,106,cs),
(200,106,l),
(200,106,o),
(200,106,o),
(200,106,c),
(200,106,o),
(200,106,o),
(200,106,c),
(200,106,o),
(200,106,o),
(200,106,c),
(200,106,o),
(200,106,o),
(200,106,c),
(200,106,o),
(200,106,o),
(200,106,c),
(200,106,o),
(200,106,o),
(200,106,c),
(195,106,l),
(195,106,o),
(195,106,o),
(195,106,c),
(195,106,o),
(195,106,o),
(195,106,c),
(195,106,o),
(195,106,o),
(195,106,c),
(195,106,o),
(195,106,o),
(195,106,c),
(192,106,l),
(192,106,o),
(192,106,o),
(192,106,c),
(192,106,o),
(192,106,o),
(192,106,c),
(192,106,o),
(192,106,o),
(192,106,c),
(192,106,o),
(192,106,o),
(192,106,c),
(192,106,o),
(192,106,o),
(192,106,c),
(192,106,o),
(192,106,o),
(192,106,c),
(192,106,o),
(192,106,o),
(192,106,c),
(140.171,106,o),
(135,114.909,o),
(135,149,cs),
(135,163,l),
(135,163,o),
(135,163,o),
(135,163,c),
(135,163,o),
(135,163,o),
(135,163,c),
(135,163,o),
(135,163,o),
(135,163,c),
(135,163,o),
(135,163,o),
(135,163,c),
(135,163,o),
(135,163,o),
(135,163,c),
(135,165,ls),
(135,170.333,o),
(135.167,176.333,o),
(135.5,183,cs),
(135.833,189.667,o),
(136,196,o),
(136,202,c),
(25,202,l),
(25,73.47,o),
(35.56,0,o),
(200,0,cs)
);
}
);
};
layerId = "27BA4E46-0A2B-46F0-A320-1D87D61B7B36";
shapes = (
{
closed = 1;
nodes = (
(330,0,o),
(375,45,o),
(375,165,cs),
(375,187,ls),
(375,306,o),
(376,393,o),
(200,393,cs),
(164,393,o),
(142,399,o),
(141,403,cs),
(134,422,o),
(135,438,o),
(135,445,cs),
(136,468,l),
(136,484,ls),
(136,540,o),
(139,543,o),
(200,543,cs),
(260,543,o),
(263,543,o),
(263,479,c),
(375,479,l),
(375,599,o),
(330,648,o),
(200,648,cs),
(70,648,o),
(25,603,o),
(25,484,cs),
(25,357,o),
(36,287,o),
(200,287,cs),
(204,287,ls),
(224,287,o),
(255,285,o),
(260,273,c),
(265,246,o),
(265,227,o),
(265,218,cs),
(264,192,l),
(264,178,l),
(263,165,l),
(263,154,ls),
(263,109,o),
(259,109,o),
(209,106,cs),
(192,106,ls),
(140,106,o),
(135,115,o),
(135,149,cs),
(135,165,l),
(136,183,l),
(136,202,l),
(25,202,l),
(25,73,o),
(36,0,o),
(200,0,cs)
);
}
);
width = 402;
}
);
unicode = 83;
},
{
glyphname = Sacute;
lastChange = "2024-07-25 12:15:26 +0000";
layers = (
{
background = {
shapes = (
{
closed = 1;
nodes = (
(330.157,0,o),
(375,45.075,o),
(375,165,cs),
(375,187,ls),
(375,305.8,o),
(376.32,393,o),
(200,393,cs),
(163.906,393,o),
(142.401,398.797,o),
(141,403,cs),
(134.333,421.667,o),
(135,438.333,o),
(135,445,cs),
(135,453,o),
(135.333,460.667,o),
(136,468,cs),
(136,484,ls),
(136,539.95,o),
(138.793,543,o),
(200,543,cs),
(259.834,543,o),
(263,543.226,o),
(263,479,c),
(375,479,l),
(375,599.306,o),
(330.105,648,o),
(200,648,cs),
(69.771,648,o),
(25,602.797,o),
(25,484,cs),
(25,357.391,o),
(36.363,287,o),
(200,287,cs),
(204,287,ls),
(224.094,287,o),
(255.15,285.124,o),
(260,273,c),
(265.333,246.333,o),
(265,227.333,o),
(265,218,cs),
(265,209.333,o),
(264.667,200.667,o),
(264,192,cs),
(264,186.667,o),
(263.833,182,o),
(263.5,178,cs),
(263.167,174,o),
(263,169.667,o),
(263,165,cs),
(263,154,ls),
(263,108.757,o),
(259.414,108.521,o),
(209,106,cs),
(200,106,l),
(200,106,o),
(200,106,o),
(200,106,c),
(200,106,o),
(200,106,o),
(200,106,c),
(200,106,o),
(200,106,o),
(200,106,c),
(200,106,o),
(200,106,o),
(200,106,c),
(200,106,o),
(200,106,o),
(200,106,c),
(200,106,o),
(200,106,o),
(200,106,c),
(195,106,l),
(195,106,o),
(195,106,o),
(195,106,c),
(195,106,o),
(195,106,o),
(195,106,c),
(195,106,o),
(195,106,o),
(195,106,c),
(195,106,o),
(195,106,o),
(195,106,c),
(192,106,l),
(192,106,o),
(192,106,o),
(192,106,c),
(192,106,o),
(192,106,o),
(192,106,c),
(192,106,o),
(192,106,o),
(192,106,c),
(192,106,o),
(192,106,o),
(192,106,c),
(192,106,o),
(192,106,o),
(192,106,c),
(192,106,o),
(192,106,o),
(192,106,c),
(192,106,o),
(192,106,o),
(192,106,c),
(140.171,106,o),
(135,114.909,o),
(135,149,cs),
(135,163,l),
(135,163,o),
(135,163,o),
(135,163,c),
(135,163,o),
(135,163,o),
(135,163,c),
(135,163,o),
(135,163,o),
(135,163,c),
(135,163,o),
(135,163,o),
(135,163,c),
(135,163,o),
(135,163,o),
(135,163,c),
(135,165,ls),
(135,170.333,o),
(135.167,176.333,o),
(135.5,183,cs),
(135.833,189.667,o),
(136,196,o),
(136,202,c),
(25,202,l),
(25,73.47,o),
(35.56,0,o),
(200,0,cs)
);
},
{
closed = 1;
nodes = (
(149.167,681,o),
(160,681.333,o),
(172,682,cs),
(186,682,o),
(202,682.333,o),
(220,683,c),
(274,764,l),
(177,764,l),
(151,724,ls),
(144.333,714,o),
(138.333,704.667,o),
(133,696,cs),
(127.667,687.333,o),
(125,682.667,o),
(125,682,cs),
(125,681.333,o),
(129.833,681,o),
(139.5,681,cs)
);
}
);
};
layerId = "27BA4E46-0A2B-46F0-A320-1D87D61B7B36";
shapes = (
{
closed = 1;
nodes = (
(330,0,o),
(375,45,o),
(375,165,cs),
(375,187,ls),
(375,306,o),
(376,393,o),
(200,393,cs),
(164,393,o),
(142,399,o),
(141,403,cs),
(134,422,o),
(135,438,o),
(135,445,cs),
(136,468,l),
(136,484,ls),
(136,540,o),
(139,543,o),
(200,543,cs),
(260,543,o),
(263,543,o),
(263,479,c),
(375,479,l),
(375,599,o),
(330,648,o),
(200,648,cs),
(70,648,o),
(25,603,o),
(25,484,cs),
(25,357,o),
(36,287,o),
(200,287,cs),
(204,287,ls),
(224,287,o),
(255,285,o),
(260,273,c),
(265,246,o),
(265,227,o),
(265,218,cs),
(264,192,l),
(264,178,l),
(263,165,l),
(263,154,ls),
(263,109,o),
(259,109,o),
(209,106,cs),
(192,106,ls),
(140,106,o),
(135,115,o),
(135,149,cs),
(135,165,l),
(136,183,l),
(136,202,l),
(25,202,l),
(25,73,o),
(36,0,o),
(200,0,cs)
);
},
{
closed = 1;
nodes = (
(172,682,l),
(220,683,l),
(274,764,l),
(177,764,l),
(151,724,l),
(133,696,l),
(125,682,l),
(125,681,o),
(130,681,o),
(140,681,cs)
);
}
);
width = 402;
}
);
unicode = 346;
},
{
glyphname = Scaron;
lastChange = "2024-07-25 12:15:26 +0000";
layers = (
{
background = {
shapes = (
{
closed = 1;
nodes = (
(330.157,0,o),
(375,45.075,o),
(375,165,cs),
(375,187,ls),
(375,305.8,o),
(376.32,393,o),
(200,393,cs),
(163.906,393,o),
(142.401,398.797,o),
(141,403,cs),
(134.333,421.667,o),
(135,438.333,o),
(135,445,cs),
(135,453,o),
(135.333,460.667,o),
(136,468,cs),
(136,484,ls),
(136,539.95,o),
(138.793,543,o),
(200,543,cs),
(259.834,543,o),
(263,543.226,o),
(263,479,c),
(375,479,l),
(375,599.306,o),
(330.105,648,o),
(200,648,cs),
(69.771,648,o),
(25,602.797,o),
(25,484,cs),
(25,357.391,o),
(36.363,287,o),
(200,287,cs),
(204,287,ls),
(224.094,287,o),
(255.15,285.124,o),
(260,273,c),
(265.333,246.333,o),
(265,227.333,o),
(265,218,cs),
(265,209.333,o),
(264.667,200.667,o),
(264,192,cs),
(264,186.667,o),
(263.833,182,o),
(263.5,178,cs),
(263.167,174,o),
(263,169.667,o),
(263,165,cs),
(263,154,ls),
(263,108.757,o),
(259.414,108.521,o),
(209,106,cs),
(200,106,l),
(200,106,o),
(200,106,o),
(200,106,c),
(200,106,o),
(200,106,o),
(200,106,c),
(200,106,o),
(200,106,o),
(200,106,c),
(200,106,o),
(200,106,o),
(200,106,c),
(200,106,o),
(200,106,o),
(200,106,c),
(200,106,o),
(200,106,o),
(200,106,c),
(195,106,l),
(195,106,o),
(195,106,o),
(195,106,c),
(195,106,o),
(195,106,o),
(195,106,c),
(195,106,o),
(195,106,o),
(195,106,c),
(195,106,o),
(195,106,o),
(195,106,c),
(192,106,l),
(192,106,o),
(192,106,o),
(192,106,c),
(192,106,o),
(192,106,o),
(192,106,c),
(192,106,o),
(192,106,o),
(192,106,c),
(192,106,o),
(192,106,o),
(192,106,c),
(192,106,o),
(192,106,o),
(192,106,c),
(192,106,o),
(192,106,o),
(192,106,c),
(192,106,o),
(192,106,o),
(192,106,c),
(140.171,106,o),
(135,114.909,o),
(135,149,cs),
(135,163,l),
(135,163,o),
(135,163,o),
(135,163,c),
(135,163,o),
(135,163,o),
(135,163,c),
(135,163,o),
(135,163,o),
(135,163,c),
(135,163,o),
(135,163,o),
(135,163,c),
(135,163,o),
(135,163,o),
(135,163,c),
(135,165,ls),
(135,170.333,o),
(135.167,176.333,o),
(135.5,183,cs),
(135.833,189.667,o),
(136,196,o),
(136,202,c),
(25,202,l),
(25,73.47,o),
(35.56,0,o),
(200,0,cs)
);
},
{
closed = 1;
nodes = (
(280,671,l),
(338,765,l),
(338,765,l),
(234,765,l),
(195,705,l),
(153,761,l),
(49,761,l),
(109,669,l)
);
}
);
};
layerId = "27BA4E46-0A2B-46F0-A320-1D87D61B7B36";
shapes = (
{
closed = 1;
nodes = (
(330,0,o),
(375,45,o),
(375,165,cs),
(375,187,ls),
(375,306,o),
(376,393,o),
(200,393,cs),
(164,393,o),
(142,399,o),
(141,403,cs),
(134,422,o),
(135,438,o),
(135,445,cs),
(136,468,l),
(136,484,ls),
(136,540,o),
(139,543,o),
(200,543,cs),
(260,543,o),
(263,543,o),
(263,479,c),
(375,479,l),
(375,599,o),
(330,648,o),
(200,648,cs),
(70,648,o),
(25,603,o),
(25,484,cs),
(25,357,o),
(36,287,o),
(200,287,cs),
(204,287,ls),
(224,287,o),
(255,285,o),
(260,273,c),
(265,246,o),
(265,227,o),
(265,218,cs),
(264,192,l),
(264,178,l),
(263,165,l),
(263,154,ls),
(263,109,o),
(259,109,o),
(209,106,cs),
(192,106,ls),
(140,106,o),
(135,115,o),
(135,149,cs),
(135,165,l),
(136,183,l),
(136,202,l),
(25,202,l),
(25,73,o),
(36,0,o),
(200,0,cs)
);
},
{
closed = 1;
nodes = (
(280,671,l),
(338,765,l),
(234,765,l),
(195,705,l),
(153,761,l),
(49,761,l),
(109,669,l)
);
}
);
width = 402;
}
);
unicode = 352;
},
{
glyphname = Scedilla;
lastChange = "2024-07-25 12:29:33 +0000";
layers = (
{
background = {
shapes = (
{
closed = 1;
nodes = (
(195.333,-135,o),
(223,-139.667,o),
(255,-113,cs),
(272.333,-98.333,o),
(281,-75.667,o),
(281,-57,cs),
(281,-43,o),
(276.333,-30.667,o),
(267,-20,cs),
(259.667,-12,o),
(247.667,-5.333,o),
(231,0,c),
(240,0,ls),
(242.667,0,o),
(245.333,0.333,o),
(248,1,cs),
(250.667,1,o),
(253.333,1.167,o),
(256,1.5,cs),
(258.667,1.833,o),
(261.333,2,o),
(264,2,cs),
(257,2,l),
(346.333,15.333,o),
(377,64,o),
(377,164,cs),
(377,186,ls),
(377,304.8,o),
(378.32,392,o),
(202,392,cs),
(165.906,392,o),
(144.401,397.797,o),
(143,402,cs),
(136.333,420.667,o),
(137,437.333,o),
(137,444,cs),
(137,452,o),
(137.333,459.667,o),
(138,467,cs),
(138,483,ls),
(138,539.483,o),
(141.515,542,o),
(202,542,cs),
(261.834,542,o),
(265,542.226,o),
(265,478,c),
(377,478,l),
(377,598.306,o),
(332.105,647,o),
(202,647,cs),
(71.771,647,o),
(27,601.797,o),
(27,483,cs),
(27,356.391,o),
(38.363,286,o),
(202,286,cs),
(206,286,ls),
(222.91,286,o),
(256.352,283.296,o),
(262,272,c),
(267.333,245.333,o),
(267,226.333,o),
(267,217,cs),
(267,208.333,o),
(266.667,199.667,o),
(266,191,cs),
(266,185.667,o),
(265.833,181,o),
(265.5,177,cs),
(265.167,173,o),
(265,168.667,o),
(265,164,cs),
(265,153,ls),
(265,110.365,o),
(263.064,107.603,o),
(211,105,cs),
(198,105,l),
(198,105,o),
(198,105,o),
(198,105,c),
(198,105,o),
(198,105,o),
(198,105,c),
(198,105,o),
(198,105,o),
(198,105,c),
(197.333,105,o),
(197,105,o),
(197,105,c),
(197,105,o),
(197,105,o),
(197,105,c),
(197,105,o),
(197,105,o),
(197,105,c),
(194,105,ls),
(142.171,105,o),
(137,113.909,o),
(137,148,c),
(137,148,o),
(137,148,o),
(137,148,c),
(137,149,l),
(137,149,o),
(137,149,o),
(137,149,c),
(137,149,o),
(137,149,o),
(137,149,c),
(137,149,o),
(137,149,o),
(137,149,c),
(137,161,l),
(137,161,o),
(137,161,o),
(137,161,c),
(137,162,l),
(137,162,o),
(137,162,o),
(137,162,c),
(137,162,o),
(137,162,o),
(137,162,c),
(137,162,o),
(137,162,o),
(137,162,c),
(137,163,l),
(137,163,o),
(137,163,o),
(137,163,c),
(137,164,l),
(137,164,o),
(137,164,o),
(137,164,c),
(137,164,o),
(137,164,o),
(137,164,c),
(137,164,o),
(137,164,o),
(137,164,c),
(137,169.333,o),
(137.167,175.333,o),
(137.5,182,cs),
(137.833,188.667,o),
(138,195,o),
(138,201,c),
(27,201,l),
(27,75.949,o),
(38.709,4.307,o),
(182,-1,c),
(157,-38,l),
(159,-38,o),
(161,-37.833,o),
(163,-37.5,cs),
(165,-37.167,o),
(166.667,-37,o),
(168,-37,cs),
(177.333,-37,o),
(185.667,-40,o),
(193,-46,cs),
(199.667,-52.667,o),
(203,-59.667,o),
(203,-67,cs),
(203,-78.333,o),
(198,-88.333,o),
(188,-97,cs),
(176.667,-106.333,o),
(164,-111,o),
(150,-111,cs),
(143.333,-111,o),
(137,-110.333,o),
(129,-109,c),
(137,-133,l),
(153,-134.333,o),
(168,-135,o),
(182,-135,cs)
);
}
);
};
layerId = "27BA4E46-0A2B-46F0-A320-1D87D61B7B36";
shapes = (
{
ref = S;
},
{
pos = (60,0);
ref = cedillacomb;
}
);
width = 402;
}
);
unicode = 350;
},
{
glyphname = Scircumflex;
lastChange = "2024-07-25 12:15:26 +0000";
layers = (
{
background = {
shapes = (
{
closed = 1;
nodes = (
(330.157,0,o),
(375,45.075,o),
(375,165,cs),
(375,187,ls),
(375,305.8,o),
(376.32,393,o),
(200,393,cs),
(163.906,393,o),
(142.401,398.797,o),
(141,403,cs),
(134.333,421.667,o),
(135,438.333,o),
(135,445,cs),
(135,453,o),
(135.333,460.667,o),
(136,468,cs),
(136,484,ls),
(136,539.95,o),
(138.793,543,o),
(200,543,cs),
(259.834,543,o),
(263,543.226,o),
(263,479,c),
(375,479,l),
(375,599.306,o),
(330.105,648,o),
(200,648,cs),
(69.771,648,o),
(25,602.797,o),
(25,484,cs),
(25,357.391,o),
(36.363,287,o),
(200,287,cs),
(204,287,ls),
(224.094,287,o),
(255.15,285.124,o),
(260,273,c),
(265.333,246.333,o),
(265,227.333,o),
(265,218,cs),
(265,209.333,o),
(264.667,200.667,o),
(264,192,cs),
(264,186.667,o),
(263.833,182,o),
(263.5,178,cs),
(263.167,174,o),
(263,169.667,o),
(263,165,cs),
(263,154,ls),
(263,108.757,o),
(259.414,108.521,o),
(209,106,cs),
(200,106,l),
(200,106,o),
(200,106,o),
(200,106,c),
(200,106,o),
(200,106,o),
(200,106,c),
(200,106,o),
(200,106,o),
(200,106,c),
(200,106,o),
(200,106,o),
(200,106,c),
(200,106,o),
(200,106,o),
(200,106,c),
(200,106,o),
(200,106,o),
(200,106,c),
(195,106,l),
(195,106,o),
(195,106,o),
(195,106,c),
(195,106,o),
(195,106,o),
(195,106,c),
(195,106,o),
(195,106,o),
(195,106,c),
(195,106,o),
(195,106,o),
(195,106,c),
(192,106,l),
(192,106,o),
(192,106,o),
(192,106,c),
(192,106,o),
(192,106,o),
(192,106,c),
(192,106,o),
(192,106,o),
(192,106,c),
(192,106,o),
(192,106,o),
(192,106,c),
(192,106,o),
(192,106,o),
(192,106,c),
(192,106,o),
(192,106,o),
(192,106,c),
(192,106,o),
(192,106,o),
(192,106,c),
(140.171,106,o),
(135,114.909,o),
(135,149,cs),
(135,163,l),
(135,163,o),
(135,163,o),
(135,163,c),
(135,163,o),
(135,163,o),
(135,163,c),
(135,163,o),
(135,163,o),
(135,163,c),
(135,163,o),
(135,163,o),
(135,163,c),
(135,163,o),
(135,163,o),
(135,163,c),
(135,165,ls),
(135,170.333,o),
(135.167,176.333,o),
(135.5,183,cs),
(135.833,189.667,o),
(136,196,o),
(136,202,c),
(25,202,l),
(25,73.47,o),
(35.56,0,o),
(200,0,cs)
);
},
{
closed = 1;
nodes = (
(158,676,l),
(197,736,l),
(239,680,l),
(343,680,l),
(283,774,l),
(112,772,l),
(54,676,l),
(54,676,l)
);
}
);
};
layerId = "27BA4E46-0A2B-46F0-A320-1D87D61B7B36";
shapes = (
{
closed = 1;
nodes = (
(330,0,o),
(375,45,o),
(375,165,cs),
(375,187,ls),
(375,306,o),
(376,393,o),
(200,393,cs),
(164,393,o),
(142,399,o),
(141,403,cs),
(134,422,o),
(135,438,o),
(135,445,cs),
(136,468,l),
(136,484,ls),
(136,540,o),
(139,543,o),
(200,543,cs),
(260,543,o),
(263,543,o),
(263,479,c),
(375,479,l),
(375,599,o),
(330,648,o),
(200,648,cs),
(70,648,o),
(25,603,o),
(25,484,cs),
(25,357,o),
(36,287,o),
(200,287,cs),
(204,287,ls),
(224,287,o),
(255,285,o),
(260,273,c),
(265,246,o),
(265,227,o),
(265,218,cs),
(264,192,l),
(264,178,l),
(263,165,l),
(263,154,ls),
(263,109,o),
(259,109,o),
(209,106,cs),
(192,106,ls),
(140,106,o),
(135,115,o),
(135,149,cs),
(135,165,l),
(136,183,l),
(136,202,l),
(25,202,l),
(25,73,o),
(36,0,o),
(200,0,cs)
);
},
{
closed = 1;
nodes = (
(158,676,l),
(197,736,l),
(239,680,l),
(343,680,l),
(283,774,l),
(112,772,l),
(54,676,l)
);
}
);
width = 402;
}
);
unicode = 348;
},
{
glyphname = Scommaaccent;
lastChange = "2024-07-25 12:15:26 +0000";
layers = (
{
background = {
shapes = (
{
closed = 1;
nodes = (
(330.157,0,o),
(375,45.075,o),
(375,165,cs),
(375,187,ls),
(375,305.8,o),
(376.32,393,o),
(200,393,cs),
(163.906,393,o),
(142.401,398.797,o),
(141,403,cs),
(134.333,421.667,o),
(135,438.333,o),
(135,445,cs),
(135,453,o),
(135.333,460.667,o),
(136,468,cs),
(136,484,ls),
(136,539.95,o),
(138.793,543,o),
(200,543,cs),
(259.834,543,o),
(263,543.226,o),
(263,479,c),
(375,479,l),
(375,599.306,o),
(330.105,648,o),
(200,648,cs),
(69.771,648,o),
(25,602.797,o),
(25,484,cs),
(25,357.391,o),
(36.363,287,o),
(200,287,cs),
(204,287,ls),
(224.094,287,o),
(255.15,285.124,o),
(260,273,c),
(265.333,246.333,o),
(265,227.333,o),
(265,218,cs),
(265,209.333,o),
(264.667,200.667,o),
(264,192,cs),
(264,186.667,o),
(263.833,182,o),
(263.5,178,cs),
(263.167,174,o),
(263,169.667,o),
(263,165,cs),
(263,154,ls),
(263,108.757,o),
(259.414,108.521,o),
(209,106,cs),
(200,106,l),
(200,106,o),
(200,106,o),
(200,106,c),
(200,106,o),
(200,106,o),
(200,106,c),
(200,106,o),
(200,106,o),
(200,106,c),
(200,106,o),
(200,106,o),
(200,106,c),
(200,106,o),
(200,106,o),
(200,106,c),
(200,106,o),
(200,106,o),
(200,106,c),
(195,106,l),
(195,106,o),
(195,106,o),
(195,106,c),
(195,106,o),
(195,106,o),
(195,106,c),
(195,106,o),
(195,106,o),
(195,106,c),
(195,106,o),
(195,106,o),
(195,106,c),
(192,106,l),
(192,106,o),
(192,106,o),
(192,106,c),
(192,106,o),
(192,106,o),
(192,106,c),
(192,106,o),
(192,106,o),
(192,106,c),
(192,106,o),
(192,106,o),
(192,106,c),
(192,106,o),
(192,106,o),
(192,106,c),
(192,106,o),
(192,106,o),
(192,106,c),
(192,106,o),
(192,106,o),
(192,106,c),
(140.171,106,o),
(135,114.909,o),
(135,149,cs),
(135,163,l),
(135,163,o),
(135,163,o),
(135,163,c),
(135,163,o),
(135,163,o),
(135,163,c),
(135,163,o),
(135,163,o),
(135,163,c),
(135,163,o),
(135,163,o),
(135,163,c),
(135,163,o),
(135,163,o),
(135,163,c),
(135,165,ls),
(135,170.333,o),
(135.167,176.333,o),
(135.5,183,cs),
(135.833,189.667,o),
(136,196,o),
(136,202,c),
(25,202,l),
(25,73.47,o),
(35.56,0,o),
(200,0,cs)
);
},
{
closed = 1;
nodes = (
(225,-181.333,o),
(258,-141,o),
(258,-97,cs),
(258,-93.667,o),
(257.667,-90,o),
(257,-86,cs),
(253,-50,o),
(230.333,-37,o),
(205,-37,cs),
(158.813,-37,o),
(141,-72.317,o),
(141,-89,cs),
(141,-92.333,o),
(141.333,-95.667,o),
(142,-99,cs),
(144.667,-108.333,o),
(147.667,-112.667,o),
(153,-118,c),
(153,-117,l),
(158,-125,ls),
(164.667,-135,o),
(168,-147.333,o),
(168,-162,cs),
(168,-174.667,o),
(162,-185,o),
(150,-193,c),
(181,-212,l)
);
}
);
};
layerId = "27BA4E46-0A2B-46F0-A320-1D87D61B7B36";
shapes = (
{
closed = 1;
nodes = (
(330,0,o),
(375,45,o),
(375,165,cs),
(375,187,ls),
(375,306,o),
(376,393,o),
(200,393,cs),
(164,393,o),
(142,399,o),
(141,403,cs),
(134,422,o),
(135,438,o),
(135,445,cs),
(136,468,l),
(136,484,ls),
(136,540,o),
(139,543,o),
(200,543,cs),
(260,543,o),
(263,543,o),
(263,479,c),
(375,479,l),
(375,599,o),
(330,648,o),
(200,648,cs),
(70,648,o),
(25,603,o),
(25,484,cs),
(25,357,o),
(36,287,o),
(200,287,cs),
(204,287,ls),
(224,287,o),
(255,285,o),
(260,273,c),
(265,246,o),
(265,227,o),
(265,218,cs),
(264,192,l),
(264,178,l),
(263,165,l),
(263,154,ls),
(263,109,o),
(259,109,o),
(209,106,cs),
(192,106,ls),
(140,106,o),
(135,115,o),
(135,149,cs),
(135,165,l),
(136,183,l),
(136,202,l),
(25,202,l),
(25,73,o),
(36,0,o),
(200,0,cs)
);
},
{
closed = 1;
nodes = (
(225,-181,o),
(258,-141,o),
(258,-97,cs),
(257,-86,ls),
(253,-50,o),
(230,-37,o),
(205,-37,cs),
(159,-37,o),
(141,-72,o),
(141,-89,cs),
(141,-92,o),
(141,-96,o),
(142,-99,cs),
(145,-108,o),
(148,-113,o),
(153,-118,c),
(153,-117,l),
(158,-125,ls),
(165,-135,o),
(168,-147,o),
(168,-162,cs),
(168,-175,o),
(162,-185,o),
(150,-193,c),
(181,-212,l)
);
}
);
width = 402;
}
);
unicode = 536;
},
{
glyphname = Germandbls;
lastChange = "2024-07-25 10:00:52 +0000";
layers = (
{
background = {
shapes = (
{
closed = 1;
nodes = (
(134,0,l),
(134,548,l),
(254,548,l),
(196,396,l),
(196,289,l),
(224,289,ls),
(230.667,289,o),
(236.333,288.333,o),
(241,287,cs),
(245.667,285.667,o),
(251.667,284,o),
(259,282,cs),
(270.333,278.667,o),
(278,271,o),
(282,259,cs),
(286,247,o),
(288,226.667,o),
(288,198,cs),
(288,181,ls),
(288,142.333,o),
(260,108.667,o),
(192,106,c),
(192,0,l),
(354.609,0,o),
(400,69.831,o),
(400,198,cs),
(400,260.728,o),
(405.861,333.407,o),
(307,382,c),
(397,653,l),
(397,653,l),
(23,653,l),
(23,0,l)
);
}
);
};
layerId = "27BA4E46-0A2B-46F0-A320-1D87D61B7B36";
shapes = (
{
closed = 1;
nodes = (
(134,0,l),
(134,548,l),
(254,548,l),
(196,396,l),
(196,289,l),
(224,289,ls),
(231,289,o),
(236,288,o),
(241,287,cs),
(259,282,ls),
(270,279,o),
(278,271,o),
(282,259,cs),
(286,247,o),
(288,227,o),
(288,198,cs),
(288,181,ls),
(288,142,o),
(260,109,o),
(192,106,c),
(192,0,l),
(355,0,o),
(400,70,o),
(400,198,cs),
(400,261,o),
(406,333,o),
(307,382,c),
(397,653,l),
(23,653,l),
(23,0,l)
);
}
);
width = 423;
}
);
unicode = 7838;
},
{
glyphname = T;
lastChange = "2024-07-25 12:26:47 +0000";
layers = (
{
anchors = (
{
name = bottom;
pos = (149,0);
},
{
name = center;
pos = (149,325);
},
{
name = top;
pos = (149,650);
}
);
background = {
shapes = (
{
closed = 1;
nodes = (
(202,0,l),
(202,544,l),
(306,544,l),
(306,649,l),
(306,649,l),
(-13,649,l),
(-13,544,l),
(91,544,l),
(91,0,l)
);
}
);
};
layerId = "27BA4E46-0A2B-46F0-A320-1D87D61B7B36";
shapes = (
{
closed = 1;
nodes = (
(202,0,l),
(202,544,l),
(306,544,l),
(306,649,l),
(-13,649,l),
(-13,544,l),
(91,544,l),
(91,0,l)
);
}
);
width = 297;
}
);
unicode = 84;
},
{
glyphname = Tbar;
lastChange = "2024-07-25 10:00:52 +0000";
layers = (
{
background = {
shapes = (
{
closed = 1;
nodes = (
(203,0,l),
(203,355,l),
(285,355,l),
(285,430,l),
(203,430,l),
(203,544,l),
(307,544,l),
(307,649,l),
(307,649,l),
(-12,649,l),
(-12,544,l),
(92,544,l),
(92,430,l),
(10,430,l),
(10,355,l),
(92,355,l),
(92,0,l)
);
}
);
};
layerId = "27BA4E46-0A2B-46F0-A320-1D87D61B7B36";
shapes = (
{
closed = 1;
nodes = (
(203,0,l),
(203,355,l),
(285,355,l),
(285,430,l),
(203,430,l),
(203,544,l),
(307,544,l),
(307,649,l),
(-12,649,l),
(-12,544,l),
(92,544,l),
(92,430,l),
(10,430,l),
(10,355,l),
(92,355,l),
(92,0,l)
);
}
);
width = 297;
}
);
unicode = 358;
},
{
glyphname = Tcaron;
lastChange = "2024-07-25 10:00:52 +0000";
layers = (
{
background = {
shapes = (
{
closed = 1;
nodes = (
(202,0,l),
(202,544,l),
(306,544,l),
(306,649,l),
(306,649,l),
(-13,649,l),
(-13,544,l),
(91,544,l),
(91,0,l)
);
},
{
closed = 1;
nodes = (
(236,671,l),
(294,765,l),
(294,765,l),
(190,765,l),
(151,705,l),
(109,761,l),
(5,761,l),
(65,669,l)
);
}
);
};
layerId = "27BA4E46-0A2B-46F0-A320-1D87D61B7B36";
shapes = (
{
closed = 1;
nodes = (
(202,0,l),
(202,544,l),
(306,544,l),
(306,649,l),
(-13,649,l),
(-13,544,l),
(91,544,l),
(91,0,l)
);
},
{
closed = 1;
nodes = (
(236,671,l),
(294,765,l),
(190,765,l),
(151,705,l),
(109,761,l),
(5,761,l),
(65,669,l)
);
}
);
width = 297;
}
);
unicode = 356;
},
{
glyphname = Tcedilla;
lastChange = "2024-07-25 10:00:52 +0000";
layers = (
{
background = {
shapes = (
{
closed = 1;
nodes = (
(181.333,-135,o),
(194,-134.333,o),
(208,-133,c),
(215,-109,l),
(208.333,-110.333,o),
(202.333,-111,o),
(197,-111,cs),
(185,-111,o),
(174.333,-106.333,o),
(165,-97,cs),
(156.333,-88.333,o),
(152,-78.333,o),
(152,-67,cs),
(152,-60.333,o),
(155,-53.333,o),
(161,-46,cs),
(165.667,-40,o),
(172.667,-37,o),
(182,-37,cs),
(183.333,-37,o),
(184.833,-37.167,o),
(186.5,-37.5,cs),
(188.167,-37.833,o),
(189.667,-38,o),
(191,-38,c),
(169,0,l),
(206,0,l),
(206,544,l),
(206,544,l),
(310,544,l),
(310,649,l),
(-9,649,l),
(-9,544,l),
(95,544,l),
(95,0,l),
(128,0,l),
(115.333,-4,o),
(105.333,-10.667,o),
(98,-20,cs),
(90,-30,o),
(86,-42.333,o),
(86,-57,cs),
(86,-75.667,o),
(93.333,-98.333,o),
(108,-113,cs),
(134.667,-139.667,o),
(158,-135,o),
(170,-135,cs)
);
}
);
};
layerId = "27BA4E46-0A2B-46F0-A320-1D87D61B7B36";
shapes = (
{
closed = 1;
nodes = (
(208,-133,l),
(215,-109,l),
(208,-110,o),
(202,-111,o),
(197,-111,cs),
(185,-111,o),
(174,-106,o),
(165,-97,cs),
(156,-88,o),
(152,-78,o),
(152,-67,cs),
(152,-60,o),
(155,-53,o),
(161,-46,cs),
(166,-40,o),
(173,-37,o),
(182,-37,cs),
(187,-37,l),
(191,-38,l),
(169,0,l),
(206,0,l),
(206,544,l),
(310,544,l),
(310,649,l),
(-9,649,l),
(-9,544,l),
(95,544,l),
(95,0,l),
(128,0,l),
(115,-4,o),
(105,-11,o),
(98,-20,cs),
(90,-30,o),
(86,-42,o),
(86,-57,cs),
(86,-76,o),
(93,-98,o),
(108,-113,cs),
(135,-140,o),
(158,-135,o),
(170,-135,cs)
);
}
);
width = 297;
}
);
unicode = 354;
},
{
glyphname = Tcommaaccent;
lastChange = "2024-07-25 10:00:52 +0000";
layers = (
{
background = {
shapes = (
{
closed = 1;
nodes = (
(202,0,l),
(202,544,l),
(306,544,l),
(306,649,l),
(306,649,l),
(-13,649,l),
(-13,544,l),
(91,544,l),
(91,0,l)
);
},
{
closed = 1;
nodes = (
(177,-181.333,o),
(210,-141,o),
(210,-97,cs),
(210,-93.667,o),
(209.667,-90,o),
(209,-86,cs),
(205,-50,o),
(182.333,-37,o),
(157,-37,cs),
(110.813,-37,o),
(93,-72.317,o),
(93,-89,cs),
(93,-92.333,o),
(93.333,-95.667,o),
(94,-99,cs),
(96.667,-108.333,o),
(99.667,-112.667,o),
(105,-118,c),
(105,-117,l),
(110,-125,ls),
(116.667,-135,o),
(120,-147.333,o),
(120,-162,cs),
(120,-174.667,o),
(114,-185,o),
(102,-193,c),
(133,-212,l)
);
}
);
};
layerId = "27BA4E46-0A2B-46F0-A320-1D87D61B7B36";
shapes = (
{
closed = 1;
nodes = (
(202,0,l),
(202,544,l),
(306,544,l),
(306,649,l),
(-13,649,l),
(-13,544,l),
(91,544,l),
(91,0,l)
);
},
{
closed = 1;
nodes = (
(177,-181,o),
(210,-141,o),
(210,-97,cs),
(209,-86,ls),
(205,-50,o),
(182,-37,o),
(157,-37,cs),
(111,-37,o),
(93,-72,o),
(93,-89,cs),
(93,-92,o),
(93,-96,o),
(94,-99,cs),
(97,-108,o),
(100,-113,o),
(105,-118,c),
(105,-117,l),
(110,-125,ls),
(117,-135,o),
(120,-147,o),
(120,-162,cs),
(120,-175,o),
(114,-185,o),
(102,-193,c),
(133,-212,l)
);
}
);
width = 297;
}
);
unicode = 538;
},
{
glyphname = U;
lastChange = "2024-07-25 12:26:47 +0000";
layers = (
{
anchors = (
{
name = bottom;
pos = (201,0);
},
{
name = ogonek;
pos = (361,10);
},
{
name = top;
pos = (201,650);
},
{
name = topright;
pos = (381,650);
}
);
background = {
shapes = (
{
closed = 1;
nodes = (
(362.927,0,o),
(375,69.3,o),
(375,197,cs),
(375,648,l),
(264,648,l),
(264,632.667,o),
(263.333,460.333,o),
(262,131,c),
(259.333,116.333,o),
(230,107,o),
(202,107,cs),
(175.333,107,o),
(149.667,114.333,o),
(143,125,c),
(144,125,l),
(140,134.333,o),
(140,149.333,o),
(140,160,cs),
(140,165,l),
(137,648,l),
(25,648,l),
(25,648,l),
(25,165,ls),
(25,45.075,o),
(69.843,0,o),
(200,0,cs)
);
}
);
};
layerId = "27BA4E46-0A2B-46F0-A320-1D87D61B7B36";
shapes = (
{
closed = 1;
nodes = (
(363,0,o),
(375,69,o),
(375,197,cs),
(375,648,l),
(264,648,l),
(262,131,l),
(259,116,o),
(230,107,o),
(202,107,cs),
(175,107,o),
(150,114,o),
(143,125,c),
(144,125,l),
(140,134,o),
(140,149,o),
(140,160,cs),
(140,165,l),
(137,648,l),
(25,648,l),
(25,165,ls),
(25,45,o),
(70,0,o),
(200,0,cs)
);
}
);
width = 401;
}
);
unicode = 85;
},
{
glyphname = Uacute;
lastChange = "2024-07-25 10:00:52 +0000";
layers = (
{
background = {
shapes = (
{
closed = 1;
nodes = (
(362.927,0,o),
(375,69.3,o),
(375,197,cs),
(375,648,l),
(264,648,l),
(264,617.333,o),
(263.333,161.667,o),
(262,131,c),
(259.333,116.333,o),
(230,107,o),
(202,107,cs),
(175.333,107,o),
(149.667,114.333,o),
(143,125,c),
(144,125,l),
(140,134.333,o),
(140,149.333,o),
(140,160,cs),
(140,165,l),
(137,648,l),
(25,648,l),
(25,648,l),
(25,165,ls),
(25,45.075,o),
(69.843,0,o),
(200,0,cs)
);
},
{
closed = 1;
nodes = (
(164.167,681,o),
(175,681.333,o),
(187,682,cs),
(201,682,o),
(217,682.333,o),
(235,683,c),
(289,764,l),
(192,764,l),
(166,724,ls),
(159.333,714,o),
(153.333,704.667,o),
(148,696,cs),
(142.667,687.333,o),
(140,682.667,o),
(140,682,cs),
(140,681.333,o),
(144.833,681,o),
(154.5,681,cs)
);
}
);
};
layerId = "27BA4E46-0A2B-46F0-A320-1D87D61B7B36";
shapes = (
{
closed = 1;
nodes = (
(363,0,o),
(375,69,o),
(375,197,cs),
(375,648,l),
(264,648,l),
(264,617,o),
(263,162,o),
(262,131,c),
(259,116,o),
(230,107,o),
(202,107,cs),
(175,107,o),
(150,114,o),
(143,125,c),
(144,125,l),
(140,134,o),
(140,149,o),
(140,160,cs),
(140,165,l),
(137,648,l),
(25,648,l),
(25,165,ls),
(25,45,o),
(70,0,o),
(200,0,cs)
);
},
{
closed = 1;
nodes = (
(187,682,l),
(235,683,l),
(289,764,l),
(192,764,l),
(166,724,l),
(148,696,l),
(140,682,l),
(140,681,o),
(145,681,o),
(155,681,cs)
);
}
);
width = 401;
}
);
unicode = 218;
},
{
glyphname = Ubreve;
lastChange = "2024-07-25 10:00:52 +0000";
layers = (
{
background = {
shapes = (
{
closed = 1;
nodes = (
(362.927,0,o),
(375,69.3,o),
(375,197,cs),
(375,648,l),
(264,648,l),
(264,632.667,o),
(264.167,617.833,o),
(264.5,603.5,cs),
(264.833,589.167,o),
(265,572,o),
(265,552,cs),
(265,472,o),
(263.333,161.667,o),
(262,131,c),
(259.333,116.333,o),
(230,107,o),
(202,107,cs),
(175.333,107,o),
(149.667,114.333,o),
(143,125,c),
(144,125,l),
(140,134.333,o),
(140,149.333,o),
(140,160,cs),
(140,165,l),
(137,648,l),
(25,648,l),
(25,648,l),
(25,165,ls),
(25,45.075,o),
(69.843,0,o),
(200,0,cs)
);
},
{
closed = 1;
nodes = (
(276,679,o),
(313.333,708.333,o),
(316,783,c),
(251,783,l),
(245.667,744.333,o),
(229.333,742,o),
(200,742,cs),
(172,742,o),
(157.333,744.333,o),
(152,783,c),
(87,783,l),
(89.667,708.333,o),
(124,679,o),
(200,679,cs)
);
}
);
};
layerId = "27BA4E46-0A2B-46F0-A320-1D87D61B7B36";
shapes = (
{
closed = 1;
nodes = (
(363,0,o),
(375,69,o),
(375,197,cs),
(375,648,l),
(264,648,l),
(265,604,l),
(265,552,ls),
(265,472,o),
(263,162,o),
(262,131,c),
(259,116,o),
(230,107,o),
(202,107,cs),
(175,107,o),
(150,114,o),
(143,125,c),
(144,125,l),
(140,134,o),
(140,149,o),
(140,160,cs),
(140,165,l),
(137,648,l),
(25,648,l),
(25,165,ls),
(25,45,o),
(70,0,o),
(200,0,cs)
);
},
{
closed = 1;
nodes = (
(276,679,o),
(313,708,o),
(316,783,c),
(251,783,l),
(246,744,o),
(229,742,o),
(200,742,cs),
(172,742,o),
(157,744,o),
(152,783,c),
(87,783,l),
(90,708,o),
(124,679,o),
(200,679,cs)
);
}
);
width = 401;
}
);
unicode = 364;
},
{
glyphname = Ucircumflex;
lastChange = "2024-07-25 10:00:52 +0000";
layers = (
{
background = {
shapes = (
{
closed = 1;
nodes = (
(362.927,0,o),
(375,69.3,o),
(375,197,cs),
(375,648,l),
(264,648,l),
(264,632.667,o),
(264.167,617.833,o),
(264.5,603.5,cs),
(264.833,589.167,o),
(265,572,o),
(265,552,cs),
(265,472,o),
(263.333,161.667,o),
(262,131,c),
(259.333,116.333,o),
(230,107,o),
(202,107,cs),
(175.333,107,o),
(149.667,114.333,o),
(143,125,c),
(144,125,l),
(140,134.333,o),
(140,149.333,o),
(140,160,cs),
(140,165,l),
(137,648,l),
(25,648,l),
(25,648,l),
(25,165,ls),
(25,45.075,o),
(69.843,0,o),
(200,0,cs)
);
},
{
closed = 1;
nodes = (
(160,676,l),
(199,736,l),
(241,680,l),
(345,680,l),
(285,774,l),
(114,772,l),
(56,676,l),
(56,676,l)
);
}
);
};
layerId = "27BA4E46-0A2B-46F0-A320-1D87D61B7B36";
shapes = (
{
closed = 1;
nodes = (
(363,0,o),
(375,69,o),
(375,197,cs),
(375,648,l),
(264,648,l),
(265,604,l),
(265,552,ls),
(265,472,o),
(263,162,o),
(262,131,c),
(259,116,o),
(230,107,o),
(202,107,cs),
(175,107,o),
(150,114,o),
(143,125,c),
(144,125,l),
(140,134,o),
(140,149,o),
(140,160,cs),
(140,165,l),
(137,648,l),
(25,648,l),
(25,165,ls),
(25,45,o),
(70,0,o),
(200,0,cs)
);
},
{
closed = 1;
nodes = (
(160,676,l),
(199,736,l),
(241,680,l),
(345,680,l),
(285,774,l),
(114,772,l),
(56,676,l)
);
}
);
width = 401;
}
);
unicode = 219;
},
{
glyphname = Udieresis;
lastChange = "2024-07-25 12:15:26 +0000";
layers = (
{
background = {
shapes = (
{
closed = 1;
nodes = (
(362.927,0,o),
(375,69.3,o),
(375,197,cs),
(375,648,l),
(264,648,l),
(264,632.667,o),
(264.167,617.833,o),
(264.5,603.5,cs),
(264.833,589.167,o),
(265,572,o),
(265,552,cs),
(265,472,o),
(263.333,161.667,o),
(262,131,c),
(259.333,116.333,o),
(230,107,o),
(202,107,cs),
(175.333,107,o),
(149.667,114.333,o),
(143,125,c),
(144,125,l),
(140,134.333,o),
(140,149.333,o),
(140,160,cs),
(140,165,l),
(137,648,l),
(25,648,l),
(25,648,l),
(25,165,ls),
(25,45.075,o),
(69.843,0,o),
(200,0,cs)
);
},
{
closed = 1;
nodes = (
(94.167,680,o),
(105,680.333,o),
(117,681,cs),
(131,681,o),
(147,681.333,o),
(165,682,c),
(166,763,l),
(70,763,l),
(70,681,ls),
(70,680.333,o),
(74.833,680,o),
(84.5,680,cs)
);
},
{
closed = 1;
nodes = (
(254,683,l),
(254,683,o),
(254,683,o),
(254,683,c),
(258,683,l),
(258,683,o),
(258,683,o),
(258,683,c),
(258,683,o),
(258,683,o),
(258,683,c),
(260,683,l),
(260,683,o),
(260,683,o),
(260,683,c),
(260,683,o),
(260,683,o),
(260,683,c),
(261,683,l),
(261,683,o),
(261,683,o),
(261,683,c),
(261,683,o),
(261,683,o),
(261,683,c),
(261,683,o),
(261,683,o),
(261,683,c),
(266,683,l),
(266,683,o),
(266,683,o),
(266,683,c),
(266,683,o),
(266,683,o),
(266,683,c),
(267,683,l),
(267,683,o),
(267,683,o),
(267,683,c),
(270,683,ls),
(284,683,o),
(300,683.333,o),
(318,684,c),
(319,765,l),
(223,765,l),
(223,684,ls),
(223,683.333,o),
(228,683,o),
(238,683,cs)
);
}
);
};
layerId = "27BA4E46-0A2B-46F0-A320-1D87D61B7B36";
shapes = (
{
closed = 1;
nodes = (
(363,0,o),
(375,69,o),
(375,197,cs),
(375,648,l),
(264,648,l),
(265,604,l),
(265,552,ls),
(265,472,o),
(263,162,o),
(262,131,c),
(259,116,o),
(230,107,o),
(202,107,cs),
(175,107,o),
(150,114,o),
(143,125,c),
(144,125,l),
(140,134,o),
(140,149,o),
(140,160,cs),
(140,165,l),
(137,648,l),
(25,648,l),
(25,165,ls),
(25,45,o),
(70,0,o),
(200,0,cs)
);
},
{
closed = 1;
nodes = (
(117,681,l),
(165,682,l),
(166,763,l),
(70,763,l),
(70,681,ls),
(70,680,o),
(75,680,o),
(85,680,cs)
);
},
{
closed = 1;
nodes = (
(270,683,l),
(318,684,l),
(319,765,l),
(223,765,l),
(223,684,ls),
(223,683,o),
(228,683,o),
(238,683,cs)
);
}
);
width = 401;
}
);
unicode = 220;
},
{
glyphname = Ugrave;
lastChange = "2024-07-25 10:00:52 +0000";
layers = (
{
background = {
shapes = (
{
closed = 1;
nodes = (
(362.927,0,o),
(375,69.3,o),
(375,197,cs),
(375,648,l),
(264,648,l),
(264,617.333,o),
(263.333,161.667,o),
(262,131,c),
(259.333,116.333,o),
(230,107,o),
(202,107,cs),
(175.333,107,o),
(149.667,114.333,o),
(143,125,c),
(144,125,l),
(140,134.333,o),
(140,149.333,o),
(140,160,cs),
(140,165,l),
(137,648,l),
(25,648,l),
(25,648,l),
(25,165,ls),
(25,45.075,o),
(69.843,0,o),
(200,0,cs)
);
},
{
closed = 1;
nodes = (
(198.167,680,o),
(209,680.333,o),
(221,681,cs),
(235,681,o),
(251,681.333,o),
(269,682,c),
(209,763,l),
(112,763,l),
(123.333,748.333,o),
(133.667,735,o),
(143,723,cs),
(150.333,713,o),
(157.333,703.667,o),
(164,695,cs),
(170.667,686.333,o),
(174,681.667,o),
(174,681,cs),
(174,680.333,o),
(178.833,680,o),
(188.5,680,cs)
);
}
);
};
layerId = "27BA4E46-0A2B-46F0-A320-1D87D61B7B36";
shapes = (
{
closed = 1;
nodes = (
(363,0,o),
(375,69,o),
(375,197,cs),
(375,648,l),
(264,648,l),
(264,617,o),
(263,162,o),
(262,131,c),
(259,116,o),
(230,107,o),
(202,107,cs),
(175,107,o),
(150,114,o),
(143,125,c),
(144,125,l),
(140,134,o),
(140,149,o),
(140,160,cs),
(140,165,l),
(137,648,l),
(25,648,l),
(25,165,ls),
(25,45,o),
(70,0,o),
(200,0,cs)
);
},
{
closed = 1;
nodes = (
(221,681,l),
(269,682,l),
(209,763,l),
(112,763,l),
(143,723,l),
(164,695,l),
(174,681,l),
(174,680,o),
(179,680,o),
(189,680,cs)
);
}
);
width = 401;
}
);
unicode = 217;
},
{
glyphname = Uhungarumlaut;
lastChange = "2024-07-25 10:00:52 +0000";
layers = (
{
background = {
shapes = (
{
closed = 1;
nodes = (
(362.927,0,o),
(375,69.3,o),
(375,197,cs),
(375,648,l),
(264,648,l),
(264,617.333,o),
(263.333,161.667,o),
(262,131,c),
(259.333,116.333,o),
(230,107,o),
(202,107,cs),
(175.333,107,o),
(149.667,114.333,o),
(143,125,c),
(144,125,l),
(140,134.333,o),
(140,149.333,o),
(140,160,cs),
(140,165,l),
(137,648,l),
(25,648,l),
(25,648,l),
(25,165,ls),
(25,45.075,o),
(69.843,0,o),
(200,0,cs)
);
},
{
closed = 1;
nodes = (
(74.167,681,o),
(85,681.333,o),
(97,682,cs),
(111,682,o),
(127,682.333,o),
(145,683,c),
(199,764,l),
(102,764,l),
(76,724,ls),
(69.333,714,o),
(63.333,704.667,o),
(58,696,cs),
(52.667,687.333,o),
(50,682.667,o),
(50,682,cs),
(50,681.333,o),
(54.833,681,o),
(64.5,681,cs)
);
},
{
closed = 1;
nodes = (
(238.167,681,o),
(249,681.333,o),
(261,682,cs),
(275,682,o),
(291,682.333,o),
(309,683,c),
(363,764,l),
(266,764,l),
(240,724,ls),
(233.333,714,o),
(227.333,704.667,o),
(222,696,cs),
(216.667,687.333,o),
(214,682.667,o),
(214,682,cs),
(214,681.333,o),
(218.833,681,o),
(228.5,681,cs)
);
}
);
};
layerId = "27BA4E46-0A2B-46F0-A320-1D87D61B7B36";
shapes = (
{
closed = 1;
nodes = (
(363,0,o),
(375,69,o),
(375,197,cs),
(375,648,l),
(264,648,l),
(264,617,o),
(263,162,o),
(262,131,c),
(259,116,o),
(230,107,o),
(202,107,cs),
(175,107,o),
(150,114,o),
(143,125,c),
(144,125,l),
(140,134,o),
(140,149,o),
(140,160,cs),
(140,165,l),
(137,648,l),
(25,648,l),
(25,165,ls),
(25,45,o),
(70,0,o),
(200,0,cs)
);
},
{
closed = 1;
nodes = (
(97,682,l),
(145,683,l),
(199,764,l),
(102,764,l),
(76,724,l),
(58,696,l),
(50,682,l),
(50,681,o),
(55,681,o),
(65,681,cs)
);
},
{
closed = 1;
nodes = (
(261,682,l),
(309,683,l),
(363,764,l),
(266,764,l),
(240,724,l),
(222,696,l),
(214,682,l),
(214,681,o),
(219,681,o),
(229,681,cs)
);
}
);
width = 401;
}
);
unicode = 368;
},
